<?xml version="1.0" encoding="utf-8" standalone="no"?>
<!DOCTYPE svg PUBLIC "-//W3C//DTD SVG 1.1//EN"
  "http://www.w3.org/Graphics/SVG/1.1/DTD/svg11.dtd">
<svg height="345.6pt" version="1.1" viewBox="0 0 460.8 345.6" width="460.8pt" xmlns="http://www.w3.org/2000/svg" xmlns:xlink="http://www.w3.org/1999/xlink">
 <metadata>
  <rdf:RDF xmlns:cc="http://creativecommons.org/ns#" xmlns:dc="http://purl.org/dc/elements/1.1/" xmlns:rdf="http://www.w3.org/1999/02/22-rdf-syntax-ns#">
   <cc:Work>
    <dc:type rdf:resource="http://purl.org/dc/dcmitype/StillImage"/>
    <dc:date>2022-01-23T07:12:26.782335</dc:date>
    <dc:format>image/svg+xml</dc:format>
    <dc:creator>
     <cc:Agent>
      <dc:title>Matplotlib v3.4.3, https://matplotlib.org/</dc:title>
     </cc:Agent>
    </dc:creator>
   </cc:Work>
  </rdf:RDF>
 </metadata>
 <defs>
  <style type="text/css">*{stroke-linecap:butt;stroke-linejoin:round;}</style>
 </defs>
 <g id="figure_1">
  <g id="patch_1">
   <path d="M 0 345.6 
L 460.8 345.6 
L 460.8 0 
L 0 0 
z
" style="fill:#ffffff;"/>
  </g>
  <g id="axes_1">
   <g id="patch_2">
    <path d="M 57.6 307.584 
L 414.72 307.584 
L 414.72 41.472 
L 57.6 41.472 
z
" style="fill:#ffffff;"/>
   </g>
   <g id="patch_3">
    <path clip-path="url(#p375715e3aa)" d="M 130.294387 307.584 
L 144.409802 307.584 
L 144.409802 304.365375 
L 130.294387 304.365375 
z
" style="fill:#1f77b4;"/>
   </g>
   <g id="patch_4">
    <path clip-path="url(#p375715e3aa)" d="M 73.832727 307.584 
L 87.948142 307.584 
L 87.948142 306.86717 
L 73.832727 306.86717 
z
" style="fill:#1f77b4;"/>
   </g>
   <g id="patch_5">
    <path clip-path="url(#p375715e3aa)" d="M 73.832727 307.584 
L 87.948142 307.584 
L 87.948142 306.888992 
L 73.832727 306.888992 
z
" style="fill:#1f77b4;"/>
   </g>
   <g id="patch_6">
    <path clip-path="url(#p375715e3aa)" d="M 73.832727 307.584 
L 87.948142 307.584 
L 87.948142 306.864637 
L 73.832727 306.864637 
z
" style="fill:#1f77b4;"/>
   </g>
   <g id="patch_7">
    <path clip-path="url(#p375715e3aa)" d="M 73.832727 307.584 
L 87.948142 307.584 
L 87.948142 306.863468 
L 73.832727 306.863468 
z
" style="fill:#1f77b4;"/>
   </g>
   <g id="patch_8">
    <path clip-path="url(#p375715e3aa)" d="M 73.832727 307.584 
L 87.948142 307.584 
L 87.948142 306.876327 
L 73.832727 306.876327 
z
" style="fill:#1f77b4;"/>
   </g>
   <g id="patch_9">
    <path clip-path="url(#p375715e3aa)" d="M 73.832727 307.584 
L 87.948142 307.584 
L 87.948142 306.882367 
L 73.832727 306.882367 
z
" style="fill:#1f77b4;"/>
   </g>
   <g id="patch_10">
    <path clip-path="url(#p375715e3aa)" d="M 73.832727 307.584 
L 87.948142 307.584 
L 87.948142 306.876912 
L 73.832727 306.876912 
z
" style="fill:#1f77b4;"/>
   </g>
   <g id="patch_11">
    <path clip-path="url(#p375715e3aa)" d="M 73.832727 307.584 
L 87.948142 307.584 
L 87.948142 306.868144 
L 73.832727 306.868144 
z
" style="fill:#1f77b4;"/>
   </g>
   <g id="patch_12">
    <path clip-path="url(#p375715e3aa)" d="M 73.832727 307.584 
L 87.948142 307.584 
L 87.948142 306.888408 
L 73.832727 306.888408 
z
" style="fill:#1f77b4;"/>
   </g>
   <g id="patch_13">
    <path clip-path="url(#p375715e3aa)" d="M 73.832727 307.584 
L 87.948142 307.584 
L 87.948142 306.872235 
L 73.832727 306.872235 
z
" style="fill:#1f77b4;"/>
   </g>
   <g id="patch_14">
    <path clip-path="url(#p375715e3aa)" d="M 73.832727 307.584 
L 87.948142 307.584 
L 87.948142 306.871456 
L 73.832727 306.871456 
z
" style="fill:#1f77b4;"/>
   </g>
   <g id="patch_15">
    <path clip-path="url(#p375715e3aa)" d="M 73.832727 307.584 
L 87.948142 307.584 
L 87.948142 306.861519 
L 73.832727 306.861519 
z
" style="fill:#1f77b4;"/>
   </g>
   <g id="patch_16">
    <path clip-path="url(#p375715e3aa)" d="M 73.832727 307.584 
L 87.948142 307.584 
L 87.948142 306.874768 
L 73.832727 306.874768 
z
" style="fill:#1f77b4;"/>
   </g>
   <g id="patch_17">
    <path clip-path="url(#p375715e3aa)" d="M 73.832727 307.584 
L 87.948142 307.584 
L 87.948142 306.865221 
L 73.832727 306.865221 
z
" style="fill:#1f77b4;"/>
   </g>
   <g id="patch_18">
    <path clip-path="url(#p375715e3aa)" d="M 73.832727 307.584 
L 87.948142 307.584 
L 87.948142 306.862104 
L 73.832727 306.862104 
z
" style="fill:#1f77b4;"/>
   </g>
   <g id="patch_19">
    <path clip-path="url(#p375715e3aa)" d="M 73.832727 307.584 
L 87.948142 307.584 
L 87.948142 306.866975 
L 73.832727 306.866975 
z
" style="fill:#1f77b4;"/>
   </g>
   <g id="patch_20">
    <path clip-path="url(#p375715e3aa)" d="M 73.832727 307.584 
L 87.948142 307.584 
L 87.948142 306.864637 
L 73.832727 306.864637 
z
" style="fill:#1f77b4;"/>
   </g>
   <g id="patch_21">
    <path clip-path="url(#p375715e3aa)" d="M 73.832727 307.584 
L 87.948142 307.584 
L 87.948142 306.863662 
L 73.832727 306.863662 
z
" style="fill:#1f77b4;"/>
   </g>
   <g id="patch_22">
    <path clip-path="url(#p375715e3aa)" d="M 73.832727 307.584 
L 87.948142 307.584 
L 87.948142 306.878081 
L 73.832727 306.878081 
z
" style="fill:#1f77b4;"/>
   </g>
   <g id="patch_23">
    <path clip-path="url(#p375715e3aa)" d="M 73.832727 307.584 
L 87.948142 307.584 
L 87.948142 306.863273 
L 73.832727 306.863273 
z
" style="fill:#1f77b4;"/>
   </g>
   <g id="patch_24">
    <path clip-path="url(#p375715e3aa)" d="M 73.832727 307.584 
L 87.948142 307.584 
L 87.948142 306.868728 
L 73.832727 306.868728 
z
" style="fill:#1f77b4;"/>
   </g>
   <g id="patch_25">
    <path clip-path="url(#p375715e3aa)" d="M 73.832727 307.584 
L 87.948142 307.584 
L 87.948142 306.866585 
L 73.832727 306.866585 
z
" style="fill:#1f77b4;"/>
   </g>
   <g id="patch_26">
    <path clip-path="url(#p375715e3aa)" d="M 73.832727 307.584 
L 87.948142 307.584 
L 87.948142 306.876132 
L 73.832727 306.876132 
z
" style="fill:#1f77b4;"/>
   </g>
   <g id="patch_27">
    <path clip-path="url(#p375715e3aa)" d="M 73.832727 307.584 
L 87.948142 307.584 
L 87.948142 306.87243 
L 73.832727 306.87243 
z
" style="fill:#1f77b4;"/>
   </g>
   <g id="patch_28">
    <path clip-path="url(#p375715e3aa)" d="M 73.832727 307.584 
L 87.948142 307.584 
L 87.948142 306.877496 
L 73.832727 306.877496 
z
" style="fill:#1f77b4;"/>
   </g>
   <g id="patch_29">
    <path clip-path="url(#p375715e3aa)" d="M 73.832727 307.584 
L 87.948142 307.584 
L 87.948142 306.872041 
L 73.832727 306.872041 
z
" style="fill:#1f77b4;"/>
   </g>
   <g id="patch_30">
    <path clip-path="url(#p375715e3aa)" d="M 73.832727 307.584 
L 87.948142 307.584 
L 87.948142 306.876912 
L 73.832727 306.876912 
z
" style="fill:#1f77b4;"/>
   </g>
   <g id="patch_31">
    <path clip-path="url(#p375715e3aa)" d="M 73.832727 307.584 
L 87.948142 307.584 
L 87.948142 306.873405 
L 73.832727 306.873405 
z
" style="fill:#1f77b4;"/>
   </g>
   <g id="patch_32">
    <path clip-path="url(#p375715e3aa)" d="M 73.832727 307.584 
L 87.948142 307.584 
L 87.948142 306.869313 
L 73.832727 306.869313 
z
" style="fill:#1f77b4;"/>
   </g>
   <g id="patch_33">
    <path clip-path="url(#p375715e3aa)" d="M 73.832727 307.584 
L 87.948142 307.584 
L 87.948142 306.870677 
L 73.832727 306.870677 
z
" style="fill:#1f77b4;"/>
   </g>
   <g id="patch_34">
    <path clip-path="url(#p375715e3aa)" d="M 73.832727 307.584 
L 87.948142 307.584 
L 87.948142 306.878081 
L 73.832727 306.878081 
z
" style="fill:#1f77b4;"/>
   </g>
   <g id="patch_35">
    <path clip-path="url(#p375715e3aa)" d="M 73.832727 307.584 
L 87.948142 307.584 
L 87.948142 306.862104 
L 73.832727 306.862104 
z
" style="fill:#1f77b4;"/>
   </g>
   <g id="patch_36">
    <path clip-path="url(#p375715e3aa)" d="M 73.832727 307.584 
L 87.948142 307.584 
L 87.948142 306.874574 
L 73.832727 306.874574 
z
" style="fill:#1f77b4;"/>
   </g>
   <g id="patch_37">
    <path clip-path="url(#p375715e3aa)" d="M 73.832727 307.584 
L 87.948142 307.584 
L 87.948142 306.871261 
L 73.832727 306.871261 
z
" style="fill:#1f77b4;"/>
   </g>
   <g id="patch_38">
    <path clip-path="url(#p375715e3aa)" d="M 73.832727 307.584 
L 87.948142 307.584 
L 87.948142 306.860545 
L 73.832727 306.860545 
z
" style="fill:#1f77b4;"/>
   </g>
   <g id="patch_39">
    <path clip-path="url(#p375715e3aa)" d="M 73.832727 307.584 
L 87.948142 307.584 
L 87.948142 306.867949 
L 73.832727 306.867949 
z
" style="fill:#1f77b4;"/>
   </g>
   <g id="patch_40">
    <path clip-path="url(#p375715e3aa)" d="M 73.832727 307.584 
L 87.948142 307.584 
L 87.948142 306.872041 
L 73.832727 306.872041 
z
" style="fill:#1f77b4;"/>
   </g>
   <g id="patch_41">
    <path clip-path="url(#p375715e3aa)" d="M 73.832727 307.584 
L 87.948142 307.584 
L 87.948142 306.867949 
L 73.832727 306.867949 
z
" style="fill:#1f77b4;"/>
   </g>
   <g id="patch_42">
    <path clip-path="url(#p375715e3aa)" d="M 73.832727 307.584 
L 87.948142 307.584 
L 87.948142 306.871846 
L 73.832727 306.871846 
z
" style="fill:#1f77b4;"/>
   </g>
   <g id="patch_43">
    <path clip-path="url(#p375715e3aa)" d="M 73.832727 307.584 
L 87.948142 307.584 
L 87.948142 306.863273 
L 73.832727 306.863273 
z
" style="fill:#1f77b4;"/>
   </g>
   <g id="patch_44">
    <path clip-path="url(#p375715e3aa)" d="M 73.832727 307.584 
L 87.948142 307.584 
L 87.948142 306.869897 
L 73.832727 306.869897 
z
" style="fill:#1f77b4;"/>
   </g>
   <g id="patch_45">
    <path clip-path="url(#p375715e3aa)" d="M 73.832727 307.584 
L 87.948142 307.584 
L 87.948142 306.870872 
L 73.832727 306.870872 
z
" style="fill:#1f77b4;"/>
   </g>
   <g id="patch_46">
    <path clip-path="url(#p375715e3aa)" d="M 130.294387 307.584 
L 144.409802 307.584 
L 144.409802 304.327965 
L 130.294387 304.327965 
z
" style="fill:#1f77b4;"/>
   </g>
   <g id="patch_47">
    <path clip-path="url(#p375715e3aa)" d="M 130.294387 307.584 
L 144.409802 307.584 
L 144.409802 304.335953 
L 130.294387 304.335953 
z
" style="fill:#1f77b4;"/>
   </g>
   <g id="patch_48">
    <path clip-path="url(#p375715e3aa)" d="M 130.294387 307.584 
L 144.409802 307.584 
L 144.409802 304.332836 
L 130.294387 304.332836 
z
" style="fill:#1f77b4;"/>
   </g>
   <g id="patch_49">
    <path clip-path="url(#p375715e3aa)" d="M 130.294387 307.584 
L 144.409802 307.584 
L 144.409802 304.332056 
L 130.294387 304.332056 
z
" style="fill:#1f77b4;"/>
   </g>
   <g id="patch_50">
    <path clip-path="url(#p375715e3aa)" d="M 130.294387 307.584 
L 144.409802 307.584 
L 144.409802 304.339266 
L 130.294387 304.339266 
z
" style="fill:#1f77b4;"/>
   </g>
   <g id="patch_51">
    <path clip-path="url(#p375715e3aa)" d="M 130.294387 307.584 
L 144.409802 307.584 
L 144.409802 304.33342 
L 130.294387 304.33342 
z
" style="fill:#1f77b4;"/>
   </g>
   <g id="patch_52">
    <path clip-path="url(#p375715e3aa)" d="M 130.294387 307.584 
L 144.409802 307.584 
L 144.409802 304.320755 
L 130.294387 304.320755 
z
" style="fill:#1f77b4;"/>
   </g>
   <g id="patch_53">
    <path clip-path="url(#p375715e3aa)" d="M 130.294387 307.584 
L 144.409802 307.584 
L 144.409802 304.341019 
L 130.294387 304.341019 
z
" style="fill:#1f77b4;"/>
   </g>
   <g id="patch_54">
    <path clip-path="url(#p375715e3aa)" d="M 130.294387 307.584 
L 144.409802 307.584 
L 144.409802 304.345111 
L 130.294387 304.345111 
z
" style="fill:#1f77b4;"/>
   </g>
   <g id="patch_55">
    <path clip-path="url(#p375715e3aa)" d="M 130.294387 307.584 
L 144.409802 307.584 
L 144.409802 304.350567 
L 130.294387 304.350567 
z
" style="fill:#1f77b4;"/>
   </g>
   <g id="patch_56">
    <path clip-path="url(#p375715e3aa)" d="M 130.294387 307.584 
L 144.409802 307.584 
L 144.409802 304.334589 
L 130.294387 304.334589 
z
" style="fill:#1f77b4;"/>
   </g>
   <g id="patch_57">
    <path clip-path="url(#p375715e3aa)" d="M 130.294387 307.584 
L 144.409802 307.584 
L 144.409802 304.324068 
L 130.294387 304.324068 
z
" style="fill:#1f77b4;"/>
   </g>
   <g id="patch_58">
    <path clip-path="url(#p375715e3aa)" d="M 130.294387 307.584 
L 144.409802 307.584 
L 144.409802 304.326406 
L 130.294387 304.326406 
z
" style="fill:#1f77b4;"/>
   </g>
   <g id="patch_59">
    <path clip-path="url(#p375715e3aa)" d="M 130.294387 307.584 
L 144.409802 307.584 
L 144.409802 304.324652 
L 130.294387 304.324652 
z
" style="fill:#1f77b4;"/>
   </g>
   <g id="patch_60">
    <path clip-path="url(#p375715e3aa)" d="M 130.294387 307.584 
L 144.409802 307.584 
L 144.409802 306.524244 
L 130.294387 306.524244 
z
" style="fill:#1f77b4;"/>
   </g>
   <g id="patch_61">
    <path clip-path="url(#p375715e3aa)" d="M 130.294387 307.584 
L 144.409802 307.584 
L 144.409802 306.522101 
L 130.294387 306.522101 
z
" style="fill:#1f77b4;"/>
   </g>
   <g id="patch_62">
    <path clip-path="url(#p375715e3aa)" d="M 130.294387 307.584 
L 144.409802 307.584 
L 144.409802 306.51762 
L 130.294387 306.51762 
z
" style="fill:#1f77b4;"/>
   </g>
   <g id="patch_63">
    <path clip-path="url(#p375715e3aa)" d="M 130.294387 307.584 
L 144.409802 307.584 
L 144.409802 306.520737 
L 130.294387 306.520737 
z
" style="fill:#1f77b4;"/>
   </g>
   <g id="patch_64">
    <path clip-path="url(#p375715e3aa)" d="M 130.294387 307.584 
L 144.409802 307.584 
L 144.409802 306.523855 
L 130.294387 306.523855 
z
" style="fill:#1f77b4;"/>
   </g>
   <g id="patch_65">
    <path clip-path="url(#p375715e3aa)" d="M 130.294387 307.584 
L 144.409802 307.584 
L 144.409802 306.520153 
L 130.294387 306.520153 
z
" style="fill:#1f77b4;"/>
   </g>
   <g id="patch_66">
    <path clip-path="url(#p375715e3aa)" d="M 130.294387 307.584 
L 144.409802 307.584 
L 144.409802 306.525998 
L 130.294387 306.525998 
z
" style="fill:#1f77b4;"/>
   </g>
   <g id="patch_67">
    <path clip-path="url(#p375715e3aa)" d="M 130.294387 307.584 
L 144.409802 307.584 
L 144.409802 306.526583 
L 130.294387 306.526583 
z
" style="fill:#1f77b4;"/>
   </g>
   <g id="patch_68">
    <path clip-path="url(#p375715e3aa)" d="M 130.294387 307.584 
L 144.409802 307.584 
L 144.409802 306.520348 
L 130.294387 306.520348 
z
" style="fill:#1f77b4;"/>
   </g>
   <g id="patch_69">
    <path clip-path="url(#p375715e3aa)" d="M 130.294387 307.584 
L 144.409802 307.584 
L 144.409802 306.527946 
L 130.294387 306.527946 
z
" style="fill:#1f77b4;"/>
   </g>
   <g id="patch_70">
    <path clip-path="url(#p375715e3aa)" d="M 130.294387 307.584 
L 144.409802 307.584 
L 144.409802 306.523465 
L 130.294387 306.523465 
z
" style="fill:#1f77b4;"/>
   </g>
   <g id="patch_71">
    <path clip-path="url(#p375715e3aa)" d="M 130.294387 307.584 
L 144.409802 307.584 
L 144.409802 306.520737 
L 130.294387 306.520737 
z
" style="fill:#1f77b4;"/>
   </g>
   <g id="patch_72">
    <path clip-path="url(#p375715e3aa)" d="M 130.294387 307.584 
L 144.409802 307.584 
L 144.409802 306.526777 
L 130.294387 306.526777 
z
" style="fill:#1f77b4;"/>
   </g>
   <g id="patch_73">
    <path clip-path="url(#p375715e3aa)" d="M 130.294387 307.584 
L 144.409802 307.584 
L 144.409802 306.522686 
L 130.294387 306.522686 
z
" style="fill:#1f77b4;"/>
   </g>
   <g id="patch_74">
    <path clip-path="url(#p375715e3aa)" d="M 130.294387 307.584 
L 144.409802 307.584 
L 144.409802 306.523855 
L 130.294387 306.523855 
z
" style="fill:#1f77b4;"/>
   </g>
   <g id="patch_75">
    <path clip-path="url(#p375715e3aa)" d="M 130.294387 307.584 
L 144.409802 307.584 
L 144.409802 306.523855 
L 130.294387 306.523855 
z
" style="fill:#1f77b4;"/>
   </g>
   <g id="patch_76">
    <path clip-path="url(#p375715e3aa)" d="M 130.294387 307.584 
L 144.409802 307.584 
L 144.409802 306.526193 
L 130.294387 306.526193 
z
" style="fill:#1f77b4;"/>
   </g>
   <g id="patch_77">
    <path clip-path="url(#p375715e3aa)" d="M 130.294387 307.584 
L 144.409802 307.584 
L 144.409802 306.524244 
L 130.294387 306.524244 
z
" style="fill:#1f77b4;"/>
   </g>
   <g id="patch_78">
    <path clip-path="url(#p375715e3aa)" d="M 130.294387 307.584 
L 144.409802 307.584 
L 144.409802 306.521517 
L 130.294387 306.521517 
z
" style="fill:#1f77b4;"/>
   </g>
   <g id="patch_79">
    <path clip-path="url(#p375715e3aa)" d="M 130.294387 307.584 
L 144.409802 307.584 
L 144.409802 306.525803 
L 130.294387 306.525803 
z
" style="fill:#1f77b4;"/>
   </g>
   <g id="patch_80">
    <path clip-path="url(#p375715e3aa)" d="M 130.294387 307.584 
L 144.409802 307.584 
L 144.409802 306.525998 
L 130.294387 306.525998 
z
" style="fill:#1f77b4;"/>
   </g>
   <g id="patch_81">
    <path clip-path="url(#p375715e3aa)" d="M 243.217708 307.584 
L 257.333123 307.584 
L 257.333123 305.458643 
L 243.217708 305.458643 
z
" style="fill:#1f77b4;"/>
   </g>
   <g id="patch_82">
    <path clip-path="url(#p375715e3aa)" d="M 243.217708 307.584 
L 257.333123 307.584 
L 257.333123 305.453772 
L 243.217708 305.453772 
z
" style="fill:#1f77b4;"/>
   </g>
   <g id="patch_83">
    <path clip-path="url(#p375715e3aa)" d="M 243.217708 307.584 
L 257.333123 307.584 
L 257.333123 305.461176 
L 243.217708 305.461176 
z
" style="fill:#1f77b4;"/>
   </g>
   <g id="patch_84">
    <path clip-path="url(#p375715e3aa)" d="M 243.217708 307.584 
L 257.333123 307.584 
L 257.333123 305.454552 
L 243.217708 305.454552 
z
" style="fill:#1f77b4;"/>
   </g>
   <g id="patch_85">
    <path clip-path="url(#p375715e3aa)" d="M 243.217708 307.584 
L 257.333123 307.584 
L 257.333123 305.461761 
L 243.217708 305.461761 
z
" style="fill:#1f77b4;"/>
   </g>
   <g id="patch_86">
    <path clip-path="url(#p375715e3aa)" d="M 243.217708 307.584 
L 257.333123 307.584 
L 257.333123 305.467996 
L 243.217708 305.467996 
z
" style="fill:#1f77b4;"/>
   </g>
   <g id="patch_87">
    <path clip-path="url(#p375715e3aa)" d="M 243.217708 307.584 
L 257.333123 307.584 
L 257.333123 305.456305 
L 243.217708 305.456305 
z
" style="fill:#1f77b4;"/>
   </g>
   <g id="patch_88">
    <path clip-path="url(#p375715e3aa)" d="M 243.217708 307.584 
L 257.333123 307.584 
L 257.333123 305.467606 
L 243.217708 305.467606 
z
" style="fill:#1f77b4;"/>
   </g>
   <g id="patch_89">
    <path clip-path="url(#p375715e3aa)" d="M 243.217708 307.584 
L 257.333123 307.584 
L 257.333123 305.464099 
L 243.217708 305.464099 
z
" style="fill:#1f77b4;"/>
   </g>
   <g id="patch_90">
    <path clip-path="url(#p375715e3aa)" d="M 243.217708 307.584 
L 257.333123 307.584 
L 257.333123 305.459618 
L 243.217708 305.459618 
z
" style="fill:#1f77b4;"/>
   </g>
   <g id="patch_91">
    <path clip-path="url(#p375715e3aa)" d="M 243.217708 307.584 
L 257.333123 307.584 
L 257.333123 305.460982 
L 243.217708 305.460982 
z
" style="fill:#1f77b4;"/>
   </g>
   <g id="patch_92">
    <path clip-path="url(#p375715e3aa)" d="M 243.217708 307.584 
L 257.333123 307.584 
L 257.333123 305.461761 
L 243.217708 305.461761 
z
" style="fill:#1f77b4;"/>
   </g>
   <g id="patch_93">
    <path clip-path="url(#p375715e3aa)" d="M 243.217708 307.584 
L 257.333123 307.584 
L 257.333123 305.467801 
L 243.217708 305.467801 
z
" style="fill:#1f77b4;"/>
   </g>
   <g id="patch_94">
    <path clip-path="url(#p375715e3aa)" d="M 243.217708 307.584 
L 257.333123 307.584 
L 257.333123 305.457474 
L 243.217708 305.457474 
z
" style="fill:#1f77b4;"/>
   </g>
   <g id="patch_95">
    <path clip-path="url(#p375715e3aa)" d="M 243.217708 307.584 
L 257.333123 307.584 
L 257.333123 305.464294 
L 243.217708 305.464294 
z
" style="fill:#1f77b4;"/>
   </g>
   <g id="patch_96">
    <path clip-path="url(#p375715e3aa)" d="M 243.217708 307.584 
L 257.333123 307.584 
L 257.333123 305.455916 
L 243.217708 305.455916 
z
" style="fill:#1f77b4;"/>
   </g>
   <g id="patch_97">
    <path clip-path="url(#p375715e3aa)" d="M 243.217708 307.584 
L 257.333123 307.584 
L 257.333123 305.460397 
L 243.217708 305.460397 
z
" style="fill:#1f77b4;"/>
   </g>
   <g id="patch_98">
    <path clip-path="url(#p375715e3aa)" d="M 243.217708 307.584 
L 257.333123 307.584 
L 257.333123 305.454357 
L 243.217708 305.454357 
z
" style="fill:#1f77b4;"/>
   </g>
   <g id="patch_99">
    <path clip-path="url(#p375715e3aa)" d="M 243.217708 307.584 
L 257.333123 307.584 
L 257.333123 305.464878 
L 243.217708 305.464878 
z
" style="fill:#1f77b4;"/>
   </g>
   <g id="patch_100">
    <path clip-path="url(#p375715e3aa)" d="M 243.217708 307.584 
L 257.333123 307.584 
L 257.333123 305.471113 
L 243.217708 305.471113 
z
" style="fill:#1f77b4;"/>
   </g>
   <g id="patch_101">
    <path clip-path="url(#p375715e3aa)" d="M 243.217708 307.584 
L 257.333123 307.584 
L 257.333123 305.461956 
L 243.217708 305.461956 
z
" style="fill:#1f77b4;"/>
   </g>
   <g id="patch_102">
    <path clip-path="url(#p375715e3aa)" d="M 356.141028 307.584 
L 370.256443 307.584 
L 370.256443 304.413111 
L 356.141028 304.413111 
z
" style="fill:#1f77b4;"/>
   </g>
   <g id="patch_103">
    <path clip-path="url(#p375715e3aa)" d="M 356.141028 307.584 
L 370.256443 307.584 
L 370.256443 304.405123 
L 356.141028 304.405123 
z
" style="fill:#1f77b4;"/>
   </g>
   <g id="patch_104">
    <path clip-path="url(#p375715e3aa)" d="M 356.141028 307.584 
L 370.256443 307.584 
L 370.256443 304.410189 
L 356.141028 304.410189 
z
" style="fill:#1f77b4;"/>
   </g>
   <g id="patch_105">
    <path clip-path="url(#p375715e3aa)" d="M 356.141028 307.584 
L 370.256443 307.584 
L 370.256443 304.396745 
L 356.141028 304.396745 
z
" style="fill:#1f77b4;"/>
   </g>
   <g id="patch_106">
    <path clip-path="url(#p375715e3aa)" d="M 356.141028 307.584 
L 370.256443 307.584 
L 370.256443 304.400057 
L 356.141028 304.400057 
z
" style="fill:#1f77b4;"/>
   </g>
   <g id="patch_107">
    <path clip-path="url(#p375715e3aa)" d="M 356.141028 307.584 
L 370.256443 307.584 
L 370.256443 304.396355 
L 356.141028 304.396355 
z
" style="fill:#1f77b4;"/>
   </g>
   <g id="patch_108">
    <path clip-path="url(#p375715e3aa)" d="M 356.141028 307.584 
L 370.256443 307.584 
L 370.256443 304.401226 
L 356.141028 304.401226 
z
" style="fill:#1f77b4;"/>
   </g>
   <g id="patch_109">
    <path clip-path="url(#p375715e3aa)" d="M 356.141028 307.584 
L 370.256443 307.584 
L 370.256443 304.40298 
L 356.141028 304.40298 
z
" style="fill:#1f77b4;"/>
   </g>
   <g id="patch_110">
    <path clip-path="url(#p375715e3aa)" d="M 356.141028 307.584 
L 370.256443 307.584 
L 370.256443 304.397329 
L 356.141028 304.397329 
z
" style="fill:#1f77b4;"/>
   </g>
   <g id="patch_111">
    <path clip-path="url(#p375715e3aa)" d="M 356.141028 307.584 
L 370.256443 307.584 
L 370.256443 304.402785 
L 356.141028 304.402785 
z
" style="fill:#1f77b4;"/>
   </g>
   <g id="patch_112">
    <path clip-path="url(#p375715e3aa)" d="M 356.141028 307.584 
L 370.256443 307.584 
L 370.256443 304.40181 
L 356.141028 304.40181 
z
" style="fill:#1f77b4;"/>
   </g>
   <g id="patch_113">
    <path clip-path="url(#p375715e3aa)" d="M 356.141028 307.584 
L 370.256443 307.584 
L 370.256443 304.392263 
L 356.141028 304.392263 
z
" style="fill:#1f77b4;"/>
   </g>
   <g id="patch_114">
    <path clip-path="url(#p375715e3aa)" d="M 356.141028 307.584 
L 370.256443 307.584 
L 370.256443 304.411163 
L 356.141028 304.411163 
z
" style="fill:#1f77b4;"/>
   </g>
   <g id="patch_115">
    <path clip-path="url(#p375715e3aa)" d="M 356.141028 307.584 
L 370.256443 307.584 
L 370.256443 304.40298 
L 356.141028 304.40298 
z
" style="fill:#1f77b4;"/>
   </g>
   <g id="patch_116">
    <path clip-path="url(#p375715e3aa)" d="M 356.141028 307.584 
L 370.256443 307.584 
L 370.256443 304.397524 
L 356.141028 304.397524 
z
" style="fill:#1f77b4;"/>
   </g>
   <g id="patch_117">
    <path clip-path="url(#p375715e3aa)" d="M 356.141028 307.584 
L 370.256443 307.584 
L 370.256443 304.400057 
L 356.141028 304.400057 
z
" style="fill:#1f77b4;"/>
   </g>
   <g id="patch_118">
    <path clip-path="url(#p375715e3aa)" d="M 356.141028 307.584 
L 370.256443 307.584 
L 370.256443 304.404928 
L 356.141028 304.404928 
z
" style="fill:#1f77b4;"/>
   </g>
   <g id="patch_119">
    <path clip-path="url(#p375715e3aa)" d="M 356.141028 307.584 
L 370.256443 307.584 
L 370.256443 304.398693 
L 356.141028 304.398693 
z
" style="fill:#1f77b4;"/>
   </g>
   <g id="patch_120">
    <path clip-path="url(#p375715e3aa)" d="M 356.141028 307.584 
L 370.256443 307.584 
L 370.256443 304.400252 
L 356.141028 304.400252 
z
" style="fill:#1f77b4;"/>
   </g>
   <g id="patch_121">
    <path clip-path="url(#p375715e3aa)" d="M 356.141028 307.584 
L 370.256443 307.584 
L 370.256443 304.391679 
L 356.141028 304.391679 
z
" style="fill:#1f77b4;"/>
   </g>
   <g id="patch_122">
    <path clip-path="url(#p375715e3aa)" d="M 356.141028 307.584 
L 370.256443 307.584 
L 370.256443 304.39051 
L 356.141028 304.39051 
z
" style="fill:#1f77b4;"/>
   </g>
   <g id="patch_123">
    <path clip-path="url(#p375715e3aa)" d="M 130.294387 307.584 
L 144.409802 307.584 
L 144.409802 304.590419 
L 130.294387 304.590419 
z
" style="fill:#1f77b4;"/>
   </g>
   <g id="patch_124">
    <path clip-path="url(#p375715e3aa)" d="M 130.294387 307.584 
L 144.409802 307.584 
L 144.409802 304.592368 
L 130.294387 304.592368 
z
" style="fill:#1f77b4;"/>
   </g>
   <g id="patch_125">
    <path clip-path="url(#p375715e3aa)" d="M 243.217708 307.584 
L 257.333123 307.584 
L 257.333123 301.646719 
L 243.217708 301.646719 
z
" style="fill:#1f77b4;"/>
   </g>
   <g id="patch_126">
    <path clip-path="url(#p375715e3aa)" d="M 130.294387 307.584 
L 144.409802 307.584 
L 144.409802 304.335369 
L 130.294387 304.335369 
z
" style="fill:#1f77b4;"/>
   </g>
   <g id="patch_127">
    <path clip-path="url(#p375715e3aa)" d="M 130.294387 307.584 
L 144.409802 307.584 
L 144.409802 304.364011 
L 130.294387 304.364011 
z
" style="fill:#1f77b4;"/>
   </g>
   <g id="patch_128">
    <path clip-path="url(#p375715e3aa)" d="M 243.217708 307.584 
L 257.333123 307.584 
L 257.333123 301.654707 
L 243.217708 301.654707 
z
" style="fill:#1f77b4;"/>
   </g>
   <g id="patch_129">
    <path clip-path="url(#p375715e3aa)" d="M 243.217708 307.584 
L 257.333123 307.584 
L 257.333123 301.648862 
L 243.217708 301.648862 
z
" style="fill:#1f77b4;"/>
   </g>
   <g id="patch_130">
    <path clip-path="url(#p375715e3aa)" d="M 130.294387 307.584 
L 144.409802 307.584 
L 144.409802 304.356412 
L 130.294387 304.356412 
z
" style="fill:#1f77b4;"/>
   </g>
   <g id="patch_131">
    <path clip-path="url(#p375715e3aa)" d="M 144.409802 307.584 
L 158.525217 307.584 
L 158.525217 303.612693 
L 144.409802 303.612693 
z
" style="fill:#ff7f0e;"/>
   </g>
   <g id="patch_132">
    <path clip-path="url(#p375715e3aa)" d="M 87.948142 307.584 
L 102.063557 307.584 
L 102.063557 306.866585 
L 87.948142 306.866585 
z
" style="fill:#ff7f0e;"/>
   </g>
   <g id="patch_133">
    <path clip-path="url(#p375715e3aa)" d="M 87.948142 307.584 
L 102.063557 307.584 
L 102.063557 306.869897 
L 87.948142 306.869897 
z
" style="fill:#ff7f0e;"/>
   </g>
   <g id="patch_134">
    <path clip-path="url(#p375715e3aa)" d="M 87.948142 307.584 
L 102.063557 307.584 
L 102.063557 306.888797 
L 87.948142 306.888797 
z
" style="fill:#ff7f0e;"/>
   </g>
   <g id="patch_135">
    <path clip-path="url(#p375715e3aa)" d="M 87.948142 307.584 
L 102.063557 307.584 
L 102.063557 306.875743 
L 87.948142 306.875743 
z
" style="fill:#ff7f0e;"/>
   </g>
   <g id="patch_136">
    <path clip-path="url(#p375715e3aa)" d="M 87.948142 307.584 
L 102.063557 307.584 
L 102.063557 306.871261 
L 87.948142 306.871261 
z
" style="fill:#ff7f0e;"/>
   </g>
   <g id="patch_137">
    <path clip-path="url(#p375715e3aa)" d="M 87.948142 307.584 
L 102.063557 307.584 
L 102.063557 306.867754 
L 87.948142 306.867754 
z
" style="fill:#ff7f0e;"/>
   </g>
   <g id="patch_138">
    <path clip-path="url(#p375715e3aa)" d="M 87.948142 307.584 
L 102.063557 307.584 
L 102.063557 306.876912 
L 87.948142 306.876912 
z
" style="fill:#ff7f0e;"/>
   </g>
   <g id="patch_139">
    <path clip-path="url(#p375715e3aa)" d="M 87.948142 307.584 
L 102.063557 307.584 
L 102.063557 306.879055 
L 87.948142 306.879055 
z
" style="fill:#ff7f0e;"/>
   </g>
   <g id="patch_140">
    <path clip-path="url(#p375715e3aa)" d="M 87.948142 307.584 
L 102.063557 307.584 
L 102.063557 306.869508 
L 87.948142 306.869508 
z
" style="fill:#ff7f0e;"/>
   </g>
   <g id="patch_141">
    <path clip-path="url(#p375715e3aa)" d="M 87.948142 307.584 
L 102.063557 307.584 
L 102.063557 306.869703 
L 87.948142 306.869703 
z
" style="fill:#ff7f0e;"/>
   </g>
   <g id="patch_142">
    <path clip-path="url(#p375715e3aa)" d="M 87.948142 307.584 
L 102.063557 307.584 
L 102.063557 306.870677 
L 87.948142 306.870677 
z
" style="fill:#ff7f0e;"/>
   </g>
   <g id="patch_143">
    <path clip-path="url(#p375715e3aa)" d="M 87.948142 307.584 
L 102.063557 307.584 
L 102.063557 306.875548 
L 87.948142 306.875548 
z
" style="fill:#ff7f0e;"/>
   </g>
   <g id="patch_144">
    <path clip-path="url(#p375715e3aa)" d="M 87.948142 307.584 
L 102.063557 307.584 
L 102.063557 306.873405 
L 87.948142 306.873405 
z
" style="fill:#ff7f0e;"/>
   </g>
   <g id="patch_145">
    <path clip-path="url(#p375715e3aa)" d="M 87.948142 307.584 
L 102.063557 307.584 
L 102.063557 306.867754 
L 87.948142 306.867754 
z
" style="fill:#ff7f0e;"/>
   </g>
   <g id="patch_146">
    <path clip-path="url(#p375715e3aa)" d="M 87.948142 307.584 
L 102.063557 307.584 
L 102.063557 306.873015 
L 87.948142 306.873015 
z
" style="fill:#ff7f0e;"/>
   </g>
   <g id="patch_147">
    <path clip-path="url(#p375715e3aa)" d="M 87.948142 307.584 
L 102.063557 307.584 
L 102.063557 306.871651 
L 87.948142 306.871651 
z
" style="fill:#ff7f0e;"/>
   </g>
   <g id="patch_148">
    <path clip-path="url(#p375715e3aa)" d="M 87.948142 307.584 
L 102.063557 307.584 
L 102.063557 306.887044 
L 87.948142 306.887044 
z
" style="fill:#ff7f0e;"/>
   </g>
   <g id="patch_149">
    <path clip-path="url(#p375715e3aa)" d="M 87.948142 307.584 
L 102.063557 307.584 
L 102.063557 306.881588 
L 87.948142 306.881588 
z
" style="fill:#ff7f0e;"/>
   </g>
   <g id="patch_150">
    <path clip-path="url(#p375715e3aa)" d="M 87.948142 307.584 
L 102.063557 307.584 
L 102.063557 306.863273 
L 87.948142 306.863273 
z
" style="fill:#ff7f0e;"/>
   </g>
   <g id="patch_151">
    <path clip-path="url(#p375715e3aa)" d="M 87.948142 307.584 
L 102.063557 307.584 
L 102.063557 306.861519 
L 87.948142 306.861519 
z
" style="fill:#ff7f0e;"/>
   </g>
   <g id="patch_152">
    <path clip-path="url(#p375715e3aa)" d="M 87.948142 307.584 
L 102.063557 307.584 
L 102.063557 306.873405 
L 87.948142 306.873405 
z
" style="fill:#ff7f0e;"/>
   </g>
   <g id="patch_153">
    <path clip-path="url(#p375715e3aa)" d="M 87.948142 307.584 
L 102.063557 307.584 
L 102.063557 306.876327 
L 87.948142 306.876327 
z
" style="fill:#ff7f0e;"/>
   </g>
   <g id="patch_154">
    <path clip-path="url(#p375715e3aa)" d="M 87.948142 307.584 
L 102.063557 307.584 
L 102.063557 306.862104 
L 87.948142 306.862104 
z
" style="fill:#ff7f0e;"/>
   </g>
   <g id="patch_155">
    <path clip-path="url(#p375715e3aa)" d="M 87.948142 307.584 
L 102.063557 307.584 
L 102.063557 306.877691 
L 87.948142 306.877691 
z
" style="fill:#ff7f0e;"/>
   </g>
   <g id="patch_156">
    <path clip-path="url(#p375715e3aa)" d="M 87.948142 307.584 
L 102.063557 307.584 
L 102.063557 306.875743 
L 87.948142 306.875743 
z
" style="fill:#ff7f0e;"/>
   </g>
   <g id="patch_157">
    <path clip-path="url(#p375715e3aa)" d="M 87.948142 307.584 
L 102.063557 307.584 
L 102.063557 306.865221 
L 87.948142 306.865221 
z
" style="fill:#ff7f0e;"/>
   </g>
   <g id="patch_158">
    <path clip-path="url(#p375715e3aa)" d="M 87.948142 307.584 
L 102.063557 307.584 
L 102.063557 306.870872 
L 87.948142 306.870872 
z
" style="fill:#ff7f0e;"/>
   </g>
   <g id="patch_159">
    <path clip-path="url(#p375715e3aa)" d="M 87.948142 307.584 
L 102.063557 307.584 
L 102.063557 306.874184 
L 87.948142 306.874184 
z
" style="fill:#ff7f0e;"/>
   </g>
   <g id="patch_160">
    <path clip-path="url(#p375715e3aa)" d="M 87.948142 307.584 
L 102.063557 307.584 
L 102.063557 306.867364 
L 87.948142 306.867364 
z
" style="fill:#ff7f0e;"/>
   </g>
   <g id="patch_161">
    <path clip-path="url(#p375715e3aa)" d="M 87.948142 307.584 
L 102.063557 307.584 
L 102.063557 306.869313 
L 87.948142 306.869313 
z
" style="fill:#ff7f0e;"/>
   </g>
   <g id="patch_162">
    <path clip-path="url(#p375715e3aa)" d="M 87.948142 307.584 
L 102.063557 307.584 
L 102.063557 306.869118 
L 87.948142 306.869118 
z
" style="fill:#ff7f0e;"/>
   </g>
   <g id="patch_163">
    <path clip-path="url(#p375715e3aa)" d="M 87.948142 307.584 
L 102.063557 307.584 
L 102.063557 306.877301 
L 87.948142 306.877301 
z
" style="fill:#ff7f0e;"/>
   </g>
   <g id="patch_164">
    <path clip-path="url(#p375715e3aa)" d="M 87.948142 307.584 
L 102.063557 307.584 
L 102.063557 306.860935 
L 87.948142 306.860935 
z
" style="fill:#ff7f0e;"/>
   </g>
   <g id="patch_165">
    <path clip-path="url(#p375715e3aa)" d="M 87.948142 307.584 
L 102.063557 307.584 
L 102.063557 306.870872 
L 87.948142 306.870872 
z
" style="fill:#ff7f0e;"/>
   </g>
   <g id="patch_166">
    <path clip-path="url(#p375715e3aa)" d="M 87.948142 307.584 
L 102.063557 307.584 
L 102.063557 306.872041 
L 87.948142 306.872041 
z
" style="fill:#ff7f0e;"/>
   </g>
   <g id="patch_167">
    <path clip-path="url(#p375715e3aa)" d="M 87.948142 307.584 
L 102.063557 307.584 
L 102.063557 306.863468 
L 87.948142 306.863468 
z
" style="fill:#ff7f0e;"/>
   </g>
   <g id="patch_168">
    <path clip-path="url(#p375715e3aa)" d="M 87.948142 307.584 
L 102.063557 307.584 
L 102.063557 306.866585 
L 87.948142 306.866585 
z
" style="fill:#ff7f0e;"/>
   </g>
   <g id="patch_169">
    <path clip-path="url(#p375715e3aa)" d="M 87.948142 307.584 
L 102.063557 307.584 
L 102.063557 306.873989 
L 87.948142 306.873989 
z
" style="fill:#ff7f0e;"/>
   </g>
   <g id="patch_170">
    <path clip-path="url(#p375715e3aa)" d="M 87.948142 307.584 
L 102.063557 307.584 
L 102.063557 306.880614 
L 87.948142 306.880614 
z
" style="fill:#ff7f0e;"/>
   </g>
   <g id="patch_171">
    <path clip-path="url(#p375715e3aa)" d="M 87.948142 307.584 
L 102.063557 307.584 
L 102.063557 306.876132 
L 87.948142 306.876132 
z
" style="fill:#ff7f0e;"/>
   </g>
   <g id="patch_172">
    <path clip-path="url(#p375715e3aa)" d="M 87.948142 307.584 
L 102.063557 307.584 
L 102.063557 306.879834 
L 87.948142 306.879834 
z
" style="fill:#ff7f0e;"/>
   </g>
   <g id="patch_173">
    <path clip-path="url(#p375715e3aa)" d="M 87.948142 307.584 
L 102.063557 307.584 
L 102.063557 306.866585 
L 87.948142 306.866585 
z
" style="fill:#ff7f0e;"/>
   </g>
   <g id="patch_174">
    <path clip-path="url(#p375715e3aa)" d="M 144.409802 307.584 
L 158.525217 307.584 
L 158.525217 303.61698 
L 144.409802 303.61698 
z
" style="fill:#ff7f0e;"/>
   </g>
   <g id="patch_175">
    <path clip-path="url(#p375715e3aa)" d="M 144.409802 307.584 
L 158.525217 307.584 
L 158.525217 303.599249 
L 144.409802 303.599249 
z
" style="fill:#ff7f0e;"/>
   </g>
   <g id="patch_176">
    <path clip-path="url(#p375715e3aa)" d="M 144.409802 307.584 
L 158.525217 307.584 
L 158.525217 303.607627 
L 144.409802 303.607627 
z
" style="fill:#ff7f0e;"/>
   </g>
   <g id="patch_177">
    <path clip-path="url(#p375715e3aa)" d="M 144.409802 307.584 
L 158.525217 307.584 
L 158.525217 303.602561 
L 144.409802 303.602561 
z
" style="fill:#ff7f0e;"/>
   </g>
   <g id="patch_178">
    <path clip-path="url(#p375715e3aa)" d="M 144.409802 307.584 
L 158.525217 307.584 
L 158.525217 303.601002 
L 144.409802 303.601002 
z
" style="fill:#ff7f0e;"/>
   </g>
   <g id="patch_179">
    <path clip-path="url(#p375715e3aa)" d="M 144.409802 307.584 
L 158.525217 307.584 
L 158.525217 303.599638 
L 144.409802 303.599638 
z
" style="fill:#ff7f0e;"/>
   </g>
   <g id="patch_180">
    <path clip-path="url(#p375715e3aa)" d="M 144.409802 307.584 
L 158.525217 307.584 
L 158.525217 303.600028 
L 144.409802 303.600028 
z
" style="fill:#ff7f0e;"/>
   </g>
   <g id="patch_181">
    <path clip-path="url(#p375715e3aa)" d="M 144.409802 307.584 
L 158.525217 307.584 
L 158.525217 303.609381 
L 144.409802 303.609381 
z
" style="fill:#ff7f0e;"/>
   </g>
   <g id="patch_182">
    <path clip-path="url(#p375715e3aa)" d="M 144.409802 307.584 
L 158.525217 307.584 
L 158.525217 303.598469 
L 144.409802 303.598469 
z
" style="fill:#ff7f0e;"/>
   </g>
   <g id="patch_183">
    <path clip-path="url(#p375715e3aa)" d="M 144.409802 307.584 
L 158.525217 307.584 
L 158.525217 303.594378 
L 144.409802 303.594378 
z
" style="fill:#ff7f0e;"/>
   </g>
   <g id="patch_184">
    <path clip-path="url(#p375715e3aa)" d="M 144.409802 307.584 
L 158.525217 307.584 
L 158.525217 303.599054 
L 144.409802 303.599054 
z
" style="fill:#ff7f0e;"/>
   </g>
   <g id="patch_185">
    <path clip-path="url(#p375715e3aa)" d="M 144.409802 307.584 
L 158.525217 307.584 
L 158.525217 303.595547 
L 144.409802 303.595547 
z
" style="fill:#ff7f0e;"/>
   </g>
   <g id="patch_186">
    <path clip-path="url(#p375715e3aa)" d="M 144.409802 307.584 
L 158.525217 307.584 
L 158.525217 303.602171 
L 144.409802 303.602171 
z
" style="fill:#ff7f0e;"/>
   </g>
   <g id="patch_187">
    <path clip-path="url(#p375715e3aa)" d="M 144.409802 307.584 
L 158.525217 307.584 
L 158.525217 303.611329 
L 144.409802 303.611329 
z
" style="fill:#ff7f0e;"/>
   </g>
   <g id="patch_188">
    <path clip-path="url(#p375715e3aa)" d="M 144.409802 307.584 
L 158.525217 307.584 
L 158.525217 306.523855 
L 144.409802 306.523855 
z
" style="fill:#ff7f0e;"/>
   </g>
   <g id="patch_189">
    <path clip-path="url(#p375715e3aa)" d="M 144.409802 307.584 
L 158.525217 307.584 
L 158.525217 306.519958 
L 144.409802 306.519958 
z
" style="fill:#ff7f0e;"/>
   </g>
   <g id="patch_190">
    <path clip-path="url(#p375715e3aa)" d="M 144.409802 307.584 
L 158.525217 307.584 
L 158.525217 306.522101 
L 144.409802 306.522101 
z
" style="fill:#ff7f0e;"/>
   </g>
   <g id="patch_191">
    <path clip-path="url(#p375715e3aa)" d="M 144.409802 307.584 
L 158.525217 307.584 
L 158.525217 306.523465 
L 144.409802 306.523465 
z
" style="fill:#ff7f0e;"/>
   </g>
   <g id="patch_192">
    <path clip-path="url(#p375715e3aa)" d="M 144.409802 307.584 
L 158.525217 307.584 
L 158.525217 306.526583 
L 144.409802 306.526583 
z
" style="fill:#ff7f0e;"/>
   </g>
   <g id="patch_193">
    <path clip-path="url(#p375715e3aa)" d="M 144.409802 307.584 
L 158.525217 307.584 
L 158.525217 306.524829 
L 144.409802 306.524829 
z
" style="fill:#ff7f0e;"/>
   </g>
   <g id="patch_194">
    <path clip-path="url(#p375715e3aa)" d="M 144.409802 307.584 
L 158.525217 307.584 
L 158.525217 306.525803 
L 144.409802 306.525803 
z
" style="fill:#ff7f0e;"/>
   </g>
   <g id="patch_195">
    <path clip-path="url(#p375715e3aa)" d="M 144.409802 307.584 
L 158.525217 307.584 
L 158.525217 306.52288 
L 144.409802 306.52288 
z
" style="fill:#ff7f0e;"/>
   </g>
   <g id="patch_196">
    <path clip-path="url(#p375715e3aa)" d="M 144.409802 307.584 
L 158.525217 307.584 
L 158.525217 306.520348 
L 144.409802 306.520348 
z
" style="fill:#ff7f0e;"/>
   </g>
   <g id="patch_197">
    <path clip-path="url(#p375715e3aa)" d="M 144.409802 307.584 
L 158.525217 307.584 
L 158.525217 306.523855 
L 144.409802 306.523855 
z
" style="fill:#ff7f0e;"/>
   </g>
   <g id="patch_198">
    <path clip-path="url(#p375715e3aa)" d="M 144.409802 307.584 
L 158.525217 307.584 
L 158.525217 306.525608 
L 144.409802 306.525608 
z
" style="fill:#ff7f0e;"/>
   </g>
   <g id="patch_199">
    <path clip-path="url(#p375715e3aa)" d="M 144.409802 307.584 
L 158.525217 307.584 
L 158.525217 306.527752 
L 144.409802 306.527752 
z
" style="fill:#ff7f0e;"/>
   </g>
   <g id="patch_200">
    <path clip-path="url(#p375715e3aa)" d="M 144.409802 307.584 
L 158.525217 307.584 
L 158.525217 306.526583 
L 144.409802 306.526583 
z
" style="fill:#ff7f0e;"/>
   </g>
   <g id="patch_201">
    <path clip-path="url(#p375715e3aa)" d="M 144.409802 307.584 
L 158.525217 307.584 
L 158.525217 306.524829 
L 144.409802 306.524829 
z
" style="fill:#ff7f0e;"/>
   </g>
   <g id="patch_202">
    <path clip-path="url(#p375715e3aa)" d="M 144.409802 307.584 
L 158.525217 307.584 
L 158.525217 306.527362 
L 144.409802 306.527362 
z
" style="fill:#ff7f0e;"/>
   </g>
   <g id="patch_203">
    <path clip-path="url(#p375715e3aa)" d="M 144.409802 307.584 
L 158.525217 307.584 
L 158.525217 306.521127 
L 144.409802 306.521127 
z
" style="fill:#ff7f0e;"/>
   </g>
   <g id="patch_204">
    <path clip-path="url(#p375715e3aa)" d="M 144.409802 307.584 
L 158.525217 307.584 
L 158.525217 306.520348 
L 144.409802 306.520348 
z
" style="fill:#ff7f0e;"/>
   </g>
   <g id="patch_205">
    <path clip-path="url(#p375715e3aa)" d="M 144.409802 307.584 
L 158.525217 307.584 
L 158.525217 306.521322 
L 144.409802 306.521322 
z
" style="fill:#ff7f0e;"/>
   </g>
   <g id="patch_206">
    <path clip-path="url(#p375715e3aa)" d="M 144.409802 307.584 
L 158.525217 307.584 
L 158.525217 306.528726 
L 144.409802 306.528726 
z
" style="fill:#ff7f0e;"/>
   </g>
   <g id="patch_207">
    <path clip-path="url(#p375715e3aa)" d="M 144.409802 307.584 
L 158.525217 307.584 
L 158.525217 306.519763 
L 144.409802 306.519763 
z
" style="fill:#ff7f0e;"/>
   </g>
   <g id="patch_208">
    <path clip-path="url(#p375715e3aa)" d="M 144.409802 307.584 
L 158.525217 307.584 
L 158.525217 306.52288 
L 144.409802 306.52288 
z
" style="fill:#ff7f0e;"/>
   </g>
   <g id="patch_209">
    <path clip-path="url(#p375715e3aa)" d="M 257.333123 307.584 
L 271.448538 307.584 
L 271.448538 305.459813 
L 257.333123 305.459813 
z
" style="fill:#ff7f0e;"/>
   </g>
   <g id="patch_210">
    <path clip-path="url(#p375715e3aa)" d="M 257.333123 307.584 
L 271.448538 307.584 
L 271.448538 305.457669 
L 257.333123 305.457669 
z
" style="fill:#ff7f0e;"/>
   </g>
   <g id="patch_211">
    <path clip-path="url(#p375715e3aa)" d="M 257.333123 307.584 
L 271.448538 307.584 
L 271.448538 305.461176 
L 257.333123 305.461176 
z
" style="fill:#ff7f0e;"/>
   </g>
   <g id="patch_212">
    <path clip-path="url(#p375715e3aa)" d="M 257.333123 307.584 
L 271.448538 307.584 
L 271.448538 305.460007 
L 257.333123 305.460007 
z
" style="fill:#ff7f0e;"/>
   </g>
   <g id="patch_213">
    <path clip-path="url(#p375715e3aa)" d="M 257.333123 307.584 
L 271.448538 307.584 
L 271.448538 305.466048 
L 257.333123 305.466048 
z
" style="fill:#ff7f0e;"/>
   </g>
   <g id="patch_214">
    <path clip-path="url(#p375715e3aa)" d="M 257.333123 307.584 
L 271.448538 307.584 
L 271.448538 305.460202 
L 257.333123 305.460202 
z
" style="fill:#ff7f0e;"/>
   </g>
   <g id="patch_215">
    <path clip-path="url(#p375715e3aa)" d="M 257.333123 307.584 
L 271.448538 307.584 
L 271.448538 305.461761 
L 257.333123 305.461761 
z
" style="fill:#ff7f0e;"/>
   </g>
   <g id="patch_216">
    <path clip-path="url(#p375715e3aa)" d="M 257.333123 307.584 
L 271.448538 307.584 
L 271.448538 305.461566 
L 257.333123 305.461566 
z
" style="fill:#ff7f0e;"/>
   </g>
   <g id="patch_217">
    <path clip-path="url(#p375715e3aa)" d="M 257.333123 307.584 
L 271.448538 307.584 
L 271.448538 305.464489 
L 257.333123 305.464489 
z
" style="fill:#ff7f0e;"/>
   </g>
   <g id="patch_218">
    <path clip-path="url(#p375715e3aa)" d="M 257.333123 307.584 
L 271.448538 307.584 
L 271.448538 305.45007 
L 257.333123 305.45007 
z
" style="fill:#ff7f0e;"/>
   </g>
   <g id="patch_219">
    <path clip-path="url(#p375715e3aa)" d="M 257.333123 307.584 
L 271.448538 307.584 
L 271.448538 305.460982 
L 257.333123 305.460982 
z
" style="fill:#ff7f0e;"/>
   </g>
   <g id="patch_220">
    <path clip-path="url(#p375715e3aa)" d="M 257.333123 307.584 
L 271.448538 307.584 
L 271.448538 305.465463 
L 257.333123 305.465463 
z
" style="fill:#ff7f0e;"/>
   </g>
   <g id="patch_221">
    <path clip-path="url(#p375715e3aa)" d="M 257.333123 307.584 
L 271.448538 307.584 
L 271.448538 305.455721 
L 257.333123 305.455721 
z
" style="fill:#ff7f0e;"/>
   </g>
   <g id="patch_222">
    <path clip-path="url(#p375715e3aa)" d="M 257.333123 307.584 
L 271.448538 307.584 
L 271.448538 305.467996 
L 257.333123 305.467996 
z
" style="fill:#ff7f0e;"/>
   </g>
   <g id="patch_223">
    <path clip-path="url(#p375715e3aa)" d="M 257.333123 307.584 
L 271.448538 307.584 
L 271.448538 305.460787 
L 257.333123 305.460787 
z
" style="fill:#ff7f0e;"/>
   </g>
   <g id="patch_224">
    <path clip-path="url(#p375715e3aa)" d="M 257.333123 307.584 
L 271.448538 307.584 
L 271.448538 305.460397 
L 257.333123 305.460397 
z
" style="fill:#ff7f0e;"/>
   </g>
   <g id="patch_225">
    <path clip-path="url(#p375715e3aa)" d="M 257.333123 307.584 
L 271.448538 307.584 
L 271.448538 305.460787 
L 257.333123 305.460787 
z
" style="fill:#ff7f0e;"/>
   </g>
   <g id="patch_226">
    <path clip-path="url(#p375715e3aa)" d="M 257.333123 307.584 
L 271.448538 307.584 
L 271.448538 305.458254 
L 257.333123 305.458254 
z
" style="fill:#ff7f0e;"/>
   </g>
   <g id="patch_227">
    <path clip-path="url(#p375715e3aa)" d="M 257.333123 307.584 
L 271.448538 307.584 
L 271.448538 305.461761 
L 257.333123 305.461761 
z
" style="fill:#ff7f0e;"/>
   </g>
   <g id="patch_228">
    <path clip-path="url(#p375715e3aa)" d="M 257.333123 307.584 
L 271.448538 307.584 
L 271.448538 305.465463 
L 257.333123 305.465463 
z
" style="fill:#ff7f0e;"/>
   </g>
   <g id="patch_229">
    <path clip-path="url(#p375715e3aa)" d="M 257.333123 307.584 
L 271.448538 307.584 
L 271.448538 305.473841 
L 257.333123 305.473841 
z
" style="fill:#ff7f0e;"/>
   </g>
   <g id="patch_230">
    <path clip-path="url(#p375715e3aa)" d="M 370.256443 307.584 
L 384.371858 307.584 
L 384.371858 304.397134 
L 370.256443 304.397134 
z
" style="fill:#ff7f0e;"/>
   </g>
   <g id="patch_231">
    <path clip-path="url(#p375715e3aa)" d="M 370.256443 307.584 
L 384.371858 307.584 
L 384.371858 304.392848 
L 370.256443 304.392848 
z
" style="fill:#ff7f0e;"/>
   </g>
   <g id="patch_232">
    <path clip-path="url(#p375715e3aa)" d="M 370.256443 307.584 
L 384.371858 307.584 
L 384.371858 304.397329 
L 370.256443 304.397329 
z
" style="fill:#ff7f0e;"/>
   </g>
   <g id="patch_233">
    <path clip-path="url(#p375715e3aa)" d="M 370.256443 307.584 
L 384.371858 307.584 
L 384.371858 304.391289 
L 370.256443 304.391289 
z
" style="fill:#ff7f0e;"/>
   </g>
   <g id="patch_234">
    <path clip-path="url(#p375715e3aa)" d="M 370.256443 307.584 
L 384.371858 307.584 
L 384.371858 304.394796 
L 370.256443 304.394796 
z
" style="fill:#ff7f0e;"/>
   </g>
   <g id="patch_235">
    <path clip-path="url(#p375715e3aa)" d="M 370.256443 307.584 
L 384.371858 307.584 
L 384.371858 304.398693 
L 370.256443 304.398693 
z
" style="fill:#ff7f0e;"/>
   </g>
   <g id="patch_236">
    <path clip-path="url(#p375715e3aa)" d="M 370.256443 307.584 
L 384.371858 307.584 
L 384.371858 304.404538 
L 370.256443 304.404538 
z
" style="fill:#ff7f0e;"/>
   </g>
   <g id="patch_237">
    <path clip-path="url(#p375715e3aa)" d="M 370.256443 307.584 
L 384.371858 307.584 
L 384.371858 304.394017 
L 370.256443 304.394017 
z
" style="fill:#ff7f0e;"/>
   </g>
   <g id="patch_238">
    <path clip-path="url(#p375715e3aa)" d="M 370.256443 307.584 
L 384.371858 307.584 
L 384.371858 304.40824 
L 370.256443 304.40824 
z
" style="fill:#ff7f0e;"/>
   </g>
   <g id="patch_239">
    <path clip-path="url(#p375715e3aa)" d="M 370.256443 307.584 
L 384.371858 307.584 
L 384.371858 304.403369 
L 370.256443 304.403369 
z
" style="fill:#ff7f0e;"/>
   </g>
   <g id="patch_240">
    <path clip-path="url(#p375715e3aa)" d="M 370.256443 307.584 
L 384.371858 307.584 
L 384.371858 304.409604 
L 370.256443 304.409604 
z
" style="fill:#ff7f0e;"/>
   </g>
   <g id="patch_241">
    <path clip-path="url(#p375715e3aa)" d="M 370.256443 307.584 
L 384.371858 307.584 
L 384.371858 304.402785 
L 370.256443 304.402785 
z
" style="fill:#ff7f0e;"/>
   </g>
   <g id="patch_242">
    <path clip-path="url(#p375715e3aa)" d="M 370.256443 307.584 
L 384.371858 307.584 
L 384.371858 304.397914 
L 370.256443 304.397914 
z
" style="fill:#ff7f0e;"/>
   </g>
   <g id="patch_243">
    <path clip-path="url(#p375715e3aa)" d="M 370.256443 307.584 
L 384.371858 307.584 
L 384.371858 304.400057 
L 370.256443 304.400057 
z
" style="fill:#ff7f0e;"/>
   </g>
   <g id="patch_244">
    <path clip-path="url(#p375715e3aa)" d="M 370.256443 307.584 
L 384.371858 307.584 
L 384.371858 304.407071 
L 370.256443 304.407071 
z
" style="fill:#ff7f0e;"/>
   </g>
   <g id="patch_245">
    <path clip-path="url(#p375715e3aa)" d="M 370.256443 307.584 
L 384.371858 307.584 
L 384.371858 304.400641 
L 370.256443 304.400641 
z
" style="fill:#ff7f0e;"/>
   </g>
   <g id="patch_246">
    <path clip-path="url(#p375715e3aa)" d="M 370.256443 307.584 
L 384.371858 307.584 
L 384.371858 304.398108 
L 370.256443 304.398108 
z
" style="fill:#ff7f0e;"/>
   </g>
   <g id="patch_247">
    <path clip-path="url(#p375715e3aa)" d="M 370.256443 307.584 
L 384.371858 307.584 
L 384.371858 304.418177 
L 370.256443 304.418177 
z
" style="fill:#ff7f0e;"/>
   </g>
   <g id="patch_248">
    <path clip-path="url(#p375715e3aa)" d="M 370.256443 307.584 
L 384.371858 307.584 
L 384.371858 304.400447 
L 370.256443 304.400447 
z
" style="fill:#ff7f0e;"/>
   </g>
   <g id="patch_249">
    <path clip-path="url(#p375715e3aa)" d="M 370.256443 307.584 
L 384.371858 307.584 
L 384.371858 304.403174 
L 370.256443 304.403174 
z
" style="fill:#ff7f0e;"/>
   </g>
   <g id="patch_250">
    <path clip-path="url(#p375715e3aa)" d="M 370.256443 307.584 
L 384.371858 307.584 
L 384.371858 304.400252 
L 370.256443 304.400252 
z
" style="fill:#ff7f0e;"/>
   </g>
   <g id="patch_251">
    <path clip-path="url(#p375715e3aa)" d="M 144.409802 307.584 
L 158.525217 307.584 
L 158.525217 303.850013 
L 144.409802 303.850013 
z
" style="fill:#ff7f0e;"/>
   </g>
   <g id="patch_252">
    <path clip-path="url(#p375715e3aa)" d="M 144.409802 307.584 
L 158.525217 307.584 
L 158.525217 303.851182 
L 144.409802 303.851182 
z
" style="fill:#ff7f0e;"/>
   </g>
   <g id="patch_253">
    <path clip-path="url(#p375715e3aa)" d="M 144.409802 307.584 
L 158.525217 307.584 
L 158.525217 303.612693 
L 144.409802 303.612693 
z
" style="fill:#ff7f0e;"/>
   </g>
   <g id="patch_254">
    <path clip-path="url(#p375715e3aa)" d="M 144.409802 307.584 
L 158.525217 307.584 
L 158.525217 303.617954 
L 144.409802 303.617954 
z
" style="fill:#ff7f0e;"/>
   </g>
   <g id="patch_255">
    <path clip-path="url(#p375715e3aa)" d="M 144.409802 307.584 
L 158.525217 307.584 
L 158.525217 303.614447 
L 144.409802 303.614447 
z
" style="fill:#ff7f0e;"/>
   </g>
   <g id="patch_256">
    <path clip-path="url(#p375715e3aa)" d="M 158.525217 307.584 
L 172.640632 307.584 
L 172.640632 304.350956 
L 158.525217 304.350956 
z
" style="fill:#2ca02c;"/>
   </g>
   <g id="patch_257">
    <path clip-path="url(#p375715e3aa)" d="M 102.063557 307.584 
L 116.178972 307.584 
L 116.178972 306.864831 
L 102.063557 306.864831 
z
" style="fill:#2ca02c;"/>
   </g>
   <g id="patch_258">
    <path clip-path="url(#p375715e3aa)" d="M 102.063557 307.584 
L 116.178972 307.584 
L 116.178972 306.873405 
L 102.063557 306.873405 
z
" style="fill:#2ca02c;"/>
   </g>
   <g id="patch_259">
    <path clip-path="url(#p375715e3aa)" d="M 102.063557 307.584 
L 116.178972 307.584 
L 116.178972 306.870482 
L 102.063557 306.870482 
z
" style="fill:#2ca02c;"/>
   </g>
   <g id="patch_260">
    <path clip-path="url(#p375715e3aa)" d="M 102.063557 307.584 
L 116.178972 307.584 
L 116.178972 306.869703 
L 102.063557 306.869703 
z
" style="fill:#2ca02c;"/>
   </g>
   <g id="patch_261">
    <path clip-path="url(#p375715e3aa)" d="M 102.063557 307.584 
L 116.178972 307.584 
L 116.178972 306.86678 
L 102.063557 306.86678 
z
" style="fill:#2ca02c;"/>
   </g>
   <g id="patch_262">
    <path clip-path="url(#p375715e3aa)" d="M 102.063557 307.584 
L 116.178972 307.584 
L 116.178972 306.862493 
L 102.063557 306.862493 
z
" style="fill:#2ca02c;"/>
   </g>
   <g id="patch_263">
    <path clip-path="url(#p375715e3aa)" d="M 102.063557 307.584 
L 116.178972 307.584 
L 116.178972 306.862104 
L 102.063557 306.862104 
z
" style="fill:#2ca02c;"/>
   </g>
   <g id="patch_264">
    <path clip-path="url(#p375715e3aa)" d="M 102.063557 307.584 
L 116.178972 307.584 
L 116.178972 306.863078 
L 102.063557 306.863078 
z
" style="fill:#2ca02c;"/>
   </g>
   <g id="patch_265">
    <path clip-path="url(#p375715e3aa)" d="M 102.063557 307.584 
L 116.178972 307.584 
L 116.178972 306.87886 
L 102.063557 306.87886 
z
" style="fill:#2ca02c;"/>
   </g>
   <g id="patch_266">
    <path clip-path="url(#p375715e3aa)" d="M 102.063557 307.584 
L 116.178972 307.584 
L 116.178972 306.874963 
L 102.063557 306.874963 
z
" style="fill:#2ca02c;"/>
   </g>
   <g id="patch_267">
    <path clip-path="url(#p375715e3aa)" d="M 102.063557 307.584 
L 116.178972 307.584 
L 116.178972 306.865611 
L 102.063557 306.865611 
z
" style="fill:#2ca02c;"/>
   </g>
   <g id="patch_268">
    <path clip-path="url(#p375715e3aa)" d="M 102.063557 307.584 
L 116.178972 307.584 
L 116.178972 306.863662 
L 102.063557 306.863662 
z
" style="fill:#2ca02c;"/>
   </g>
   <g id="patch_269">
    <path clip-path="url(#p375715e3aa)" d="M 102.063557 307.584 
L 116.178972 307.584 
L 116.178972 306.880809 
L 102.063557 306.880809 
z
" style="fill:#2ca02c;"/>
   </g>
   <g id="patch_270">
    <path clip-path="url(#p375715e3aa)" d="M 102.063557 307.584 
L 116.178972 307.584 
L 116.178972 306.868339 
L 102.063557 306.868339 
z
" style="fill:#2ca02c;"/>
   </g>
   <g id="patch_271">
    <path clip-path="url(#p375715e3aa)" d="M 102.063557 307.584 
L 116.178972 307.584 
L 116.178972 306.866195 
L 102.063557 306.866195 
z
" style="fill:#2ca02c;"/>
   </g>
   <g id="patch_272">
    <path clip-path="url(#p375715e3aa)" d="M 102.063557 307.584 
L 116.178972 307.584 
L 116.178972 306.862883 
L 102.063557 306.862883 
z
" style="fill:#2ca02c;"/>
   </g>
   <g id="patch_273">
    <path clip-path="url(#p375715e3aa)" d="M 102.063557 307.584 
L 116.178972 307.584 
L 116.178972 306.873015 
L 102.063557 306.873015 
z
" style="fill:#2ca02c;"/>
   </g>
   <g id="patch_274">
    <path clip-path="url(#p375715e3aa)" d="M 102.063557 307.584 
L 116.178972 307.584 
L 116.178972 306.865806 
L 102.063557 306.865806 
z
" style="fill:#2ca02c;"/>
   </g>
   <g id="patch_275">
    <path clip-path="url(#p375715e3aa)" d="M 102.063557 307.584 
L 116.178972 307.584 
L 116.178972 306.878276 
L 102.063557 306.878276 
z
" style="fill:#2ca02c;"/>
   </g>
   <g id="patch_276">
    <path clip-path="url(#p375715e3aa)" d="M 102.063557 307.584 
L 116.178972 307.584 
L 116.178972 306.865221 
L 102.063557 306.865221 
z
" style="fill:#2ca02c;"/>
   </g>
   <g id="patch_277">
    <path clip-path="url(#p375715e3aa)" d="M 102.063557 307.584 
L 116.178972 307.584 
L 116.178972 306.878665 
L 102.063557 306.878665 
z
" style="fill:#2ca02c;"/>
   </g>
   <g id="patch_278">
    <path clip-path="url(#p375715e3aa)" d="M 102.063557 307.584 
L 116.178972 307.584 
L 116.178972 306.890161 
L 102.063557 306.890161 
z
" style="fill:#2ca02c;"/>
   </g>
   <g id="patch_279">
    <path clip-path="url(#p375715e3aa)" d="M 102.063557 307.584 
L 116.178972 307.584 
L 116.178972 306.874574 
L 102.063557 306.874574 
z
" style="fill:#2ca02c;"/>
   </g>
   <g id="patch_280">
    <path clip-path="url(#p375715e3aa)" d="M 102.063557 307.584 
L 116.178972 307.584 
L 116.178972 306.876717 
L 102.063557 306.876717 
z
" style="fill:#2ca02c;"/>
   </g>
   <g id="patch_281">
    <path clip-path="url(#p375715e3aa)" d="M 102.063557 307.584 
L 116.178972 307.584 
L 116.178972 306.864052 
L 102.063557 306.864052 
z
" style="fill:#2ca02c;"/>
   </g>
   <g id="patch_282">
    <path clip-path="url(#p375715e3aa)" d="M 102.063557 307.584 
L 116.178972 307.584 
L 116.178972 306.870482 
L 102.063557 306.870482 
z
" style="fill:#2ca02c;"/>
   </g>
   <g id="patch_283">
    <path clip-path="url(#p375715e3aa)" d="M 102.063557 307.584 
L 116.178972 307.584 
L 116.178972 306.863662 
L 102.063557 306.863662 
z
" style="fill:#2ca02c;"/>
   </g>
   <g id="patch_284">
    <path clip-path="url(#p375715e3aa)" d="M 102.063557 307.584 
L 116.178972 307.584 
L 116.178972 306.869118 
L 102.063557 306.869118 
z
" style="fill:#2ca02c;"/>
   </g>
   <g id="patch_285">
    <path clip-path="url(#p375715e3aa)" d="M 102.063557 307.584 
L 116.178972 307.584 
L 116.178972 306.874574 
L 102.063557 306.874574 
z
" style="fill:#2ca02c;"/>
   </g>
   <g id="patch_286">
    <path clip-path="url(#p375715e3aa)" d="M 102.063557 307.584 
L 116.178972 307.584 
L 116.178972 306.867559 
L 102.063557 306.867559 
z
" style="fill:#2ca02c;"/>
   </g>
   <g id="patch_287">
    <path clip-path="url(#p375715e3aa)" d="M 102.063557 307.584 
L 116.178972 307.584 
L 116.178972 306.871651 
L 102.063557 306.871651 
z
" style="fill:#2ca02c;"/>
   </g>
   <g id="patch_288">
    <path clip-path="url(#p375715e3aa)" d="M 102.063557 307.584 
L 116.178972 307.584 
L 116.178972 306.870872 
L 102.063557 306.870872 
z
" style="fill:#2ca02c;"/>
   </g>
   <g id="patch_289">
    <path clip-path="url(#p375715e3aa)" d="M 102.063557 307.584 
L 116.178972 307.584 
L 116.178972 306.863078 
L 102.063557 306.863078 
z
" style="fill:#2ca02c;"/>
   </g>
   <g id="patch_290">
    <path clip-path="url(#p375715e3aa)" d="M 102.063557 307.584 
L 116.178972 307.584 
L 116.178972 306.863078 
L 102.063557 306.863078 
z
" style="fill:#2ca02c;"/>
   </g>
   <g id="patch_291">
    <path clip-path="url(#p375715e3aa)" d="M 102.063557 307.584 
L 116.178972 307.584 
L 116.178972 306.867364 
L 102.063557 306.867364 
z
" style="fill:#2ca02c;"/>
   </g>
   <g id="patch_292">
    <path clip-path="url(#p375715e3aa)" d="M 102.063557 307.584 
L 116.178972 307.584 
L 116.178972 306.880224 
L 102.063557 306.880224 
z
" style="fill:#2ca02c;"/>
   </g>
   <g id="patch_293">
    <path clip-path="url(#p375715e3aa)" d="M 102.063557 307.584 
L 116.178972 307.584 
L 116.178972 306.876717 
L 102.063557 306.876717 
z
" style="fill:#2ca02c;"/>
   </g>
   <g id="patch_294">
    <path clip-path="url(#p375715e3aa)" d="M 102.063557 307.584 
L 116.178972 307.584 
L 116.178972 306.865221 
L 102.063557 306.865221 
z
" style="fill:#2ca02c;"/>
   </g>
   <g id="patch_295">
    <path clip-path="url(#p375715e3aa)" d="M 102.063557 307.584 
L 116.178972 307.584 
L 116.178972 306.872235 
L 102.063557 306.872235 
z
" style="fill:#2ca02c;"/>
   </g>
   <g id="patch_296">
    <path clip-path="url(#p375715e3aa)" d="M 102.063557 307.584 
L 116.178972 307.584 
L 116.178972 306.87243 
L 102.063557 306.87243 
z
" style="fill:#2ca02c;"/>
   </g>
   <g id="patch_297">
    <path clip-path="url(#p375715e3aa)" d="M 158.525217 307.584 
L 172.640632 307.584 
L 172.640632 304.327965 
L 158.525217 304.327965 
z
" style="fill:#2ca02c;"/>
   </g>
   <g id="patch_298">
    <path clip-path="url(#p375715e3aa)" d="M 158.525217 307.584 
L 172.640632 307.584 
L 172.640632 304.336538 
L 158.525217 304.336538 
z
" style="fill:#2ca02c;"/>
   </g>
   <g id="patch_299">
    <path clip-path="url(#p375715e3aa)" d="M 158.525217 307.584 
L 172.640632 307.584 
L 172.640632 304.334979 
L 158.525217 304.334979 
z
" style="fill:#2ca02c;"/>
   </g>
   <g id="patch_300">
    <path clip-path="url(#p375715e3aa)" d="M 158.525217 307.584 
L 172.640632 307.584 
L 172.640632 304.323678 
L 158.525217 304.323678 
z
" style="fill:#2ca02c;"/>
   </g>
   <g id="patch_301">
    <path clip-path="url(#p375715e3aa)" d="M 158.525217 307.584 
L 172.640632 307.584 
L 172.640632 304.331277 
L 158.525217 304.331277 
z
" style="fill:#2ca02c;"/>
   </g>
   <g id="patch_302">
    <path clip-path="url(#p375715e3aa)" d="M 158.525217 307.584 
L 172.640632 307.584 
L 172.640632 304.332641 
L 158.525217 304.332641 
z
" style="fill:#2ca02c;"/>
   </g>
   <g id="patch_303">
    <path clip-path="url(#p375715e3aa)" d="M 158.525217 307.584 
L 172.640632 307.584 
L 172.640632 304.324847 
L 158.525217 304.324847 
z
" style="fill:#2ca02c;"/>
   </g>
   <g id="patch_304">
    <path clip-path="url(#p375715e3aa)" d="M 158.525217 307.584 
L 172.640632 307.584 
L 172.640632 304.331472 
L 158.525217 304.331472 
z
" style="fill:#2ca02c;"/>
   </g>
   <g id="patch_305">
    <path clip-path="url(#p375715e3aa)" d="M 158.525217 307.584 
L 172.640632 307.584 
L 172.640632 304.341409 
L 158.525217 304.341409 
z
" style="fill:#2ca02c;"/>
   </g>
   <g id="patch_306">
    <path clip-path="url(#p375715e3aa)" d="M 158.525217 307.584 
L 172.640632 307.584 
L 172.640632 304.33946 
L 158.525217 304.33946 
z
" style="fill:#2ca02c;"/>
   </g>
   <g id="patch_307">
    <path clip-path="url(#p375715e3aa)" d="M 158.525217 307.584 
L 172.640632 307.584 
L 172.640632 304.338876 
L 158.525217 304.338876 
z
" style="fill:#2ca02c;"/>
   </g>
   <g id="patch_308">
    <path clip-path="url(#p375715e3aa)" d="M 158.525217 307.584 
L 172.640632 307.584 
L 172.640632 304.326016 
L 158.525217 304.326016 
z
" style="fill:#2ca02c;"/>
   </g>
   <g id="patch_309">
    <path clip-path="url(#p375715e3aa)" d="M 158.525217 307.584 
L 172.640632 307.584 
L 172.640632 304.323873 
L 158.525217 304.323873 
z
" style="fill:#2ca02c;"/>
   </g>
   <g id="patch_310">
    <path clip-path="url(#p375715e3aa)" d="M 158.525217 307.584 
L 172.640632 307.584 
L 172.640632 304.330303 
L 158.525217 304.330303 
z
" style="fill:#2ca02c;"/>
   </g>
   <g id="patch_311">
    <path clip-path="url(#p375715e3aa)" d="M 214.986877 307.584 
L 229.102292 307.584 
L 229.102292 54.144 
L 214.986877 54.144 
z
" style="fill:#2ca02c;"/>
   </g>
   <g id="patch_312">
    <path clip-path="url(#p375715e3aa)" d="M 158.525217 307.584 
L 172.640632 307.584 
L 172.640632 306.543729 
L 158.525217 306.543729 
z
" style="fill:#2ca02c;"/>
   </g>
   <g id="patch_313">
    <path clip-path="url(#p375715e3aa)" d="M 158.525217 307.584 
L 172.640632 307.584 
L 172.640632 306.527167 
L 158.525217 306.527167 
z
" style="fill:#2ca02c;"/>
   </g>
   <g id="patch_314">
    <path clip-path="url(#p375715e3aa)" d="M 158.525217 307.584 
L 172.640632 307.584 
L 172.640632 306.525413 
L 158.525217 306.525413 
z
" style="fill:#2ca02c;"/>
   </g>
   <g id="patch_315">
    <path clip-path="url(#p375715e3aa)" d="M 158.525217 307.584 
L 172.640632 307.584 
L 172.640632 306.521906 
L 158.525217 306.521906 
z
" style="fill:#2ca02c;"/>
   </g>
   <g id="patch_316">
    <path clip-path="url(#p375715e3aa)" d="M 158.525217 307.584 
L 172.640632 307.584 
L 172.640632 306.527362 
L 158.525217 306.527362 
z
" style="fill:#2ca02c;"/>
   </g>
   <g id="patch_317">
    <path clip-path="url(#p375715e3aa)" d="M 158.525217 307.584 
L 172.640632 307.584 
L 172.640632 306.522491 
L 158.525217 306.522491 
z
" style="fill:#2ca02c;"/>
   </g>
   <g id="patch_318">
    <path clip-path="url(#p375715e3aa)" d="M 158.525217 307.584 
L 172.640632 307.584 
L 172.640632 306.519763 
L 158.525217 306.519763 
z
" style="fill:#2ca02c;"/>
   </g>
   <g id="patch_319">
    <path clip-path="url(#p375715e3aa)" d="M 158.525217 307.584 
L 172.640632 307.584 
L 172.640632 306.52288 
L 158.525217 306.52288 
z
" style="fill:#2ca02c;"/>
   </g>
   <g id="patch_320">
    <path clip-path="url(#p375715e3aa)" d="M 158.525217 307.584 
L 172.640632 307.584 
L 172.640632 306.524634 
L 158.525217 306.524634 
z
" style="fill:#2ca02c;"/>
   </g>
   <g id="patch_321">
    <path clip-path="url(#p375715e3aa)" d="M 158.525217 307.584 
L 172.640632 307.584 
L 172.640632 306.525024 
L 158.525217 306.525024 
z
" style="fill:#2ca02c;"/>
   </g>
   <g id="patch_322">
    <path clip-path="url(#p375715e3aa)" d="M 158.525217 307.584 
L 172.640632 307.584 
L 172.640632 306.524244 
L 158.525217 306.524244 
z
" style="fill:#2ca02c;"/>
   </g>
   <g id="patch_323">
    <path clip-path="url(#p375715e3aa)" d="M 158.525217 307.584 
L 172.640632 307.584 
L 172.640632 306.516256 
L 158.525217 306.516256 
z
" style="fill:#2ca02c;"/>
   </g>
   <g id="patch_324">
    <path clip-path="url(#p375715e3aa)" d="M 158.525217 307.584 
L 172.640632 307.584 
L 172.640632 306.525219 
L 158.525217 306.525219 
z
" style="fill:#2ca02c;"/>
   </g>
   <g id="patch_325">
    <path clip-path="url(#p375715e3aa)" d="M 158.525217 307.584 
L 172.640632 307.584 
L 172.640632 306.520542 
L 158.525217 306.520542 
z
" style="fill:#2ca02c;"/>
   </g>
   <g id="patch_326">
    <path clip-path="url(#p375715e3aa)" d="M 158.525217 307.584 
L 172.640632 307.584 
L 172.640632 306.51684 
L 158.525217 306.51684 
z
" style="fill:#2ca02c;"/>
   </g>
   <g id="patch_327">
    <path clip-path="url(#p375715e3aa)" d="M 158.525217 307.584 
L 172.640632 307.584 
L 172.640632 306.525998 
L 158.525217 306.525998 
z
" style="fill:#2ca02c;"/>
   </g>
   <g id="patch_328">
    <path clip-path="url(#p375715e3aa)" d="M 158.525217 307.584 
L 172.640632 307.584 
L 172.640632 306.522101 
L 158.525217 306.522101 
z
" style="fill:#2ca02c;"/>
   </g>
   <g id="patch_329">
    <path clip-path="url(#p375715e3aa)" d="M 158.525217 307.584 
L 172.640632 307.584 
L 172.640632 306.524634 
L 158.525217 306.524634 
z
" style="fill:#2ca02c;"/>
   </g>
   <g id="patch_330">
    <path clip-path="url(#p375715e3aa)" d="M 158.525217 307.584 
L 172.640632 307.584 
L 172.640632 306.517815 
L 158.525217 306.517815 
z
" style="fill:#2ca02c;"/>
   </g>
   <g id="patch_331">
    <path clip-path="url(#p375715e3aa)" d="M 158.525217 307.584 
L 172.640632 307.584 
L 172.640632 306.518789 
L 158.525217 306.518789 
z
" style="fill:#2ca02c;"/>
   </g>
   <g id="patch_332">
    <path clip-path="url(#p375715e3aa)" d="M 158.525217 307.584 
L 172.640632 307.584 
L 172.640632 306.518399 
L 158.525217 306.518399 
z
" style="fill:#2ca02c;"/>
   </g>
   <g id="patch_333">
    <path clip-path="url(#p375715e3aa)" d="M 271.448538 307.584 
L 285.563953 307.584 
L 285.563953 305.463125 
L 271.448538 305.463125 
z
" style="fill:#2ca02c;"/>
   </g>
   <g id="patch_334">
    <path clip-path="url(#p375715e3aa)" d="M 271.448538 307.584 
L 285.563953 307.584 
L 285.563953 305.46332 
L 271.448538 305.46332 
z
" style="fill:#2ca02c;"/>
   </g>
   <g id="patch_335">
    <path clip-path="url(#p375715e3aa)" d="M 271.448538 307.584 
L 285.563953 307.584 
L 285.563953 305.460202 
L 271.448538 305.460202 
z
" style="fill:#2ca02c;"/>
   </g>
   <g id="patch_336">
    <path clip-path="url(#p375715e3aa)" d="M 271.448538 307.584 
L 285.563953 307.584 
L 285.563953 305.463125 
L 271.448538 305.463125 
z
" style="fill:#2ca02c;"/>
   </g>
   <g id="patch_337">
    <path clip-path="url(#p375715e3aa)" d="M 271.448538 307.584 
L 285.563953 307.584 
L 285.563953 305.462345 
L 271.448538 305.462345 
z
" style="fill:#2ca02c;"/>
   </g>
   <g id="patch_338">
    <path clip-path="url(#p375715e3aa)" d="M 271.448538 307.584 
L 285.563953 307.584 
L 285.563953 305.46254 
L 271.448538 305.46254 
z
" style="fill:#2ca02c;"/>
   </g>
   <g id="patch_339">
    <path clip-path="url(#p375715e3aa)" d="M 271.448538 307.584 
L 285.563953 307.584 
L 285.563953 305.460397 
L 271.448538 305.460397 
z
" style="fill:#2ca02c;"/>
   </g>
   <g id="patch_340">
    <path clip-path="url(#p375715e3aa)" d="M 271.448538 307.584 
L 285.563953 307.584 
L 285.563953 305.4754 
L 271.448538 305.4754 
z
" style="fill:#2ca02c;"/>
   </g>
   <g id="patch_341">
    <path clip-path="url(#p375715e3aa)" d="M 271.448538 307.584 
L 285.563953 307.584 
L 285.563953 305.463515 
L 271.448538 305.463515 
z
" style="fill:#2ca02c;"/>
   </g>
   <g id="patch_342">
    <path clip-path="url(#p375715e3aa)" d="M 271.448538 307.584 
L 285.563953 307.584 
L 285.563953 305.459228 
L 271.448538 305.459228 
z
" style="fill:#2ca02c;"/>
   </g>
   <g id="patch_343">
    <path clip-path="url(#p375715e3aa)" d="M 271.448538 307.584 
L 285.563953 307.584 
L 285.563953 305.460202 
L 271.448538 305.460202 
z
" style="fill:#2ca02c;"/>
   </g>
   <g id="patch_344">
    <path clip-path="url(#p375715e3aa)" d="M 271.448538 307.584 
L 285.563953 307.584 
L 285.563953 305.471308 
L 271.448538 305.471308 
z
" style="fill:#2ca02c;"/>
   </g>
   <g id="patch_345">
    <path clip-path="url(#p375715e3aa)" d="M 271.448538 307.584 
L 285.563953 307.584 
L 285.563953 305.460202 
L 271.448538 305.460202 
z
" style="fill:#2ca02c;"/>
   </g>
   <g id="patch_346">
    <path clip-path="url(#p375715e3aa)" d="M 271.448538 307.584 
L 285.563953 307.584 
L 285.563953 305.465463 
L 271.448538 305.465463 
z
" style="fill:#2ca02c;"/>
   </g>
   <g id="patch_347">
    <path clip-path="url(#p375715e3aa)" d="M 271.448538 307.584 
L 285.563953 307.584 
L 285.563953 305.464099 
L 271.448538 305.464099 
z
" style="fill:#2ca02c;"/>
   </g>
   <g id="patch_348">
    <path clip-path="url(#p375715e3aa)" d="M 271.448538 307.584 
L 285.563953 307.584 
L 285.563953 305.461371 
L 271.448538 305.461371 
z
" style="fill:#2ca02c;"/>
   </g>
   <g id="patch_349">
    <path clip-path="url(#p375715e3aa)" d="M 271.448538 307.584 
L 285.563953 307.584 
L 285.563953 305.467022 
L 271.448538 305.467022 
z
" style="fill:#2ca02c;"/>
   </g>
   <g id="patch_350">
    <path clip-path="url(#p375715e3aa)" d="M 271.448538 307.584 
L 285.563953 307.584 
L 285.563953 305.465658 
L 271.448538 305.465658 
z
" style="fill:#2ca02c;"/>
   </g>
   <g id="patch_351">
    <path clip-path="url(#p375715e3aa)" d="M 271.448538 307.584 
L 285.563953 307.584 
L 285.563953 305.459618 
L 271.448538 305.459618 
z
" style="fill:#2ca02c;"/>
   </g>
   <g id="patch_352">
    <path clip-path="url(#p375715e3aa)" d="M 271.448538 307.584 
L 285.563953 307.584 
L 285.563953 305.46897 
L 271.448538 305.46897 
z
" style="fill:#2ca02c;"/>
   </g>
   <g id="patch_353">
    <path clip-path="url(#p375715e3aa)" d="M 271.448538 307.584 
L 285.563953 307.584 
L 285.563953 305.465268 
L 271.448538 305.465268 
z
" style="fill:#2ca02c;"/>
   </g>
   <g id="patch_354">
    <path clip-path="url(#p375715e3aa)" d="M 384.371858 307.584 
L 398.487273 307.584 
L 398.487273 304.404538 
L 384.371858 304.404538 
z
" style="fill:#2ca02c;"/>
   </g>
   <g id="patch_355">
    <path clip-path="url(#p375715e3aa)" d="M 384.371858 307.584 
L 398.487273 307.584 
L 398.487273 304.396745 
L 384.371858 304.396745 
z
" style="fill:#2ca02c;"/>
   </g>
   <g id="patch_356">
    <path clip-path="url(#p375715e3aa)" d="M 384.371858 307.584 
L 398.487273 307.584 
L 398.487273 304.396355 
L 384.371858 304.396355 
z
" style="fill:#2ca02c;"/>
   </g>
   <g id="patch_357">
    <path clip-path="url(#p375715e3aa)" d="M 384.371858 307.584 
L 398.487273 307.584 
L 398.487273 304.411748 
L 384.371858 304.411748 
z
" style="fill:#2ca02c;"/>
   </g>
   <g id="patch_358">
    <path clip-path="url(#p375715e3aa)" d="M 384.371858 307.584 
L 398.487273 307.584 
L 398.487273 304.39577 
L 384.371858 304.39577 
z
" style="fill:#2ca02c;"/>
   </g>
   <g id="patch_359">
    <path clip-path="url(#p375715e3aa)" d="M 384.371858 307.584 
L 398.487273 307.584 
L 398.487273 304.391679 
L 384.371858 304.391679 
z
" style="fill:#2ca02c;"/>
   </g>
   <g id="patch_360">
    <path clip-path="url(#p375715e3aa)" d="M 384.371858 307.584 
L 398.487273 307.584 
L 398.487273 304.390704 
L 384.371858 304.390704 
z
" style="fill:#2ca02c;"/>
   </g>
   <g id="patch_361">
    <path clip-path="url(#p375715e3aa)" d="M 384.371858 307.584 
L 398.487273 307.584 
L 398.487273 304.398693 
L 384.371858 304.398693 
z
" style="fill:#2ca02c;"/>
   </g>
   <g id="patch_362">
    <path clip-path="url(#p375715e3aa)" d="M 384.371858 307.584 
L 398.487273 307.584 
L 398.487273 304.396939 
L 384.371858 304.396939 
z
" style="fill:#2ca02c;"/>
   </g>
   <g id="patch_363">
    <path clip-path="url(#p375715e3aa)" d="M 384.371858 307.584 
L 398.487273 307.584 
L 398.487273 304.394601 
L 384.371858 304.394601 
z
" style="fill:#2ca02c;"/>
   </g>
   <g id="patch_364">
    <path clip-path="url(#p375715e3aa)" d="M 384.371858 307.584 
L 398.487273 307.584 
L 398.487273 304.404928 
L 384.371858 304.404928 
z
" style="fill:#2ca02c;"/>
   </g>
   <g id="patch_365">
    <path clip-path="url(#p375715e3aa)" d="M 384.371858 307.584 
L 398.487273 307.584 
L 398.487273 304.400641 
L 384.371858 304.400641 
z
" style="fill:#2ca02c;"/>
   </g>
   <g id="patch_366">
    <path clip-path="url(#p375715e3aa)" d="M 384.371858 307.584 
L 398.487273 307.584 
L 398.487273 304.400447 
L 384.371858 304.400447 
z
" style="fill:#2ca02c;"/>
   </g>
   <g id="patch_367">
    <path clip-path="url(#p375715e3aa)" d="M 384.371858 307.584 
L 398.487273 307.584 
L 398.487273 304.407266 
L 384.371858 304.407266 
z
" style="fill:#2ca02c;"/>
   </g>
   <g id="patch_368">
    <path clip-path="url(#p375715e3aa)" d="M 384.371858 307.584 
L 398.487273 307.584 
L 398.487273 304.412332 
L 384.371858 304.412332 
z
" style="fill:#2ca02c;"/>
   </g>
   <g id="patch_369">
    <path clip-path="url(#p375715e3aa)" d="M 384.371858 307.584 
L 398.487273 307.584 
L 398.487273 304.388951 
L 384.371858 304.388951 
z
" style="fill:#2ca02c;"/>
   </g>
   <g id="patch_370">
    <path clip-path="url(#p375715e3aa)" d="M 384.371858 307.584 
L 398.487273 307.584 
L 398.487273 304.394796 
L 384.371858 304.394796 
z
" style="fill:#2ca02c;"/>
   </g>
   <g id="patch_371">
    <path clip-path="url(#p375715e3aa)" d="M 384.371858 307.584 
L 398.487273 307.584 
L 398.487273 304.398498 
L 384.371858 304.398498 
z
" style="fill:#2ca02c;"/>
   </g>
   <g id="patch_372">
    <path clip-path="url(#p375715e3aa)" d="M 384.371858 307.584 
L 398.487273 307.584 
L 398.487273 304.393627 
L 384.371858 304.393627 
z
" style="fill:#2ca02c;"/>
   </g>
   <g id="patch_373">
    <path clip-path="url(#p375715e3aa)" d="M 384.371858 307.584 
L 398.487273 307.584 
L 398.487273 304.399083 
L 384.371858 304.399083 
z
" style="fill:#2ca02c;"/>
   </g>
   <g id="patch_374">
    <path clip-path="url(#p375715e3aa)" d="M 384.371858 307.584 
L 398.487273 307.584 
L 398.487273 304.405707 
L 384.371858 304.405707 
z
" style="fill:#2ca02c;"/>
   </g>
   <g id="patch_375">
    <path clip-path="url(#p375715e3aa)" d="M 158.525217 307.584 
L 172.640632 307.584 
L 172.640632 304.587886 
L 158.525217 304.587886 
z
" style="fill:#2ca02c;"/>
   </g>
   <g id="patch_376">
    <path clip-path="url(#p375715e3aa)" d="M 158.525217 307.584 
L 172.640632 307.584 
L 172.640632 304.590419 
L 158.525217 304.590419 
z
" style="fill:#2ca02c;"/>
   </g>
   <g id="patch_377">
    <path clip-path="url(#p375715e3aa)" d="M 158.525217 307.584 
L 172.640632 307.584 
L 172.640632 304.586133 
L 158.525217 304.586133 
z
" style="fill:#2ca02c;"/>
   </g>
   <g id="patch_378">
    <path clip-path="url(#p375715e3aa)" d="M 158.525217 307.584 
L 172.640632 307.584 
L 172.640632 304.591004 
L 158.525217 304.591004 
z
" style="fill:#2ca02c;"/>
   </g>
   <g id="patch_379">
    <path clip-path="url(#p375715e3aa)" d="M 271.448538 307.584 
L 285.563953 307.584 
L 285.563953 301.643406 
L 271.448538 301.643406 
z
" style="fill:#2ca02c;"/>
   </g>
   <g id="patch_380">
    <path clip-path="url(#p375715e3aa)" d="M 271.448538 307.584 
L 285.563953 307.584 
L 285.563953 301.622363 
L 271.448538 301.622363 
z
" style="fill:#2ca02c;"/>
   </g>
   <g id="patch_381">
    <path clip-path="url(#p375715e3aa)" d="M 158.525217 307.584 
L 172.640632 307.584 
L 172.640632 304.361868 
L 158.525217 304.361868 
z
" style="fill:#2ca02c;"/>
   </g>
   <g id="patch_382">
    <path clip-path="url(#p375715e3aa)" d="M 158.525217 307.584 
L 172.640632 307.584 
L 172.640632 304.599772 
L 158.525217 304.599772 
z
" style="fill:#2ca02c;"/>
   </g>
   <g id="patch_383">
    <path clip-path="url(#p375715e3aa)" d="M 271.448538 307.584 
L 285.563953 307.584 
L 285.563953 301.615349 
L 271.448538 301.615349 
z
" style="fill:#2ca02c;"/>
   </g>
   <g id="patch_384">
    <path clip-path="url(#p375715e3aa)" d="M 384.371858 307.584 
L 398.487273 307.584 
L 398.487273 298.585917 
L 384.371858 298.585917 
z
" style="fill:#2ca02c;"/>
   </g>
   <g id="patch_385">
    <path clip-path="url(#p375715e3aa)" d="M 158.525217 307.584 
L 172.640632 307.584 
L 172.640632 304.590809 
L 158.525217 304.590809 
z
" style="fill:#2ca02c;"/>
   </g>
   <g id="patch_386">
    <path clip-path="url(#p375715e3aa)" d="M 271.448538 307.584 
L 285.563953 307.584 
L 285.563953 301.61418 
L 271.448538 301.61418 
z
" style="fill:#2ca02c;"/>
   </g>
   <g id="patch_387">
    <path clip-path="url(#p375715e3aa)" d="M 384.371858 307.584 
L 398.487273 307.584 
L 398.487273 298.5941 
L 384.371858 298.5941 
z
" style="fill:#2ca02c;"/>
   </g>
   <g id="patch_388">
    <path clip-path="url(#p375715e3aa)" d="M 158.525217 307.584 
L 172.640632 307.584 
L 172.640632 304.345695 
L 158.525217 304.345695 
z
" style="fill:#2ca02c;"/>
   </g>
   <g id="patch_389">
    <path clip-path="url(#p375715e3aa)" d="M 158.525217 307.584 
L 172.640632 307.584 
L 172.640632 304.60815 
L 158.525217 304.60815 
z
" style="fill:#2ca02c;"/>
   </g>
   <g id="patch_390">
    <path clip-path="url(#p375715e3aa)" d="M 158.525217 307.584 
L 172.640632 307.584 
L 172.640632 304.610488 
L 158.525217 304.610488 
z
" style="fill:#2ca02c;"/>
   </g>
   <g id="patch_391">
    <path clip-path="url(#p375715e3aa)" d="M 158.525217 307.584 
L 172.640632 307.584 
L 172.640632 304.604058 
L 158.525217 304.604058 
z
" style="fill:#2ca02c;"/>
   </g>
   <g id="patch_392">
    <path clip-path="url(#p375715e3aa)" d="M 158.525217 307.584 
L 172.640632 307.584 
L 172.640632 304.606981 
L 158.525217 304.606981 
z
" style="fill:#2ca02c;"/>
   </g>
   <g id="patch_393">
    <path clip-path="url(#p375715e3aa)" d="M 158.525217 307.584 
L 172.640632 307.584 
L 172.640632 304.603864 
L 158.525217 304.603864 
z
" style="fill:#2ca02c;"/>
   </g>
   <g id="patch_394">
    <path clip-path="url(#p375715e3aa)" d="M 271.448538 307.584 
L 285.563953 307.584 
L 285.563953 301.661137 
L 271.448538 301.661137 
z
" style="fill:#2ca02c;"/>
   </g>
   <g id="patch_395">
    <path clip-path="url(#p375715e3aa)" d="M 271.448538 307.584 
L 285.563953 307.584 
L 285.563953 301.625091 
L 271.448538 301.625091 
z
" style="fill:#2ca02c;"/>
   </g>
   <g id="patch_396">
    <path clip-path="url(#p375715e3aa)" d="M 271.448538 307.584 
L 285.563953 307.584 
L 285.563953 301.642627 
L 271.448538 301.642627 
z
" style="fill:#2ca02c;"/>
   </g>
   <g id="patch_397">
    <path clip-path="url(#p375715e3aa)" d="M 271.448538 307.584 
L 285.563953 307.584 
L 285.563953 301.622753 
L 271.448538 301.622753 
z
" style="fill:#2ca02c;"/>
   </g>
   <g id="patch_398">
    <path clip-path="url(#p375715e3aa)" d="M 158.525217 307.584 
L 172.640632 307.584 
L 172.640632 304.353294 
L 158.525217 304.353294 
z
" style="fill:#2ca02c;"/>
   </g>
   <g id="matplotlib.axis_1">
    <g id="xtick_1">
     <g id="line2d_1">
      <defs>
       <path d="M 0 0 
L 0 3.5 
" id="mef021b1572" style="stroke:#000000;stroke-width:0.8;"/>
      </defs>
      <g>
       <use style="stroke:#000000;stroke-width:0.8;" x="95.00585" xlink:href="#mef021b1572" y="307.584"/>
      </g>
     </g>
     <g id="text_1">
      <!-- 1 -->
      <g transform="translate(91.8246 322.182437)scale(0.1 -0.1)">
       <defs>
        <path d="M 794 531 
L 1825 531 
L 1825 4091 
L 703 3866 
L 703 4441 
L 1819 4666 
L 2450 4666 
L 2450 531 
L 3481 531 
L 3481 0 
L 794 0 
L 794 531 
z
" id="DejaVuSans-31" transform="scale(0.015625)"/>
       </defs>
       <use xlink:href="#DejaVuSans-31"/>
      </g>
     </g>
    </g>
    <g id="xtick_2">
     <g id="line2d_2">
      <g>
       <use style="stroke:#000000;stroke-width:0.8;" x="151.46751" xlink:href="#mef021b1572" y="307.584"/>
      </g>
     </g>
     <g id="text_2">
      <!-- 2 -->
      <g transform="translate(148.28626 322.182437)scale(0.1 -0.1)">
       <defs>
        <path d="M 1228 531 
L 3431 531 
L 3431 0 
L 469 0 
L 469 531 
Q 828 903 1448 1529 
Q 2069 2156 2228 2338 
Q 2531 2678 2651 2914 
Q 2772 3150 2772 3378 
Q 2772 3750 2511 3984 
Q 2250 4219 1831 4219 
Q 1534 4219 1204 4116 
Q 875 4013 500 3803 
L 500 4441 
Q 881 4594 1212 4672 
Q 1544 4750 1819 4750 
Q 2544 4750 2975 4387 
Q 3406 4025 3406 3419 
Q 3406 3131 3298 2873 
Q 3191 2616 2906 2266 
Q 2828 2175 2409 1742 
Q 1991 1309 1228 531 
z
" id="DejaVuSans-32" transform="scale(0.015625)"/>
       </defs>
       <use xlink:href="#DejaVuSans-32"/>
      </g>
     </g>
    </g>
    <g id="xtick_3">
     <g id="line2d_3">
      <g>
       <use style="stroke:#000000;stroke-width:0.8;" x="207.92917" xlink:href="#mef021b1572" y="307.584"/>
      </g>
     </g>
     <g id="text_3">
      <!-- 3 -->
      <g transform="translate(204.74792 322.182437)scale(0.1 -0.1)">
       <defs>
        <path d="M 2597 2516 
Q 3050 2419 3304 2112 
Q 3559 1806 3559 1356 
Q 3559 666 3084 287 
Q 2609 -91 1734 -91 
Q 1441 -91 1130 -33 
Q 819 25 488 141 
L 488 750 
Q 750 597 1062 519 
Q 1375 441 1716 441 
Q 2309 441 2620 675 
Q 2931 909 2931 1356 
Q 2931 1769 2642 2001 
Q 2353 2234 1838 2234 
L 1294 2234 
L 1294 2753 
L 1863 2753 
Q 2328 2753 2575 2939 
Q 2822 3125 2822 3475 
Q 2822 3834 2567 4026 
Q 2313 4219 1838 4219 
Q 1578 4219 1281 4162 
Q 984 4106 628 3988 
L 628 4550 
Q 988 4650 1302 4700 
Q 1616 4750 1894 4750 
Q 2613 4750 3031 4423 
Q 3450 4097 3450 3541 
Q 3450 3153 3228 2886 
Q 3006 2619 2597 2516 
z
" id="DejaVuSans-33" transform="scale(0.015625)"/>
       </defs>
       <use xlink:href="#DejaVuSans-33"/>
      </g>
     </g>
    </g>
    <g id="xtick_4">
     <g id="line2d_4">
      <g>
       <use style="stroke:#000000;stroke-width:0.8;" x="264.39083" xlink:href="#mef021b1572" y="307.584"/>
      </g>
     </g>
     <g id="text_4">
      <!-- 4 -->
      <g transform="translate(261.20958 322.182437)scale(0.1 -0.1)">
       <defs>
        <path d="M 2419 4116 
L 825 1625 
L 2419 1625 
L 2419 4116 
z
M 2253 4666 
L 3047 4666 
L 3047 1625 
L 3713 1625 
L 3713 1100 
L 3047 1100 
L 3047 0 
L 2419 0 
L 2419 1100 
L 313 1100 
L 313 1709 
L 2253 4666 
z
" id="DejaVuSans-34" transform="scale(0.015625)"/>
       </defs>
       <use xlink:href="#DejaVuSans-34"/>
      </g>
     </g>
    </g>
    <g id="xtick_5">
     <g id="line2d_5">
      <g>
       <use style="stroke:#000000;stroke-width:0.8;" x="320.85249" xlink:href="#mef021b1572" y="307.584"/>
      </g>
     </g>
     <g id="text_5">
      <!-- 5 -->
      <g transform="translate(317.67124 322.182437)scale(0.1 -0.1)">
       <defs>
        <path d="M 691 4666 
L 3169 4666 
L 3169 4134 
L 1269 4134 
L 1269 2991 
Q 1406 3038 1543 3061 
Q 1681 3084 1819 3084 
Q 2600 3084 3056 2656 
Q 3513 2228 3513 1497 
Q 3513 744 3044 326 
Q 2575 -91 1722 -91 
Q 1428 -91 1123 -41 
Q 819 9 494 109 
L 494 744 
Q 775 591 1075 516 
Q 1375 441 1709 441 
Q 2250 441 2565 725 
Q 2881 1009 2881 1497 
Q 2881 1984 2565 2268 
Q 2250 2553 1709 2553 
Q 1456 2553 1204 2497 
Q 953 2441 691 2322 
L 691 4666 
z
" id="DejaVuSans-35" transform="scale(0.015625)"/>
       </defs>
       <use xlink:href="#DejaVuSans-35"/>
      </g>
     </g>
    </g>
    <g id="xtick_6">
     <g id="line2d_6">
      <g>
       <use style="stroke:#000000;stroke-width:0.8;" x="377.31415" xlink:href="#mef021b1572" y="307.584"/>
      </g>
     </g>
     <g id="text_6">
      <!-- 6 -->
      <g transform="translate(374.1329 322.182437)scale(0.1 -0.1)">
       <defs>
        <path d="M 2113 2584 
Q 1688 2584 1439 2293 
Q 1191 2003 1191 1497 
Q 1191 994 1439 701 
Q 1688 409 2113 409 
Q 2538 409 2786 701 
Q 3034 994 3034 1497 
Q 3034 2003 2786 2293 
Q 2538 2584 2113 2584 
z
M 3366 4563 
L 3366 3988 
Q 3128 4100 2886 4159 
Q 2644 4219 2406 4219 
Q 1781 4219 1451 3797 
Q 1122 3375 1075 2522 
Q 1259 2794 1537 2939 
Q 1816 3084 2150 3084 
Q 2853 3084 3261 2657 
Q 3669 2231 3669 1497 
Q 3669 778 3244 343 
Q 2819 -91 2113 -91 
Q 1303 -91 875 529 
Q 447 1150 447 2328 
Q 447 3434 972 4092 
Q 1497 4750 2381 4750 
Q 2619 4750 2861 4703 
Q 3103 4656 3366 4563 
z
" id="DejaVuSans-36" transform="scale(0.015625)"/>
       </defs>
       <use xlink:href="#DejaVuSans-36"/>
      </g>
     </g>
    </g>
    <g id="text_7">
     <!-- world_size -->
     <g transform="translate(210.198281 335.860562)scale(0.1 -0.1)">
      <defs>
       <path d="M 269 3500 
L 844 3500 
L 1563 769 
L 2278 3500 
L 2956 3500 
L 3675 769 
L 4391 3500 
L 4966 3500 
L 4050 0 
L 3372 0 
L 2619 2869 
L 1863 0 
L 1184 0 
L 269 3500 
z
" id="DejaVuSans-77" transform="scale(0.015625)"/>
       <path d="M 1959 3097 
Q 1497 3097 1228 2736 
Q 959 2375 959 1747 
Q 959 1119 1226 758 
Q 1494 397 1959 397 
Q 2419 397 2687 759 
Q 2956 1122 2956 1747 
Q 2956 2369 2687 2733 
Q 2419 3097 1959 3097 
z
M 1959 3584 
Q 2709 3584 3137 3096 
Q 3566 2609 3566 1747 
Q 3566 888 3137 398 
Q 2709 -91 1959 -91 
Q 1206 -91 779 398 
Q 353 888 353 1747 
Q 353 2609 779 3096 
Q 1206 3584 1959 3584 
z
" id="DejaVuSans-6f" transform="scale(0.015625)"/>
       <path d="M 2631 2963 
Q 2534 3019 2420 3045 
Q 2306 3072 2169 3072 
Q 1681 3072 1420 2755 
Q 1159 2438 1159 1844 
L 1159 0 
L 581 0 
L 581 3500 
L 1159 3500 
L 1159 2956 
Q 1341 3275 1631 3429 
Q 1922 3584 2338 3584 
Q 2397 3584 2469 3576 
Q 2541 3569 2628 3553 
L 2631 2963 
z
" id="DejaVuSans-72" transform="scale(0.015625)"/>
       <path d="M 603 4863 
L 1178 4863 
L 1178 0 
L 603 0 
L 603 4863 
z
" id="DejaVuSans-6c" transform="scale(0.015625)"/>
       <path d="M 2906 2969 
L 2906 4863 
L 3481 4863 
L 3481 0 
L 2906 0 
L 2906 525 
Q 2725 213 2448 61 
Q 2172 -91 1784 -91 
Q 1150 -91 751 415 
Q 353 922 353 1747 
Q 353 2572 751 3078 
Q 1150 3584 1784 3584 
Q 2172 3584 2448 3432 
Q 2725 3281 2906 2969 
z
M 947 1747 
Q 947 1113 1208 752 
Q 1469 391 1925 391 
Q 2381 391 2643 752 
Q 2906 1113 2906 1747 
Q 2906 2381 2643 2742 
Q 2381 3103 1925 3103 
Q 1469 3103 1208 2742 
Q 947 2381 947 1747 
z
" id="DejaVuSans-64" transform="scale(0.015625)"/>
       <path d="M 3263 -1063 
L 3263 -1509 
L -63 -1509 
L -63 -1063 
L 3263 -1063 
z
" id="DejaVuSans-5f" transform="scale(0.015625)"/>
       <path d="M 2834 3397 
L 2834 2853 
Q 2591 2978 2328 3040 
Q 2066 3103 1784 3103 
Q 1356 3103 1142 2972 
Q 928 2841 928 2578 
Q 928 2378 1081 2264 
Q 1234 2150 1697 2047 
L 1894 2003 
Q 2506 1872 2764 1633 
Q 3022 1394 3022 966 
Q 3022 478 2636 193 
Q 2250 -91 1575 -91 
Q 1294 -91 989 -36 
Q 684 19 347 128 
L 347 722 
Q 666 556 975 473 
Q 1284 391 1588 391 
Q 1994 391 2212 530 
Q 2431 669 2431 922 
Q 2431 1156 2273 1281 
Q 2116 1406 1581 1522 
L 1381 1569 
Q 847 1681 609 1914 
Q 372 2147 372 2553 
Q 372 3047 722 3315 
Q 1072 3584 1716 3584 
Q 2034 3584 2315 3537 
Q 2597 3491 2834 3397 
z
" id="DejaVuSans-73" transform="scale(0.015625)"/>
       <path d="M 603 3500 
L 1178 3500 
L 1178 0 
L 603 0 
L 603 3500 
z
M 603 4863 
L 1178 4863 
L 1178 4134 
L 603 4134 
L 603 4863 
z
" id="DejaVuSans-69" transform="scale(0.015625)"/>
       <path d="M 353 3500 
L 3084 3500 
L 3084 2975 
L 922 459 
L 3084 459 
L 3084 0 
L 275 0 
L 275 525 
L 2438 3041 
L 353 3041 
L 353 3500 
z
" id="DejaVuSans-7a" transform="scale(0.015625)"/>
       <path d="M 3597 1894 
L 3597 1613 
L 953 1613 
Q 991 1019 1311 708 
Q 1631 397 2203 397 
Q 2534 397 2845 478 
Q 3156 559 3463 722 
L 3463 178 
Q 3153 47 2828 -22 
Q 2503 -91 2169 -91 
Q 1331 -91 842 396 
Q 353 884 353 1716 
Q 353 2575 817 3079 
Q 1281 3584 2069 3584 
Q 2775 3584 3186 3129 
Q 3597 2675 3597 1894 
z
M 3022 2063 
Q 3016 2534 2758 2815 
Q 2500 3097 2075 3097 
Q 1594 3097 1305 2825 
Q 1016 2553 972 2059 
L 3022 2063 
z
" id="DejaVuSans-65" transform="scale(0.015625)"/>
      </defs>
      <use xlink:href="#DejaVuSans-77"/>
      <use x="81.787109" xlink:href="#DejaVuSans-6f"/>
      <use x="142.96875" xlink:href="#DejaVuSans-72"/>
      <use x="184.082031" xlink:href="#DejaVuSans-6c"/>
      <use x="211.865234" xlink:href="#DejaVuSans-64"/>
      <use x="275.341797" xlink:href="#DejaVuSans-5f"/>
      <use x="325.341797" xlink:href="#DejaVuSans-73"/>
      <use x="377.441406" xlink:href="#DejaVuSans-69"/>
      <use x="405.224609" xlink:href="#DejaVuSans-7a"/>
      <use x="457.714844" xlink:href="#DejaVuSans-65"/>
     </g>
    </g>
   </g>
   <g id="matplotlib.axis_2">
    <g id="ytick_1">
     <g id="line2d_7">
      <defs>
       <path d="M 0 0 
L -3.5 0 
" id="m0180c0c227" style="stroke:#000000;stroke-width:0.8;"/>
      </defs>
      <g>
       <use style="stroke:#000000;stroke-width:0.8;" x="57.6" xlink:href="#m0180c0c227" y="307.584"/>
      </g>
     </g>
     <g id="text_8">
      <!-- 0 -->
      <g transform="translate(44.2375 311.383219)scale(0.1 -0.1)">
       <defs>
        <path d="M 2034 4250 
Q 1547 4250 1301 3770 
Q 1056 3291 1056 2328 
Q 1056 1369 1301 889 
Q 1547 409 2034 409 
Q 2525 409 2770 889 
Q 3016 1369 3016 2328 
Q 3016 3291 2770 3770 
Q 2525 4250 2034 4250 
z
M 2034 4750 
Q 2819 4750 3233 4129 
Q 3647 3509 3647 2328 
Q 3647 1150 3233 529 
Q 2819 -91 2034 -91 
Q 1250 -91 836 529 
Q 422 1150 422 2328 
Q 422 3509 836 4129 
Q 1250 4750 2034 4750 
z
" id="DejaVuSans-30" transform="scale(0.015625)"/>
       </defs>
       <use xlink:href="#DejaVuSans-30"/>
      </g>
     </g>
    </g>
    <g id="ytick_2">
     <g id="line2d_8">
      <g>
       <use style="stroke:#000000;stroke-width:0.8;" x="57.6" xlink:href="#m0180c0c227" y="258.873041"/>
      </g>
     </g>
     <g id="text_9">
      <!-- 1 -->
      <g transform="translate(44.2375 262.67226)scale(0.1 -0.1)">
       <use xlink:href="#DejaVuSans-31"/>
      </g>
     </g>
    </g>
    <g id="ytick_3">
     <g id="line2d_9">
      <g>
       <use style="stroke:#000000;stroke-width:0.8;" x="57.6" xlink:href="#m0180c0c227" y="210.162083"/>
      </g>
     </g>
     <g id="text_10">
      <!-- 2 -->
      <g transform="translate(44.2375 213.961302)scale(0.1 -0.1)">
       <use xlink:href="#DejaVuSans-32"/>
      </g>
     </g>
    </g>
    <g id="ytick_4">
     <g id="line2d_10">
      <g>
       <use style="stroke:#000000;stroke-width:0.8;" x="57.6" xlink:href="#m0180c0c227" y="161.451124"/>
      </g>
     </g>
     <g id="text_11">
      <!-- 3 -->
      <g transform="translate(44.2375 165.250343)scale(0.1 -0.1)">
       <use xlink:href="#DejaVuSans-33"/>
      </g>
     </g>
    </g>
    <g id="ytick_5">
     <g id="line2d_11">
      <g>
       <use style="stroke:#000000;stroke-width:0.8;" x="57.6" xlink:href="#m0180c0c227" y="112.740166"/>
      </g>
     </g>
     <g id="text_12">
      <!-- 4 -->
      <g transform="translate(44.2375 116.539384)scale(0.1 -0.1)">
       <use xlink:href="#DejaVuSans-34"/>
      </g>
     </g>
    </g>
    <g id="ytick_6">
     <g id="line2d_12">
      <g>
       <use style="stroke:#000000;stroke-width:0.8;" x="57.6" xlink:href="#m0180c0c227" y="64.029207"/>
      </g>
     </g>
     <g id="text_13">
      <!-- 5 -->
      <g transform="translate(44.2375 67.828426)scale(0.1 -0.1)">
       <use xlink:href="#DejaVuSans-35"/>
      </g>
     </g>
    </g>
    <g id="text_14">
     <!-- rss_sum_all_kb -->
     <g transform="translate(37.879687 211.848312)rotate(-90)scale(0.1 -0.1)">
      <defs>
       <path d="M 544 1381 
L 544 3500 
L 1119 3500 
L 1119 1403 
Q 1119 906 1312 657 
Q 1506 409 1894 409 
Q 2359 409 2629 706 
Q 2900 1003 2900 1516 
L 2900 3500 
L 3475 3500 
L 3475 0 
L 2900 0 
L 2900 538 
Q 2691 219 2414 64 
Q 2138 -91 1772 -91 
Q 1169 -91 856 284 
Q 544 659 544 1381 
z
M 1991 3584 
L 1991 3584 
z
" id="DejaVuSans-75" transform="scale(0.015625)"/>
       <path d="M 3328 2828 
Q 3544 3216 3844 3400 
Q 4144 3584 4550 3584 
Q 5097 3584 5394 3201 
Q 5691 2819 5691 2113 
L 5691 0 
L 5113 0 
L 5113 2094 
Q 5113 2597 4934 2840 
Q 4756 3084 4391 3084 
Q 3944 3084 3684 2787 
Q 3425 2491 3425 1978 
L 3425 0 
L 2847 0 
L 2847 2094 
Q 2847 2600 2669 2842 
Q 2491 3084 2119 3084 
Q 1678 3084 1418 2786 
Q 1159 2488 1159 1978 
L 1159 0 
L 581 0 
L 581 3500 
L 1159 3500 
L 1159 2956 
Q 1356 3278 1631 3431 
Q 1906 3584 2284 3584 
Q 2666 3584 2933 3390 
Q 3200 3197 3328 2828 
z
" id="DejaVuSans-6d" transform="scale(0.015625)"/>
       <path d="M 2194 1759 
Q 1497 1759 1228 1600 
Q 959 1441 959 1056 
Q 959 750 1161 570 
Q 1363 391 1709 391 
Q 2188 391 2477 730 
Q 2766 1069 2766 1631 
L 2766 1759 
L 2194 1759 
z
M 3341 1997 
L 3341 0 
L 2766 0 
L 2766 531 
Q 2569 213 2275 61 
Q 1981 -91 1556 -91 
Q 1019 -91 701 211 
Q 384 513 384 1019 
Q 384 1609 779 1909 
Q 1175 2209 1959 2209 
L 2766 2209 
L 2766 2266 
Q 2766 2663 2505 2880 
Q 2244 3097 1772 3097 
Q 1472 3097 1187 3025 
Q 903 2953 641 2809 
L 641 3341 
Q 956 3463 1253 3523 
Q 1550 3584 1831 3584 
Q 2591 3584 2966 3190 
Q 3341 2797 3341 1997 
z
" id="DejaVuSans-61" transform="scale(0.015625)"/>
       <path d="M 581 4863 
L 1159 4863 
L 1159 1991 
L 2875 3500 
L 3609 3500 
L 1753 1863 
L 3688 0 
L 2938 0 
L 1159 1709 
L 1159 0 
L 581 0 
L 581 4863 
z
" id="DejaVuSans-6b" transform="scale(0.015625)"/>
       <path d="M 3116 1747 
Q 3116 2381 2855 2742 
Q 2594 3103 2138 3103 
Q 1681 3103 1420 2742 
Q 1159 2381 1159 1747 
Q 1159 1113 1420 752 
Q 1681 391 2138 391 
Q 2594 391 2855 752 
Q 3116 1113 3116 1747 
z
M 1159 2969 
Q 1341 3281 1617 3432 
Q 1894 3584 2278 3584 
Q 2916 3584 3314 3078 
Q 3713 2572 3713 1747 
Q 3713 922 3314 415 
Q 2916 -91 2278 -91 
Q 1894 -91 1617 61 
Q 1341 213 1159 525 
L 1159 0 
L 581 0 
L 581 4863 
L 1159 4863 
L 1159 2969 
z
" id="DejaVuSans-62" transform="scale(0.015625)"/>
      </defs>
      <use xlink:href="#DejaVuSans-72"/>
      <use x="41.113281" xlink:href="#DejaVuSans-73"/>
      <use x="93.212891" xlink:href="#DejaVuSans-73"/>
      <use x="145.3125" xlink:href="#DejaVuSans-5f"/>
      <use x="195.3125" xlink:href="#DejaVuSans-73"/>
      <use x="247.412109" xlink:href="#DejaVuSans-75"/>
      <use x="310.791016" xlink:href="#DejaVuSans-6d"/>
      <use x="408.203125" xlink:href="#DejaVuSans-5f"/>
      <use x="458.203125" xlink:href="#DejaVuSans-61"/>
      <use x="519.482422" xlink:href="#DejaVuSans-6c"/>
      <use x="547.265625" xlink:href="#DejaVuSans-6c"/>
      <use x="575.048828" xlink:href="#DejaVuSans-5f"/>
      <use x="625.048828" xlink:href="#DejaVuSans-6b"/>
      <use x="682.958984" xlink:href="#DejaVuSans-62"/>
     </g>
    </g>
    <g id="text_15">
     <!-- 1e6 -->
     <g transform="translate(57.6 38.472)scale(0.1 -0.1)">
      <use xlink:href="#DejaVuSans-31"/>
      <use x="63.623047" xlink:href="#DejaVuSans-65"/>
      <use x="125.146484" xlink:href="#DejaVuSans-36"/>
     </g>
    </g>
   </g>
   <g id="patch_399">
    <path d="M 57.6 307.584 
L 57.6 41.472 
" style="fill:none;stroke:#000000;stroke-linecap:square;stroke-linejoin:miter;stroke-width:0.8;"/>
   </g>
   <g id="patch_400">
    <path d="M 414.72 307.584 
L 414.72 41.472 
" style="fill:none;stroke:#000000;stroke-linecap:square;stroke-linejoin:miter;stroke-width:0.8;"/>
   </g>
   <g id="patch_401">
    <path d="M 57.6 307.584 
L 414.72 307.584 
" style="fill:none;stroke:#000000;stroke-linecap:square;stroke-linejoin:miter;stroke-width:0.8;"/>
   </g>
   <g id="patch_402">
    <path d="M 57.6 41.472 
L 414.72 41.472 
" style="fill:none;stroke:#000000;stroke-linecap:square;stroke-linejoin:miter;stroke-width:0.8;"/>
   </g>
   <g id="legend_1">
    <g id="patch_403">
     <path d="M 329.15125 93.506375 
L 407.72 93.506375 
Q 409.72 93.506375 409.72 91.506375 
L 409.72 48.472 
Q 409.72 46.472 407.72 46.472 
L 329.15125 46.472 
Q 327.15125 46.472 327.15125 48.472 
L 327.15125 91.506375 
Q 327.15125 93.506375 329.15125 93.506375 
z
" style="fill:#ffffff;opacity:0.8;stroke:#cccccc;stroke-linejoin:miter;"/>
    </g>
    <g id="patch_404">
     <path d="M 331.15125 58.070438 
L 351.15125 58.070438 
L 351.15125 51.070438 
L 331.15125 51.070438 
z
" style="fill:#1f77b4;"/>
    </g>
    <g id="text_16">
     <!-- Schema3 -->
     <g transform="translate(359.15125 58.070438)scale(0.1 -0.1)">
      <defs>
       <path d="M 3425 4513 
L 3425 3897 
Q 3066 4069 2747 4153 
Q 2428 4238 2131 4238 
Q 1616 4238 1336 4038 
Q 1056 3838 1056 3469 
Q 1056 3159 1242 3001 
Q 1428 2844 1947 2747 
L 2328 2669 
Q 3034 2534 3370 2195 
Q 3706 1856 3706 1288 
Q 3706 609 3251 259 
Q 2797 -91 1919 -91 
Q 1588 -91 1214 -16 
Q 841 59 441 206 
L 441 856 
Q 825 641 1194 531 
Q 1563 422 1919 422 
Q 2459 422 2753 634 
Q 3047 847 3047 1241 
Q 3047 1584 2836 1778 
Q 2625 1972 2144 2069 
L 1759 2144 
Q 1053 2284 737 2584 
Q 422 2884 422 3419 
Q 422 4038 858 4394 
Q 1294 4750 2059 4750 
Q 2388 4750 2728 4690 
Q 3069 4631 3425 4513 
z
" id="DejaVuSans-53" transform="scale(0.015625)"/>
       <path d="M 3122 3366 
L 3122 2828 
Q 2878 2963 2633 3030 
Q 2388 3097 2138 3097 
Q 1578 3097 1268 2742 
Q 959 2388 959 1747 
Q 959 1106 1268 751 
Q 1578 397 2138 397 
Q 2388 397 2633 464 
Q 2878 531 3122 666 
L 3122 134 
Q 2881 22 2623 -34 
Q 2366 -91 2075 -91 
Q 1284 -91 818 406 
Q 353 903 353 1747 
Q 353 2603 823 3093 
Q 1294 3584 2113 3584 
Q 2378 3584 2631 3529 
Q 2884 3475 3122 3366 
z
" id="DejaVuSans-63" transform="scale(0.015625)"/>
       <path d="M 3513 2113 
L 3513 0 
L 2938 0 
L 2938 2094 
Q 2938 2591 2744 2837 
Q 2550 3084 2163 3084 
Q 1697 3084 1428 2787 
Q 1159 2491 1159 1978 
L 1159 0 
L 581 0 
L 581 4863 
L 1159 4863 
L 1159 2956 
Q 1366 3272 1645 3428 
Q 1925 3584 2291 3584 
Q 2894 3584 3203 3211 
Q 3513 2838 3513 2113 
z
" id="DejaVuSans-68" transform="scale(0.015625)"/>
      </defs>
      <use xlink:href="#DejaVuSans-53"/>
      <use x="63.476562" xlink:href="#DejaVuSans-63"/>
      <use x="118.457031" xlink:href="#DejaVuSans-68"/>
      <use x="181.835938" xlink:href="#DejaVuSans-65"/>
      <use x="243.359375" xlink:href="#DejaVuSans-6d"/>
      <use x="340.771484" xlink:href="#DejaVuSans-61"/>
      <use x="402.050781" xlink:href="#DejaVuSans-33"/>
     </g>
    </g>
    <g id="patch_405">
     <path d="M 331.15125 72.748563 
L 351.15125 72.748563 
L 351.15125 65.748563 
L 331.15125 65.748563 
z
" style="fill:#ff7f0e;"/>
    </g>
    <g id="text_17">
     <!-- Schema2 -->
     <g transform="translate(359.15125 72.748563)scale(0.1 -0.1)">
      <use xlink:href="#DejaVuSans-53"/>
      <use x="63.476562" xlink:href="#DejaVuSans-63"/>
      <use x="118.457031" xlink:href="#DejaVuSans-68"/>
      <use x="181.835938" xlink:href="#DejaVuSans-65"/>
      <use x="243.359375" xlink:href="#DejaVuSans-6d"/>
      <use x="340.771484" xlink:href="#DejaVuSans-61"/>
      <use x="402.050781" xlink:href="#DejaVuSans-32"/>
     </g>
    </g>
    <g id="patch_406">
     <path d="M 331.15125 87.426688 
L 351.15125 87.426688 
L 351.15125 80.426688 
L 331.15125 80.426688 
z
" style="fill:#2ca02c;"/>
    </g>
    <g id="text_18">
     <!-- Schema1 -->
     <g transform="translate(359.15125 87.426688)scale(0.1 -0.1)">
      <use xlink:href="#DejaVuSans-53"/>
      <use x="63.476562" xlink:href="#DejaVuSans-63"/>
      <use x="118.457031" xlink:href="#DejaVuSans-68"/>
      <use x="181.835938" xlink:href="#DejaVuSans-65"/>
      <use x="243.359375" xlink:href="#DejaVuSans-6d"/>
      <use x="340.771484" xlink:href="#DejaVuSans-61"/>
      <use x="402.050781" xlink:href="#DejaVuSans-31"/>
     </g>
    </g>
   </g>
  </g>
 </g>
 <defs>
  <clipPath id="p375715e3aa">
   <rect height="266.112" width="357.12" x="57.6" y="41.472"/>
  </clipPath>
 </defs>
</svg>
