<?xml version="1.0" encoding="UTF-8" standalone="no"?><svg xmlns="http://www.w3.org/2000/svg" xmlns:xlink="http://www.w3.org/1999/xlink" contentScriptType="application/ecmascript" contentStyleType="text/css" height="269px" preserveAspectRatio="none" style="width:244px;height:269px;background:#FFFFFF;" version="1.1" viewBox="0 0 244 269" width="244px" zoomAndPan="magnify"><defs><filter height="300%" id="f9rzs7i838388" width="300%" x="-1" y="-1"><feGaussianBlur result="blurOut" stdDeviation="2.0"/><feColorMatrix in="blurOut" result="blurOut2" type="matrix" values="0 0 0 0 0 0 0 0 0 0 0 0 0 0 0 0 0 0 .4 0"/><feOffset dx="4.0" dy="4.0" in="blurOut2" result="blurOut3"/><feBlend in="SourceGraphic" in2="blurOut3" mode="normal"/></filter></defs><g><text fill="#000000" font-family="sans-serif" font-size="18" lengthAdjust="spacing" textLength="106" x="68" y="26.708">LOAD DATA</text><ellipse cx="119" cy="40.9531" fill="#000000" filter="url(#f9rzs7i838388)" rx="10" ry="10" style="stroke:none;stroke-width:1.0;"/><rect fill="#000000" filter="url(#f9rzs7i838388)" height="6" rx="2.5" ry="2.5" style="stroke:#000000;stroke-width:1.0;" width="216" x="11" y="70.9531"/><polygon fill="#FEFECE" filter="url(#f9rzs7i838388)" points="43,96.9531,95,96.9531,85,130.9219,33,130.9219" style="stroke:#A80036;stroke-width:1.5;"/><text fill="#000000" font-family="sans-serif" font-size="12" lengthAdjust="spacing" textLength="42" x="43" y="118.0918">rank_0</text><rect fill="#FEFECE" filter="url(#f9rzs7i838388)" height="33.9688" rx="12.5" ry="12.5" style="stroke:#A80036;stroke-width:1.5;" width="82" x="23" y="150.9219"/><text fill="#000000" font-family="sans-serif" font-size="12" lengthAdjust="spacing" textLength="62" x="33" y="172.0605">read data</text><polygon fill="#FEFECE" filter="url(#f9rzs7i838388)" points="152.5,96.9531,205.5,96.9531,195.5,130.9219,142.5,130.9219" style="stroke:#A80036;stroke-width:1.5;"/><text fill="#000000" font-family="sans-serif" font-size="12" lengthAdjust="spacing" textLength="43" x="152.5" y="118.0918">rank_N</text><rect fill="#FEFECE" filter="url(#f9rzs7i838388)" height="33.9688" rx="12.5" ry="12.5" style="stroke:#A80036;stroke-width:1.5;" width="82" x="133" y="150.9219"/><text fill="#000000" font-family="sans-serif" font-size="12" lengthAdjust="spacing" textLength="62" x="143" y="172.0605">read data</text><rect fill="#000000" filter="url(#f9rzs7i838388)" height="6" rx="2.5" ry="2.5" style="stroke:#000000;stroke-width:1.0;" width="216" x="11" y="204.8906"/><ellipse cx="119" cy="241.8906" fill="#FFFFFF" filter="url(#f9rzs7i838388)" rx="11" ry="11" style="stroke:#000000;stroke-width:1.0;"/><ellipse cx="119" cy="241.8906" fill="#000000" rx="6" ry="6" style="stroke:#7F7F7F;stroke-width:1.0;"/><line style="stroke:#A80036;stroke-width:1.5;" x1="64" x2="64" y1="130.9219" y2="150.9219"/><polygon fill="#A80036" points="60,140.9219,64,150.9219,68,140.9219,64,144.9219" style="stroke:#A80036;stroke-width:1.0;"/><line style="stroke:#A80036;stroke-width:1.5;" x1="174" x2="174" y1="130.9219" y2="150.9219"/><polygon fill="#A80036" points="170,140.9219,174,150.9219,178,140.9219,174,144.9219" style="stroke:#A80036;stroke-width:1.0;"/><line style="stroke:#A80036;stroke-width:1.5;" x1="64" x2="64" y1="76.9531" y2="96.9531"/><polygon fill="#A80036" points="60,86.9531,64,96.9531,68,86.9531,64,90.9531" style="stroke:#A80036;stroke-width:1.0;"/><line style="stroke:#A80036;stroke-width:1.5;" x1="174" x2="174" y1="76.9531" y2="96.9531"/><polygon fill="#A80036" points="170,86.9531,174,96.9531,178,86.9531,174,90.9531" style="stroke:#A80036;stroke-width:1.0;"/><line style="stroke:#A80036;stroke-width:1.5;" x1="64" x2="64" y1="184.8906" y2="204.8906"/><polygon fill="#A80036" points="60,194.8906,64,204.8906,68,194.8906,64,198.8906" style="stroke:#A80036;stroke-width:1.0;"/><line style="stroke:#A80036;stroke-width:1.5;" x1="174" x2="174" y1="184.8906" y2="204.8906"/><polygon fill="#A80036" points="170,194.8906,174,204.8906,178,194.8906,174,198.8906" style="stroke:#A80036;stroke-width:1.0;"/><line style="stroke:#A80036;stroke-width:1.5;" x1="119" x2="119" y1="50.9531" y2="70.9531"/><polygon fill="#A80036" points="115,60.9531,119,70.9531,123,60.9531,119,64.9531" style="stroke:#A80036;stroke-width:1.0;"/><line style="stroke:#A80036;stroke-width:1.5;" x1="119" x2="119" y1="210.8906" y2="230.8906"/><polygon fill="#A80036" points="115,220.8906,119,230.8906,123,220.8906,119,224.8906" style="stroke:#A80036;stroke-width:1.0;"/><!--MD5=[fae2b7484318096384812a8ae720e7ef]
@startuml
'left to right direction
' Horizontal lines: - ->, <- -, <- ->'
title LOAD DATA
start
fork
    :rank_0/
    :read data;
fork again
    :rank_N/
    :read data;
end fork
stop

@enduml

@startuml
title LOAD DATA
start
fork
    :rank_0/
    :read data;
fork again
    :rank_N/
    :read data;
end fork
stop

@enduml

PlantUML version 1.2022.0(Tue Jan 11 17:16:42 CET 2022)
(GPL source distribution)
Java Runtime: OpenJDK Runtime Environment
JVM: OpenJDK 64-Bit Server VM
Default Encoding: UTF-8
Language: en
Country: US
--></g></svg>