<?xml version="1.0" encoding="UTF-8" standalone="no"?><svg xmlns="http://www.w3.org/2000/svg" xmlns:xlink="http://www.w3.org/1999/xlink" contentScriptType="application/ecmascript" contentStyleType="text/css" height="692px" preserveAspectRatio="none" style="width:414px;height:692px;background:#FFFFFF;" version="1.1" viewBox="0 0 414 692" width="414px" zoomAndPan="magnify"><defs><filter height="300%" id="fr545yqvh4ixr" width="300%" x="-1" y="-1"><feGaussianBlur result="blurOut" stdDeviation="2.0"/><feColorMatrix in="blurOut" result="blurOut2" type="matrix" values="0 0 0 0 0 0 0 0 0 0 0 0 0 0 0 0 0 0 .4 0"/><feOffset dx="4.0" dy="4.0" in="blurOut2" result="blurOut3"/><feBlend in="SourceGraphic" in2="blurOut3" mode="normal"/></filter></defs><g><text fill="#000000" font-family="sans-serif" font-size="18" lengthAdjust="spacing" textLength="93" x="159.5" y="26.708">SCHEME 5</text><ellipse cx="208" cy="40.9531" fill="#000000" filter="url(#fr545yqvh4ixr)" rx="10" ry="10" style="stroke:none;stroke-width:1.0;"/><polygon fill="#FEFECE" filter="url(#fr545yqvh4ixr)" points="187,70.9531,239,70.9531,229,104.9219,177,104.9219" style="stroke:#A80036;stroke-width:1.5;"/><text fill="#000000" font-family="sans-serif" font-size="12" lengthAdjust="spacing" textLength="42" x="187" y="92.0918">rank_0</text><rect fill="#FEFECE" filter="url(#fr545yqvh4ixr)" height="37.4609" rx="12.5" ry="12.5" style="stroke:#A80036;stroke-width:1.5;" width="101" x="157.5" y="124.9219"/><text fill="#000000" font-family="sans-serif" font-size="15" font-style="italic" font-weight="bold" lengthAdjust="spacing" textLength="81" x="167.5" y="148.8452">read data</text><rect fill="#FEFECE" filter="url(#fr545yqvh4ixr)" height="37.4609" style="stroke:#A80036;stroke-width:1.5;" width="156" x="130" y="182.3828"/><line style="stroke:#A80036;stroke-width:1.5;" x1="135" x2="135" y1="182.3828" y2="219.8438"/><line style="stroke:#A80036;stroke-width:1.5;" x1="281" x2="281" y1="182.3828" y2="219.8438"/><text fill="#000000" font-family="sans-serif" font-size="15" font-weight="bold" lengthAdjust="spacing" textLength="136" x="140" y="206.3062">MPI_Bcast(data)</text><rect fill="#000000" filter="url(#fr545yqvh4ixr)" height="6" rx="2.5" ry="2.5" style="stroke:#000000;stroke-width:1.0;" width="386" x="11" y="239.8438"/><polygon fill="#FEFECE" filter="url(#fr545yqvh4ixr)" points="75.5,265.8438,127.5,265.8438,117.5,299.8125,65.5,299.8125" style="stroke:#A80036;stroke-width:1.5;"/><text fill="#000000" font-family="sans-serif" font-size="12" lengthAdjust="spacing" textLength="42" x="75.5" y="286.9824">rank_0</text><rect fill="#FEFECE" filter="url(#fr545yqvh4ixr)" height="37.4609" rx="12.5" ry="12.5" style="stroke:#A80036;stroke-width:1.5;" width="147" x="23" y="363.8125"/><text fill="#000000" font-family="sans-serif" font-size="15" font-style="italic" font-weight="bold" lengthAdjust="spacing" textLength="127" x="33" y="387.7358">Value Iteration</text><rect fill="#FEFECE" filter="url(#fr545yqvh4ixr)" height="33.9688" style="stroke:#A80036;stroke-width:1.5;" width="122" x="35.5" y="421.2734"/><line style="stroke:#A80036;stroke-width:1.5;" x1="40.5" x2="40.5" y1="421.2734" y2="455.2422"/><line style="stroke:#A80036;stroke-width:1.5;" x1="152.5" x2="152.5" y1="421.2734" y2="455.2422"/><text fill="#000000" font-family="sans-serif" font-size="12" lengthAdjust="spacing" textLength="102" x="45.5" y="442.4121">MPI_Allgatherv(J)</text><rect fill="#FEFECE" filter="url(#fr545yqvh4ixr)" height="33.9688" style="stroke:#A80036;stroke-width:1.5;" width="138" x="27.5" y="475.2422"/><line style="stroke:#A80036;stroke-width:1.5;" x1="32.5" x2="32.5" y1="475.2422" y2="509.2109"/><line style="stroke:#A80036;stroke-width:1.5;" x1="160.5" x2="160.5" y1="475.2422" y2="509.2109"/><text fill="#000000" font-family="sans-serif" font-size="12" lengthAdjust="spacing" textLength="118" x="37.5" y="496.3809">MPI_Allreduce(eps)</text><polygon fill="#FEFECE" filter="url(#fr545yqvh4ixr)" points="96.5,319.8125,108.5,331.8125,96.5,343.8125,84.5,331.8125,96.5,319.8125" style="stroke:#A80036;stroke-width:1.5;"/><polygon fill="#FEFECE" filter="url(#fr545yqvh4ixr)" points="45.5,529.2109,147.5,529.2109,159.5,541.2109,147.5,553.2109,45.5,553.2109,33.5,541.2109,45.5,529.2109" style="stroke:#A80036;stroke-width:1.5;"/><text fill="#000000" font-family="sans-serif" font-size="11" lengthAdjust="spacing" textLength="21" x="100.5" y="563.4214">Yes</text><text fill="#000000" font-family="sans-serif" font-size="11" lengthAdjust="spacing" textLength="102" x="45.5" y="545.019">eps &lt; eps_thresh</text><text fill="#000000" font-family="sans-serif" font-size="11" lengthAdjust="spacing" textLength="15" x="159.5" y="538.6167">No</text><polygon fill="#FEFECE" filter="url(#fr545yqvh4ixr)" points="274,265.8438,327,265.8438,317,299.8125,264,299.8125" style="stroke:#A80036;stroke-width:1.5;"/><text fill="#000000" font-family="sans-serif" font-size="12" lengthAdjust="spacing" textLength="43" x="274" y="286.9824">rank_N</text><rect fill="#FEFECE" filter="url(#fr545yqvh4ixr)" height="37.4609" rx="12.5" ry="12.5" style="stroke:#A80036;stroke-width:1.5;" width="147" x="222" y="363.8125"/><text fill="#000000" font-family="sans-serif" font-size="15" font-style="italic" font-weight="bold" lengthAdjust="spacing" textLength="127" x="232" y="387.7358">Value Iteration</text><rect fill="#FEFECE" filter="url(#fr545yqvh4ixr)" height="33.9688" style="stroke:#A80036;stroke-width:1.5;" width="122" x="234.5" y="421.2734"/><line style="stroke:#A80036;stroke-width:1.5;" x1="239.5" x2="239.5" y1="421.2734" y2="455.2422"/><line style="stroke:#A80036;stroke-width:1.5;" x1="351.5" x2="351.5" y1="421.2734" y2="455.2422"/><text fill="#000000" font-family="sans-serif" font-size="12" lengthAdjust="spacing" textLength="102" x="244.5" y="442.4121">MPI_Allgatherv(J)</text><rect fill="#FEFECE" filter="url(#fr545yqvh4ixr)" height="33.9688" style="stroke:#A80036;stroke-width:1.5;" width="138" x="226.5" y="475.2422"/><line style="stroke:#A80036;stroke-width:1.5;" x1="231.5" x2="231.5" y1="475.2422" y2="509.2109"/><line style="stroke:#A80036;stroke-width:1.5;" x1="359.5" x2="359.5" y1="475.2422" y2="509.2109"/><text fill="#000000" font-family="sans-serif" font-size="12" lengthAdjust="spacing" textLength="118" x="236.5" y="496.3809">MPI_Allreduce(eps)</text><polygon fill="#FEFECE" filter="url(#fr545yqvh4ixr)" points="295.5,319.8125,307.5,331.8125,295.5,343.8125,283.5,331.8125,295.5,319.8125" style="stroke:#A80036;stroke-width:1.5;"/><polygon fill="#FEFECE" filter="url(#fr545yqvh4ixr)" points="244.5,529.2109,346.5,529.2109,358.5,541.2109,346.5,553.2109,244.5,553.2109,232.5,541.2109,244.5,529.2109" style="stroke:#A80036;stroke-width:1.5;"/><text fill="#000000" font-family="sans-serif" font-size="11" lengthAdjust="spacing" textLength="21" x="299.5" y="563.4214">Yes</text><text fill="#000000" font-family="sans-serif" font-size="11" lengthAdjust="spacing" textLength="102" x="244.5" y="545.019">eps &lt; eps_thresh</text><text fill="#000000" font-family="sans-serif" font-size="11" lengthAdjust="spacing" textLength="15" x="358.5" y="538.6167">No</text><rect fill="#000000" filter="url(#fr545yqvh4ixr)" height="6" rx="2.5" ry="2.5" style="stroke:#000000;stroke-width:1.0;" width="386" x="11" y="573.2109"/><rect fill="#FEFECE" filter="url(#fr545yqvh4ixr)" height="33.9688" style="stroke:#A80036;stroke-width:1.5;" width="117" x="149.5" y="599.2109"/><line style="stroke:#A80036;stroke-width:1.5;" x1="154.5" x2="154.5" y1="599.2109" y2="633.1797"/><line style="stroke:#A80036;stroke-width:1.5;" x1="261.5" x2="261.5" y1="599.2109" y2="633.1797"/><text fill="#000000" font-family="sans-serif" font-size="12" lengthAdjust="spacing" textLength="97" x="159.5" y="620.3496">MPI_Gatherv(Pi)</text><ellipse cx="208" cy="664.1797" fill="#FFFFFF" filter="url(#fr545yqvh4ixr)" rx="11" ry="11" style="stroke:#000000;stroke-width:1.0;"/><ellipse cx="208" cy="664.1797" fill="#000000" rx="6" ry="6" style="stroke:#7F7F7F;stroke-width:1.0;"/><line style="stroke:#A80036;stroke-width:1.5;" x1="208" x2="208" y1="50.9531" y2="70.9531"/><polygon fill="#A80036" points="204,60.9531,208,70.9531,212,60.9531,208,64.9531" style="stroke:#A80036;stroke-width:1.0;"/><line style="stroke:#A80036;stroke-width:1.5;" x1="208" x2="208" y1="104.9219" y2="124.9219"/><polygon fill="#A80036" points="204,114.9219,208,124.9219,212,114.9219,208,118.9219" style="stroke:#A80036;stroke-width:1.0;"/><line style="stroke:#A80036;stroke-width:1.5;" x1="208" x2="208" y1="162.3828" y2="182.3828"/><polygon fill="#A80036" points="204,172.3828,208,182.3828,212,172.3828,208,176.3828" style="stroke:#A80036;stroke-width:1.0;"/><line style="stroke:#A80036;stroke-width:1.5;" x1="96.5" x2="96.5" y1="401.2734" y2="421.2734"/><polygon fill="#A80036" points="92.5,411.2734,96.5,421.2734,100.5,411.2734,96.5,415.2734" style="stroke:#A80036;stroke-width:1.0;"/><line style="stroke:#A80036;stroke-width:1.5;" x1="96.5" x2="96.5" y1="455.2422" y2="475.2422"/><polygon fill="#A80036" points="92.5,465.2422,96.5,475.2422,100.5,465.2422,96.5,469.2422" style="stroke:#A80036;stroke-width:1.0;"/><line style="stroke:#A80036;stroke-width:1.5;" x1="96.5" x2="96.5" y1="343.8125" y2="363.8125"/><polygon fill="#A80036" points="92.5,353.8125,96.5,363.8125,100.5,353.8125,96.5,357.8125" style="stroke:#A80036;stroke-width:1.0;"/><line style="stroke:#A80036;stroke-width:1.5;" x1="159.5" x2="182" y1="541.2109" y2="541.2109"/><polygon fill="#A80036" points="178,446.5117,182,436.5117,186,446.5117,182,442.5117" style="stroke:#A80036;stroke-width:1.5;"/><line style="stroke:#A80036;stroke-width:1.5;" x1="182" x2="182" y1="331.8125" y2="541.2109"/><line style="stroke:#A80036;stroke-width:1.5;" x1="182" x2="108.5" y1="331.8125" y2="331.8125"/><polygon fill="#A80036" points="118.5,327.8125,108.5,331.8125,118.5,335.8125,114.5,331.8125" style="stroke:#A80036;stroke-width:1.0;"/><line style="stroke:#A80036;stroke-width:1.5;" x1="96.5" x2="96.5" y1="509.2109" y2="529.2109"/><polygon fill="#A80036" points="92.5,519.2109,96.5,529.2109,100.5,519.2109,96.5,523.2109" style="stroke:#A80036;stroke-width:1.0;"/><line style="stroke:#A80036;stroke-width:1.5;" x1="96.5" x2="96.5" y1="299.8125" y2="319.8125"/><polygon fill="#A80036" points="92.5,309.8125,96.5,319.8125,100.5,309.8125,96.5,313.8125" style="stroke:#A80036;stroke-width:1.0;"/><line style="stroke:#A80036;stroke-width:1.5;" x1="295.5" x2="295.5" y1="401.2734" y2="421.2734"/><polygon fill="#A80036" points="291.5,411.2734,295.5,421.2734,299.5,411.2734,295.5,415.2734" style="stroke:#A80036;stroke-width:1.0;"/><line style="stroke:#A80036;stroke-width:1.5;" x1="295.5" x2="295.5" y1="455.2422" y2="475.2422"/><polygon fill="#A80036" points="291.5,465.2422,295.5,475.2422,299.5,465.2422,295.5,469.2422" style="stroke:#A80036;stroke-width:1.0;"/><line style="stroke:#A80036;stroke-width:1.5;" x1="295.5" x2="295.5" y1="343.8125" y2="363.8125"/><polygon fill="#A80036" points="291.5,353.8125,295.5,363.8125,299.5,353.8125,295.5,357.8125" style="stroke:#A80036;stroke-width:1.0;"/><line style="stroke:#A80036;stroke-width:1.5;" x1="358.5" x2="381" y1="541.2109" y2="541.2109"/><polygon fill="#A80036" points="377,446.5117,381,436.5117,385,446.5117,381,442.5117" style="stroke:#A80036;stroke-width:1.5;"/><line style="stroke:#A80036;stroke-width:1.5;" x1="381" x2="381" y1="331.8125" y2="541.2109"/><line style="stroke:#A80036;stroke-width:1.5;" x1="381" x2="307.5" y1="331.8125" y2="331.8125"/><polygon fill="#A80036" points="317.5,327.8125,307.5,331.8125,317.5,335.8125,313.5,331.8125" style="stroke:#A80036;stroke-width:1.0;"/><line style="stroke:#A80036;stroke-width:1.5;" x1="295.5" x2="295.5" y1="509.2109" y2="529.2109"/><polygon fill="#A80036" points="291.5,519.2109,295.5,529.2109,299.5,519.2109,295.5,523.2109" style="stroke:#A80036;stroke-width:1.0;"/><line style="stroke:#A80036;stroke-width:1.5;" x1="295.5" x2="295.5" y1="299.8125" y2="319.8125"/><polygon fill="#A80036" points="291.5,309.8125,295.5,319.8125,299.5,309.8125,295.5,313.8125" style="stroke:#A80036;stroke-width:1.0;"/><line style="stroke:#A80036;stroke-width:1.5;" x1="96.5" x2="96.5" y1="245.8438" y2="265.8438"/><polygon fill="#A80036" points="92.5,255.8438,96.5,265.8438,100.5,255.8438,96.5,259.8438" style="stroke:#A80036;stroke-width:1.0;"/><line style="stroke:#A80036;stroke-width:1.5;" x1="295.5" x2="295.5" y1="245.8438" y2="265.8438"/><polygon fill="#A80036" points="291.5,255.8438,295.5,265.8438,299.5,255.8438,295.5,259.8438" style="stroke:#A80036;stroke-width:1.0;"/><line style="stroke:#A80036;stroke-width:1.5;" x1="96.5" x2="96.5" y1="553.2109" y2="573.2109"/><polygon fill="#A80036" points="92.5,563.2109,96.5,573.2109,100.5,563.2109,96.5,567.2109" style="stroke:#A80036;stroke-width:1.0;"/><line style="stroke:#A80036;stroke-width:1.5;" x1="295.5" x2="295.5" y1="553.2109" y2="573.2109"/><polygon fill="#A80036" points="291.5,563.2109,295.5,573.2109,299.5,563.2109,295.5,567.2109" style="stroke:#A80036;stroke-width:1.0;"/><line style="stroke:#A80036;stroke-width:1.5;" x1="208" x2="208" y1="219.8438" y2="239.8438"/><polygon fill="#A80036" points="204,229.8438,208,239.8438,212,229.8438,208,233.8438" style="stroke:#A80036;stroke-width:1.0;"/><line style="stroke:#A80036;stroke-width:1.5;" x1="208" x2="208" y1="579.2109" y2="599.2109"/><polygon fill="#A80036" points="204,589.2109,208,599.2109,212,589.2109,208,593.2109" style="stroke:#A80036;stroke-width:1.0;"/><line style="stroke:#A80036;stroke-width:1.5;" x1="208" x2="208" y1="633.1797" y2="653.1797"/><polygon fill="#A80036" points="204,643.1797,208,653.1797,212,643.1797,208,647.1797" style="stroke:#A80036;stroke-width:1.0;"/><!--MD5=[6609171e00e357afd1f3b04be15b495b]
@startuml
'left to right direction
' Horizontal lines: - ->, <- -, <- ->'
title SCHEME 5
start
    :rank_0/
    :<size:15><i><b>read data</b></i></size>;
:<size:15><b>MPI_Bcast(data)</b></size>|
fork
    :rank_0/
repeat
    :<size:15><i><b>Value Iteration</b></i></size>;
    :MPI_Allgatherv(J)|
    :MPI_Allreduce(eps)|
repeat while (eps < eps_thresh) is (No) not (Yes)
fork again
    :rank_N/
repeat
    :<size:15><i><b>Value Iteration</b></i></size>;
    :MPI_Allgatherv(J)|
    :MPI_Allreduce(eps)|
repeat while (eps < eps_thresh) is (No) not (Yes)
end fork
:MPI_Gatherv(Pi)|
stop

@enduml

@startuml
title SCHEME 5
start
    :rank_0/
    :<size:15><i><b>read data</b></i></size>;
:<size:15><b>MPI_Bcast(data)</b></size>|
fork
    :rank_0/
repeat
    :<size:15><i><b>Value Iteration</b></i></size>;
    :MPI_Allgatherv(J)|
    :MPI_Allreduce(eps)|
repeat while (eps < eps_thresh) is (No) not (Yes)
fork again
    :rank_N/
repeat
    :<size:15><i><b>Value Iteration</b></i></size>;
    :MPI_Allgatherv(J)|
    :MPI_Allreduce(eps)|
repeat while (eps < eps_thresh) is (No) not (Yes)
end fork
:MPI_Gatherv(Pi)|
stop

@enduml

PlantUML version 1.2021.16(Wed Dec 08 18:25:22 CET 2021)
(GPL source distribution)
Java Runtime: OpenJDK Runtime Environment
JVM: OpenJDK 64-Bit Server VM
Default Encoding: UTF-8
Language: de
Country: DE
--></g></svg>