<?xml version="1.0" encoding="UTF-8" standalone="no"?><svg xmlns="http://www.w3.org/2000/svg" xmlns:xlink="http://www.w3.org/1999/xlink" contentScriptType="application/ecmascript" contentStyleType="text/css" height="819px" preserveAspectRatio="none" style="width:395px;height:819px;background:#FFFFFF;" version="1.1" viewBox="0 0 395 819" width="395px" zoomAndPan="magnify"><defs><filter height="300%" id="f1f9ew0bbm19s0" width="300%" x="-1" y="-1"><feGaussianBlur result="blurOut" stdDeviation="2.0"/><feColorMatrix in="blurOut" result="blurOut2" type="matrix" values="0 0 0 0 0 0 0 0 0 0 0 0 0 0 0 0 0 0 .4 0"/><feOffset dx="4.0" dy="4.0" in="blurOut2" result="blurOut3"/><feBlend in="SourceGraphic" in2="blurOut3" mode="normal"/></filter></defs><g><text fill="#000000" font-family="sans-serif" font-size="18" lengthAdjust="spacing" textLength="93" x="150" y="26.708">SCHEME 4</text><ellipse cx="184" cy="40.9531" fill="#000000" filter="url(#f1f9ew0bbm19s0)" rx="10" ry="10" style="stroke:none;stroke-width:1.0;"/><rect fill="#FEFECE" filter="url(#f1f9ew0bbm19s0)" height="40.9531" rx="12.5" ry="12.5" style="stroke:#A80036;stroke-width:1.5;" width="136" x="116" y="70.9531"/><text fill="#000000" font-family="sans-serif" font-size="18" font-style="italic" font-weight="bold" lengthAdjust="spacing" textLength="116" x="126" y="97.6611">LOAD DATA</text><rect fill="#000000" filter="url(#f1f9ew0bbm19s0)" height="6" rx="2.5" ry="2.5" style="stroke:#000000;stroke-width:1.0;" width="346" x="11" y="175.9063"/><polygon fill="#FEFECE" filter="url(#f1f9ew0bbm19s0)" points="75.5,201.9063,127.5,201.9063,117.5,235.875,65.5,235.875" style="stroke:#A80036;stroke-width:1.5;"/><text fill="#000000" font-family="sans-serif" font-size="12" lengthAdjust="spacing" textLength="42" x="75.5" y="223.0449">rank_0</text><rect fill="#FEFECE" filter="url(#f1f9ew0bbm19s0)" height="33.9688" style="stroke:#A80036;stroke-width:1.5;" width="95" x="49" y="255.875"/><line style="stroke:#A80036;stroke-width:1.5;" x1="54" x2="54" y1="255.875" y2="289.8438"/><line style="stroke:#A80036;stroke-width:1.5;" x1="139" x2="139" y1="255.875" y2="289.8438"/><text fill="#000000" font-family="sans-serif" font-size="12" lengthAdjust="spacing" textLength="75" x="59" y="277.0137">MPI_Bcast(J)</text><rect fill="#FEFECE" filter="url(#f1f9ew0bbm19s0)" height="37.4609" rx="12.5" ry="12.5" style="stroke:#A80036;stroke-width:1.5;" width="147" x="23" y="309.8438"/><text fill="#000000" font-family="sans-serif" font-size="15" font-style="italic" font-weight="bold" lengthAdjust="spacing" textLength="127" x="33" y="333.7671">Value Iteration</text><rect fill="#FEFECE" filter="url(#f1f9ew0bbm19s0)" height="33.9688" style="stroke:#A80036;stroke-width:1.5;" width="111" x="41" y="376.5508"/><line style="stroke:#A80036;stroke-width:1.5;" x1="46" x2="46" y1="376.5508" y2="410.5195"/><line style="stroke:#A80036;stroke-width:1.5;" x1="147" x2="147" y1="376.5508" y2="410.5195"/><text fill="#000000" font-family="sans-serif" font-size="12" lengthAdjust="spacing" textLength="91" x="51" y="397.6895">MPI_Igatherv(J)</text><rect fill="#FEFECE" filter="url(#f1f9ew0bbm19s0)" height="33.9688" style="stroke:#A80036;stroke-width:1.5;" width="74" x="59.5" y="430.5195"/><line style="stroke:#A80036;stroke-width:1.5;" x1="64.5" x2="64.5" y1="430.5195" y2="464.4883"/><line style="stroke:#A80036;stroke-width:1.5;" x1="128.5" x2="128.5" y1="430.5195" y2="464.4883"/><text fill="#000000" font-family="sans-serif" font-size="12" lengthAdjust="spacing" textLength="54" x="69.5" y="451.6582">MPI_Wait</text><polygon fill="#FEFECE" filter="url(#f1f9ew0bbm19s0)" points="250,201.9063,303,201.9063,293,235.875,240,235.875" style="stroke:#A80036;stroke-width:1.5;"/><text fill="#000000" font-family="sans-serif" font-size="12" lengthAdjust="spacing" textLength="43" x="250" y="223.0449">rank_N</text><rect fill="#FEFECE" filter="url(#f1f9ew0bbm19s0)" height="33.9688" style="stroke:#A80036;stroke-width:1.5;" width="95" x="224" y="255.875"/><line style="stroke:#A80036;stroke-width:1.5;" x1="229" x2="229" y1="255.875" y2="289.8438"/><line style="stroke:#A80036;stroke-width:1.5;" x1="314" x2="314" y1="255.875" y2="289.8438"/><text fill="#000000" font-family="sans-serif" font-size="12" lengthAdjust="spacing" textLength="75" x="234" y="277.0137">MPI_Bcast(J)</text><rect fill="#FEFECE" filter="url(#f1f9ew0bbm19s0)" height="37.4609" rx="12.5" ry="12.5" style="stroke:#A80036;stroke-width:1.5;" width="147" x="198" y="309.8438"/><text fill="#000000" font-family="sans-serif" font-size="15" font-style="italic" font-weight="bold" lengthAdjust="spacing" textLength="127" x="208" y="333.7671">Value Iteration</text><rect fill="#FEFECE" filter="url(#f1f9ew0bbm19s0)" height="33.9688" style="stroke:#A80036;stroke-width:1.5;" width="111" x="216" y="376.5508"/><line style="stroke:#A80036;stroke-width:1.5;" x1="221" x2="221" y1="376.5508" y2="410.5195"/><line style="stroke:#A80036;stroke-width:1.5;" x1="322" x2="322" y1="376.5508" y2="410.5195"/><text fill="#000000" font-family="sans-serif" font-size="12" lengthAdjust="spacing" textLength="91" x="226" y="397.6895">MPI_Igatherv(J)</text><rect fill="#FEFECE" filter="url(#f1f9ew0bbm19s0)" height="33.9688" style="stroke:#A80036;stroke-width:1.5;" width="74" x="234.5" y="430.5195"/><line style="stroke:#A80036;stroke-width:1.5;" x1="239.5" x2="239.5" y1="430.5195" y2="464.4883"/><line style="stroke:#A80036;stroke-width:1.5;" x1="303.5" x2="303.5" y1="430.5195" y2="464.4883"/><text fill="#000000" font-family="sans-serif" font-size="12" lengthAdjust="spacing" textLength="54" x="244.5" y="451.6582">MPI_Wait</text><rect fill="#000000" filter="url(#f1f9ew0bbm19s0)" height="6" rx="2.5" ry="2.5" style="stroke:#000000;stroke-width:1.0;" width="346" x="11" y="484.4883"/><polygon fill="#FEFECE" filter="url(#f1f9ew0bbm19s0)" points="163,510.4883,215,510.4883,205,544.457,153,544.457" style="stroke:#A80036;stroke-width:1.5;"/><text fill="#000000" font-family="sans-serif" font-size="12" lengthAdjust="spacing" textLength="42" x="163" y="531.627">rank_0</text><polygon fill="#FEFECE" filter="url(#f1f9ew0bbm19s0)" points="184,131.9063,196,143.9063,184,155.9063,172,143.9063,184,131.9063" style="stroke:#A80036;stroke-width:1.5;"/><polygon fill="#FEFECE" filter="url(#f1f9ew0bbm19s0)" points="133,564.457,235,564.457,247,576.457,235,588.457,133,588.457,121,576.457,133,564.457" style="stroke:#A80036;stroke-width:1.5;"/><text fill="#000000" font-family="sans-serif" font-size="11" lengthAdjust="spacing" textLength="21" x="188" y="598.6675">Yes</text><text fill="#000000" font-family="sans-serif" font-size="11" lengthAdjust="spacing" textLength="102" x="133" y="580.2651">eps &lt; eps_thresh</text><text fill="#000000" font-family="sans-serif" font-size="11" lengthAdjust="spacing" textLength="15" x="247" y="573.8628">No</text><rect fill="#000000" filter="url(#f1f9ew0bbm19s0)" height="6" rx="2.5" ry="2.5" style="stroke:#000000;stroke-width:1.0;" width="145" x="111.5" y="620.1675"/><polygon fill="#FEFECE" filter="url(#f1f9ew0bbm19s0)" points="162,646.1675,216,646.1675,206,680.1362,152,680.1362" style="stroke:#A80036;stroke-width:1.5;"/><text fill="#000000" font-family="sans-serif" font-size="12" lengthAdjust="spacing" textLength="44" x="162" y="667.3062">rank_#</text><rect fill="#FEFECE" filter="url(#f1f9ew0bbm19s0)" height="33.9688" style="stroke:#A80036;stroke-width:1.5;" width="117" x="125.5" y="700.1362"/><line style="stroke:#A80036;stroke-width:1.5;" x1="130.5" x2="130.5" y1="700.1362" y2="734.105"/><line style="stroke:#A80036;stroke-width:1.5;" x1="237.5" x2="237.5" y1="700.1362" y2="734.105"/><text fill="#000000" font-family="sans-serif" font-size="12" lengthAdjust="spacing" textLength="97" x="135.5" y="721.2749">MPI_Gatherv(Pi)</text><rect fill="#000000" filter="url(#f1f9ew0bbm19s0)" height="6" rx="2.5" ry="2.5" style="stroke:#000000;stroke-width:1.0;" width="145" x="111.5" y="754.105"/><ellipse cx="184" cy="791.105" fill="#FFFFFF" filter="url(#f1f9ew0bbm19s0)" rx="11" ry="11" style="stroke:#000000;stroke-width:1.0;"/><ellipse cx="184" cy="791.105" fill="#000000" rx="6" ry="6" style="stroke:#7F7F7F;stroke-width:1.0;"/><line style="stroke:#A80036;stroke-width:1.5;" x1="184" x2="184" y1="50.9531" y2="70.9531"/><polygon fill="#A80036" points="180,60.9531,184,70.9531,188,60.9531,184,64.9531" style="stroke:#A80036;stroke-width:1.0;"/><line style="stroke:#A80036;stroke-width:1.5;" x1="96.5" x2="96.5" y1="235.875" y2="255.875"/><polygon fill="#A80036" points="92.5,245.875,96.5,255.875,100.5,245.875,96.5,249.875" style="stroke:#A80036;stroke-width:1.0;"/><line style="stroke:#A80036;stroke-width:1.5;" x1="96.5" x2="96.5" y1="289.8438" y2="309.8438"/><polygon fill="#A80036" points="92.5,299.8438,96.5,309.8438,100.5,299.8438,96.5,303.8438" style="stroke:#A80036;stroke-width:1.0;"/><line style="stroke:#A80036;stroke-width:1.5;" x1="96.5" x2="96.5" y1="347.3047" y2="376.5508"/><polygon fill="#A80036" points="92.5,366.5508,96.5,376.5508,100.5,366.5508,96.5,370.5508" style="stroke:#A80036;stroke-width:1.0;"/><line style="stroke:#A80036;stroke-width:1.5;" x1="96.5" x2="96.5" y1="410.5195" y2="430.5195"/><polygon fill="#A80036" points="92.5,420.5195,96.5,430.5195,100.5,420.5195,96.5,424.5195" style="stroke:#A80036;stroke-width:1.0;"/><line style="stroke:#A80036;stroke-width:1.5;" x1="271.5" x2="271.5" y1="235.875" y2="255.875"/><polygon fill="#A80036" points="267.5,245.875,271.5,255.875,275.5,245.875,271.5,249.875" style="stroke:#A80036;stroke-width:1.0;"/><line style="stroke:#A80036;stroke-width:1.5;" x1="271.5" x2="271.5" y1="289.8438" y2="309.8438"/><polygon fill="#A80036" points="267.5,299.8438,271.5,309.8438,275.5,299.8438,271.5,303.8438" style="stroke:#A80036;stroke-width:1.0;"/><line style="stroke:#A80036;stroke-width:1.5;" x1="271.5" x2="271.5" y1="347.3047" y2="376.5508"/><polygon fill="#A80036" points="267.5,366.5508,271.5,376.5508,275.5,366.5508,271.5,370.5508" style="stroke:#A80036;stroke-width:1.0;"/><line style="stroke:#A80036;stroke-width:1.5;" x1="271.5" x2="271.5" y1="410.5195" y2="430.5195"/><polygon fill="#A80036" points="267.5,420.5195,271.5,430.5195,275.5,420.5195,271.5,424.5195" style="stroke:#A80036;stroke-width:1.0;"/><line style="stroke:#A80036;stroke-width:1.5;" x1="96.5" x2="96.5" y1="181.9063" y2="201.9063"/><polygon fill="#A80036" points="92.5,191.9063,96.5,201.9063,100.5,191.9063,96.5,195.9063" style="stroke:#A80036;stroke-width:1.0;"/><line style="stroke:#A80036;stroke-width:1.5;" x1="271.5" x2="271.5" y1="181.9063" y2="201.9063"/><polygon fill="#A80036" points="267.5,191.9063,271.5,201.9063,275.5,191.9063,271.5,195.9063" style="stroke:#A80036;stroke-width:1.0;"/><line style="stroke:#A80036;stroke-width:1.5;" x1="96.5" x2="96.5" y1="464.4883" y2="484.4883"/><polygon fill="#A80036" points="92.5,474.4883,96.5,484.4883,100.5,474.4883,96.5,478.4883" style="stroke:#A80036;stroke-width:1.0;"/><line style="stroke:#A80036;stroke-width:1.5;" x1="271.5" x2="271.5" y1="464.4883" y2="484.4883"/><polygon fill="#A80036" points="267.5,474.4883,271.5,484.4883,275.5,474.4883,271.5,478.4883" style="stroke:#A80036;stroke-width:1.0;"/><line style="stroke:#A80036;stroke-width:1.5;" x1="184" x2="184" y1="490.4883" y2="510.4883"/><polygon fill="#A80036" points="180,500.4883,184,510.4883,188,500.4883,184,504.4883" style="stroke:#A80036;stroke-width:1.0;"/><line style="stroke:#A80036;stroke-width:1.5;" x1="184" x2="184" y1="155.9063" y2="175.9063"/><polygon fill="#A80036" points="180,165.9063,184,175.9063,188,165.9063,184,169.9063" style="stroke:#A80036;stroke-width:1.0;"/><line style="stroke:#A80036;stroke-width:1.5;" x1="247" x2="369" y1="576.457" y2="576.457"/><polygon fill="#A80036" points="365,367.3047,369,357.3047,373,367.3047,369,363.3047" style="stroke:#A80036;stroke-width:1.5;"/><line style="stroke:#A80036;stroke-width:1.5;" x1="369" x2="369" y1="143.9063" y2="576.457"/><line style="stroke:#A80036;stroke-width:1.5;" x1="369" x2="196" y1="143.9063" y2="143.9063"/><polygon fill="#A80036" points="206,139.9063,196,143.9063,206,147.9063,202,143.9063" style="stroke:#A80036;stroke-width:1.0;"/><line style="stroke:#A80036;stroke-width:1.5;" x1="184" x2="184" y1="544.457" y2="564.457"/><polygon fill="#A80036" points="180,554.457,184,564.457,188,554.457,184,558.457" style="stroke:#A80036;stroke-width:1.0;"/><line style="stroke:#A80036;stroke-width:1.5;" x1="184" x2="184" y1="111.9063" y2="131.9063"/><polygon fill="#A80036" points="180,121.9063,184,131.9063,188,121.9063,184,125.9063" style="stroke:#A80036;stroke-width:1.0;"/><line style="stroke:#A80036;stroke-width:1.5;" x1="184" x2="184" y1="680.1362" y2="700.1362"/><polygon fill="#A80036" points="180,690.1362,184,700.1362,188,690.1362,184,694.1362" style="stroke:#A80036;stroke-width:1.0;"/><line style="stroke:#A80036;stroke-width:1.5;" x1="184" x2="184" y1="626.1675" y2="646.1675"/><polygon fill="#A80036" points="180,636.1675,184,646.1675,188,636.1675,184,640.1675" style="stroke:#A80036;stroke-width:1.0;"/><line style="stroke:#A80036;stroke-width:1.5;" x1="184" x2="184" y1="734.105" y2="754.105"/><polygon fill="#A80036" points="180,744.105,184,754.105,188,744.105,184,748.105" style="stroke:#A80036;stroke-width:1.0;"/><line style="stroke:#A80036;stroke-width:1.5;" x1="184" x2="184" y1="588.457" y2="620.1675"/><polygon fill="#A80036" points="180,610.1675,184,620.1675,188,610.1675,184,614.1675" style="stroke:#A80036;stroke-width:1.0;"/><line style="stroke:#A80036;stroke-width:1.5;" x1="184" x2="184" y1="760.105" y2="780.105"/><polygon fill="#A80036" points="180,770.105,184,780.105,188,770.105,184,774.105" style="stroke:#A80036;stroke-width:1.0;"/><!--MD5=[d0feb5f6169667b4f4aad548236bcf64]
@startuml
'left to right direction
' Horizontal lines: - ->, <- -, <- ->'
title SCHEME 4
start
:<size:18><i><b>LOAD DATA</b></i></size>;
repeat
fork
    :rank_0/
    :MPI_Bcast(J)|
:<size:15><i><b>Value Iteration</b></i></size>;
:MPI_Igatherv(J)|
:MPI_Wait|
fork again
    :rank_N/
    :MPI_Bcast(J)|
:<size:15><i><b>Value Iteration</b></i></size>;
:MPI_Igatherv(J)|
:MPI_Wait|
end fork
:rank_0/
repeat while (eps < eps_thresh) is (No) not (Yes)
fork
:rank_#/
:MPI_Gatherv(Pi)|
end fork
stop

@enduml

@startuml
title SCHEME 4
start
:<size:18><i><b>LOAD DATA</b></i></size>;
repeat
fork
    :rank_0/
    :MPI_Bcast(J)|
:<size:15><i><b>Value Iteration</b></i></size>;
:MPI_Igatherv(J)|
:MPI_Wait|
fork again
    :rank_N/
    :MPI_Bcast(J)|
:<size:15><i><b>Value Iteration</b></i></size>;
:MPI_Igatherv(J)|
:MPI_Wait|
end fork
:rank_0/
repeat while (eps < eps_thresh) is (No) not (Yes)
fork
:rank_#/
:MPI_Gatherv(Pi)|
end fork
stop

@enduml

PlantUML version 1.2021.16(Wed Dec 08 18:25:22 CET 2021)
(GPL source distribution)
Java Runtime: OpenJDK Runtime Environment
JVM: OpenJDK 64-Bit Server VM
Default Encoding: UTF-8
Language: de
Country: DE
--></g></svg>