<?xml version="1.0" encoding="utf-8" standalone="no"?>
<!DOCTYPE svg PUBLIC "-//W3C//DTD SVG 1.1//EN"
  "http://www.w3.org/Graphics/SVG/1.1/DTD/svg11.dtd">
<svg height="345.6pt" version="1.1" viewBox="0 0 460.8 345.6" width="460.8pt" xmlns="http://www.w3.org/2000/svg" xmlns:xlink="http://www.w3.org/1999/xlink">
 <metadata>
  <rdf:RDF xmlns:cc="http://creativecommons.org/ns#" xmlns:dc="http://purl.org/dc/elements/1.1/" xmlns:rdf="http://www.w3.org/1999/02/22-rdf-syntax-ns#">
   <cc:Work>
    <dc:type rdf:resource="http://purl.org/dc/dcmitype/StillImage"/>
    <dc:date>2022-01-23T07:12:25.442965</dc:date>
    <dc:format>image/svg+xml</dc:format>
    <dc:creator>
     <cc:Agent>
      <dc:title>Matplotlib v3.4.3, https://matplotlib.org/</dc:title>
     </cc:Agent>
    </dc:creator>
   </cc:Work>
  </rdf:RDF>
 </metadata>
 <defs>
  <style type="text/css">*{stroke-linecap:butt;stroke-linejoin:round;}</style>
 </defs>
 <g id="figure_1">
  <g id="patch_1">
   <path d="M 0 345.6 
L 460.8 345.6 
L 460.8 0 
L 0 0 
z
" style="fill:#ffffff;"/>
  </g>
  <g id="axes_1">
   <g id="patch_2">
    <path d="M 57.6 307.584 
L 414.72 307.584 
L 414.72 41.472 
L 57.6 41.472 
z
" style="fill:#ffffff;"/>
   </g>
   <g id="patch_3">
    <path clip-path="url(#p6d0c17088d)" d="M 309.945124 307.584 
L 339.459174 307.584 
L 339.459174 126.518348 
L 309.945124 126.518348 
z
" style="fill:#1f77b4;"/>
   </g>
   <g id="patch_4">
    <path clip-path="url(#p6d0c17088d)" d="M 309.945124 307.584 
L 339.459174 307.584 
L 339.459174 126.82117 
L 309.945124 126.82117 
z
" style="fill:#1f77b4;"/>
   </g>
   <g id="patch_5">
    <path clip-path="url(#p6d0c17088d)" d="M 309.945124 307.584 
L 339.459174 307.584 
L 339.459174 127.686374 
L 309.945124 127.686374 
z
" style="fill:#1f77b4;"/>
   </g>
   <g id="patch_6">
    <path clip-path="url(#p6d0c17088d)" d="M 309.945124 307.584 
L 339.459174 307.584 
L 339.459174 127.643114 
L 309.945124 127.643114 
z
" style="fill:#1f77b4;"/>
   </g>
   <g id="patch_7">
    <path clip-path="url(#p6d0c17088d)" d="M 309.945124 307.584 
L 339.459174 307.584 
L 339.459174 126.107376 
L 309.945124 126.107376 
z
" style="fill:#1f77b4;"/>
   </g>
   <g id="patch_8">
    <path clip-path="url(#p6d0c17088d)" d="M 309.945124 307.584 
L 339.459174 307.584 
L 339.459174 127.015841 
L 309.945124 127.015841 
z
" style="fill:#1f77b4;"/>
   </g>
   <g id="patch_9">
    <path clip-path="url(#p6d0c17088d)" d="M 309.945124 307.584 
L 339.459174 307.584 
L 339.459174 127.708004 
L 309.945124 127.708004 
z
" style="fill:#1f77b4;"/>
   </g>
   <g id="patch_10">
    <path clip-path="url(#p6d0c17088d)" d="M 309.945124 307.584 
L 339.459174 307.584 
L 339.459174 128.075716 
L 309.945124 128.075716 
z
" style="fill:#1f77b4;"/>
   </g>
   <g id="patch_11">
    <path clip-path="url(#p6d0c17088d)" d="M 309.945124 307.584 
L 339.459174 307.584 
L 339.459174 125.977596 
L 309.945124 125.977596 
z
" style="fill:#1f77b4;"/>
   </g>
   <g id="patch_12">
    <path clip-path="url(#p6d0c17088d)" d="M 191.888926 307.584 
L 221.402975 307.584 
L 221.402975 125.653144 
L 191.888926 125.653144 
z
" style="fill:#1f77b4;"/>
   </g>
   <g id="patch_13">
    <path clip-path="url(#p6d0c17088d)" d="M 191.888926 307.584 
L 221.402975 307.584 
L 221.402975 126.75628 
L 191.888926 126.75628 
z
" style="fill:#1f77b4;"/>
   </g>
   <g id="patch_14">
    <path clip-path="url(#p6d0c17088d)" d="M 191.888926 307.584 
L 221.402975 307.584 
L 221.402975 125.977596 
L 191.888926 125.977596 
z
" style="fill:#1f77b4;"/>
   </g>
   <g id="patch_15">
    <path clip-path="url(#p6d0c17088d)" d="M 73.832727 307.584 
L 103.346777 307.584 
L 103.346777 128.638099 
L 73.832727 128.638099 
z
" style="fill:#1f77b4;"/>
   </g>
   <g id="patch_16">
    <path clip-path="url(#p6d0c17088d)" d="M 73.832727 307.584 
L 103.346777 307.584 
L 103.346777 130.887631 
L 73.832727 130.887631 
z
" style="fill:#1f77b4;"/>
   </g>
   <g id="patch_17">
    <path clip-path="url(#p6d0c17088d)" d="M 73.832727 307.584 
L 103.346777 307.584 
L 103.346777 129.416783 
L 73.832727 129.416783 
z
" style="fill:#1f77b4;"/>
   </g>
   <g id="patch_18">
    <path clip-path="url(#p6d0c17088d)" d="M 73.832727 307.584 
L 103.346777 307.584 
L 103.346777 128.940921 
L 73.832727 128.940921 
z
" style="fill:#1f77b4;"/>
   </g>
   <g id="patch_19">
    <path clip-path="url(#p6d0c17088d)" d="M 73.832727 307.584 
L 103.346777 307.584 
L 103.346777 130.303618 
L 73.832727 130.303618 
z
" style="fill:#1f77b4;"/>
   </g>
   <g id="patch_20">
    <path clip-path="url(#p6d0c17088d)" d="M 73.832727 307.584 
L 103.346777 307.584 
L 103.346777 128.87603 
L 73.832727 128.87603 
z
" style="fill:#1f77b4;"/>
   </g>
   <g id="patch_21">
    <path clip-path="url(#p6d0c17088d)" d="M 73.832727 307.584 
L 103.346777 307.584 
L 103.346777 128.8544 
L 73.832727 128.8544 
z
" style="fill:#1f77b4;"/>
   </g>
   <g id="patch_22">
    <path clip-path="url(#p6d0c17088d)" d="M 73.832727 307.584 
L 103.346777 307.584 
L 103.346777 127.902675 
L 73.832727 127.902675 
z
" style="fill:#1f77b4;"/>
   </g>
   <g id="patch_23">
    <path clip-path="url(#p6d0c17088d)" d="M 73.832727 307.584 
L 103.346777 307.584 
L 103.346777 130.346878 
L 73.832727 130.346878 
z
" style="fill:#1f77b4;"/>
   </g>
   <g id="patch_24">
    <path clip-path="url(#p6d0c17088d)" d="M 73.832727 307.584 
L 103.346777 307.584 
L 103.346777 128.205497 
L 73.832727 128.205497 
z
" style="fill:#1f77b4;"/>
   </g>
   <g id="patch_25">
    <path clip-path="url(#p6d0c17088d)" d="M 73.832727 307.584 
L 103.346777 307.584 
L 103.346777 129.589824 
L 73.832727 129.589824 
z
" style="fill:#1f77b4;"/>
   </g>
   <g id="patch_26">
    <path clip-path="url(#p6d0c17088d)" d="M 73.832727 307.584 
L 103.346777 307.584 
L 103.346777 129.654714 
L 73.832727 129.654714 
z
" style="fill:#1f77b4;"/>
   </g>
   <g id="patch_27">
    <path clip-path="url(#p6d0c17088d)" d="M 73.832727 307.584 
L 103.346777 307.584 
L 103.346777 129.287002 
L 73.832727 129.287002 
z
" style="fill:#1f77b4;"/>
   </g>
   <g id="patch_28">
    <path clip-path="url(#p6d0c17088d)" d="M 73.832727 307.584 
L 103.346777 307.584 
L 103.346777 128.81114 
L 73.832727 128.81114 
z
" style="fill:#1f77b4;"/>
   </g>
   <g id="patch_29">
    <path clip-path="url(#p6d0c17088d)" d="M 309.945124 307.584 
L 339.459174 307.584 
L 339.459174 128.421798 
L 309.945124 128.421798 
z
" style="fill:#1f77b4;"/>
   </g>
   <g id="patch_30">
    <path clip-path="url(#p6d0c17088d)" d="M 309.945124 307.584 
L 339.459174 307.584 
L 339.459174 126.79954 
L 309.945124 126.79954 
z
" style="fill:#1f77b4;"/>
   </g>
   <g id="patch_31">
    <path clip-path="url(#p6d0c17088d)" d="M 309.945124 307.584 
L 339.459174 307.584 
L 339.459174 127.383553 
L 309.945124 127.383553 
z
" style="fill:#1f77b4;"/>
   </g>
   <g id="patch_32">
    <path clip-path="url(#p6d0c17088d)" d="M 309.945124 307.584 
L 339.459174 307.584 
L 339.459174 127.448443 
L 309.945124 127.448443 
z
" style="fill:#1f77b4;"/>
   </g>
   <g id="patch_33">
    <path clip-path="url(#p6d0c17088d)" d="M 309.945124 307.584 
L 339.459174 307.584 
L 339.459174 127.297032 
L 309.945124 127.297032 
z
" style="fill:#1f77b4;"/>
   </g>
   <g id="patch_34">
    <path clip-path="url(#p6d0c17088d)" d="M 309.945124 307.584 
L 339.459174 307.584 
L 339.459174 126.713019 
L 309.945124 126.713019 
z
" style="fill:#1f77b4;"/>
   </g>
   <g id="patch_35">
    <path clip-path="url(#p6d0c17088d)" d="M 191.888926 307.584 
L 221.402975 307.584 
L 221.402975 126.431828 
L 191.888926 126.431828 
z
" style="fill:#1f77b4;"/>
   </g>
   <g id="patch_36">
    <path clip-path="url(#p6d0c17088d)" d="M 191.888926 307.584 
L 221.402975 307.584 
L 221.402975 127.924306 
L 191.888926 127.924306 
z
" style="fill:#1f77b4;"/>
   </g>
   <g id="patch_37">
    <path clip-path="url(#p6d0c17088d)" d="M 191.888926 307.584 
L 221.402975 307.584 
L 221.402975 126.366938 
L 191.888926 126.366938 
z
" style="fill:#1f77b4;"/>
   </g>
   <g id="patch_38">
    <path clip-path="url(#p6d0c17088d)" d="M 339.459174 307.584 
L 368.973223 307.584 
L 368.973223 65.91078 
L 339.459174 65.91078 
z
" style="fill:#ff7f0e;"/>
   </g>
   <g id="patch_39">
    <path clip-path="url(#p6d0c17088d)" d="M 339.459174 307.584 
L 368.973223 307.584 
L 368.973223 66.494793 
L 339.459174 66.494793 
z
" style="fill:#ff7f0e;"/>
   </g>
   <g id="patch_40">
    <path clip-path="url(#p6d0c17088d)" d="M 339.459174 307.584 
L 368.973223 307.584 
L 368.973223 65.651219 
L 339.459174 65.651219 
z
" style="fill:#ff7f0e;"/>
   </g>
   <g id="patch_41">
    <path clip-path="url(#p6d0c17088d)" d="M 339.459174 307.584 
L 368.973223 307.584 
L 368.973223 65.88915 
L 339.459174 65.88915 
z
" style="fill:#ff7f0e;"/>
   </g>
   <g id="patch_42">
    <path clip-path="url(#p6d0c17088d)" d="M 339.459174 307.584 
L 368.973223 307.584 
L 368.973223 66.581313 
L 339.459174 66.581313 
z
" style="fill:#ff7f0e;"/>
   </g>
   <g id="patch_43">
    <path clip-path="url(#p6d0c17088d)" d="M 339.459174 307.584 
L 368.973223 307.584 
L 368.973223 66.256862 
L 339.459174 66.256862 
z
" style="fill:#ff7f0e;"/>
   </g>
   <g id="patch_44">
    <path clip-path="url(#p6d0c17088d)" d="M 339.459174 307.584 
L 368.973223 307.584 
L 368.973223 67.251847 
L 339.459174 67.251847 
z
" style="fill:#ff7f0e;"/>
   </g>
   <g id="patch_45">
    <path clip-path="url(#p6d0c17088d)" d="M 339.459174 307.584 
L 368.973223 307.584 
L 368.973223 66.862505 
L 339.459174 66.862505 
z
" style="fill:#ff7f0e;"/>
   </g>
   <g id="patch_46">
    <path clip-path="url(#p6d0c17088d)" d="M 339.459174 307.584 
L 368.973223 307.584 
L 368.973223 66.127081 
L 339.459174 66.127081 
z
" style="fill:#ff7f0e;"/>
   </g>
   <g id="patch_47">
    <path clip-path="url(#p6d0c17088d)" d="M 221.402975 307.584 
L 250.917025 307.584 
L 250.917025 63.87755 
L 221.402975 63.87755 
z
" style="fill:#ff7f0e;"/>
   </g>
   <g id="patch_48">
    <path clip-path="url(#p6d0c17088d)" d="M 221.402975 307.584 
L 250.917025 307.584 
L 250.917025 63.855919 
L 221.402975 63.855919 
z
" style="fill:#ff7f0e;"/>
   </g>
   <g id="patch_49">
    <path clip-path="url(#p6d0c17088d)" d="M 221.402975 307.584 
L 250.917025 307.584 
L 250.917025 62.969085 
L 221.402975 62.969085 
z
" style="fill:#ff7f0e;"/>
   </g>
   <g id="patch_50">
    <path clip-path="url(#p6d0c17088d)" d="M 103.346777 307.584 
L 132.860826 307.584 
L 132.860826 54.922684 
L 103.346777 54.922684 
z
" style="fill:#ff7f0e;"/>
   </g>
   <g id="patch_51">
    <path clip-path="url(#p6d0c17088d)" d="M 103.346777 307.584 
L 132.860826 307.584 
L 132.860826 54.901054 
L 103.346777 54.901054 
z
" style="fill:#ff7f0e;"/>
   </g>
   <g id="patch_52">
    <path clip-path="url(#p6d0c17088d)" d="M 103.346777 307.584 
L 132.860826 307.584 
L 132.860826 56.17723 
L 103.346777 56.17723 
z
" style="fill:#ff7f0e;"/>
   </g>
   <g id="patch_53">
    <path clip-path="url(#p6d0c17088d)" d="M 103.346777 307.584 
L 132.860826 307.584 
L 132.860826 55.744628 
L 103.346777 55.744628 
z
" style="fill:#ff7f0e;"/>
   </g>
   <g id="patch_54">
    <path clip-path="url(#p6d0c17088d)" d="M 103.346777 307.584 
L 132.860826 307.584 
L 132.860826 54.576602 
L 103.346777 54.576602 
z
" style="fill:#ff7f0e;"/>
   </g>
   <g id="patch_55">
    <path clip-path="url(#p6d0c17088d)" d="M 103.346777 307.584 
L 132.860826 307.584 
L 132.860826 54.771273 
L 103.346777 54.771273 
z
" style="fill:#ff7f0e;"/>
   </g>
   <g id="patch_56">
    <path clip-path="url(#p6d0c17088d)" d="M 103.346777 307.584 
L 132.860826 307.584 
L 132.860826 54.295411 
L 103.346777 54.295411 
z
" style="fill:#ff7f0e;"/>
   </g>
   <g id="patch_57">
    <path clip-path="url(#p6d0c17088d)" d="M 103.346777 307.584 
L 132.860826 307.584 
L 132.860826 54.922684 
L 103.346777 54.922684 
z
" style="fill:#ff7f0e;"/>
   </g>
   <g id="patch_58">
    <path clip-path="url(#p6d0c17088d)" d="M 103.346777 307.584 
L 132.860826 307.584 
L 132.860826 54.879424 
L 103.346777 54.879424 
z
" style="fill:#ff7f0e;"/>
   </g>
   <g id="patch_59">
    <path clip-path="url(#p6d0c17088d)" d="M 103.346777 307.584 
L 132.860826 307.584 
L 132.860826 54.403561 
L 103.346777 54.403561 
z
" style="fill:#ff7f0e;"/>
   </g>
   <g id="patch_60">
    <path clip-path="url(#p6d0c17088d)" d="M 103.346777 307.584 
L 132.860826 307.584 
L 132.860826 54.144 
L 103.346777 54.144 
z
" style="fill:#ff7f0e;"/>
   </g>
   <g id="patch_61">
    <path clip-path="url(#p6d0c17088d)" d="M 103.346777 307.584 
L 132.860826 307.584 
L 132.860826 55.030835 
L 103.346777 55.030835 
z
" style="fill:#ff7f0e;"/>
   </g>
   <g id="patch_62">
    <path clip-path="url(#p6d0c17088d)" d="M 103.346777 307.584 
L 132.860826 307.584 
L 132.860826 55.268766 
L 103.346777 55.268766 
z
" style="fill:#ff7f0e;"/>
   </g>
   <g id="patch_63">
    <path clip-path="url(#p6d0c17088d)" d="M 103.346777 307.584 
L 132.860826 307.584 
L 132.860826 55.203875 
L 103.346777 55.203875 
z
" style="fill:#ff7f0e;"/>
   </g>
   <g id="patch_64">
    <path clip-path="url(#p6d0c17088d)" d="M 339.459174 307.584 
L 368.973223 307.584 
L 368.973223 65.91078 
L 339.459174 65.91078 
z
" style="fill:#ff7f0e;"/>
   </g>
   <g id="patch_65">
    <path clip-path="url(#p6d0c17088d)" d="M 339.459174 307.584 
L 368.973223 307.584 
L 368.973223 65.543068 
L 339.459174 65.543068 
z
" style="fill:#ff7f0e;"/>
   </g>
   <g id="patch_66">
    <path clip-path="url(#p6d0c17088d)" d="M 339.459174 307.584 
L 368.973223 307.584 
L 368.973223 67.295107 
L 339.459174 67.295107 
z
" style="fill:#ff7f0e;"/>
   </g>
   <g id="patch_67">
    <path clip-path="url(#p6d0c17088d)" d="M 339.459174 307.584 
L 368.973223 307.584 
L 368.973223 66.732724 
L 339.459174 66.732724 
z
" style="fill:#ff7f0e;"/>
   </g>
   <g id="patch_68">
    <path clip-path="url(#p6d0c17088d)" d="M 339.459174 307.584 
L 368.973223 307.584 
L 368.973223 66.408272 
L 339.459174 66.408272 
z
" style="fill:#ff7f0e;"/>
   </g>
   <g id="patch_69">
    <path clip-path="url(#p6d0c17088d)" d="M 339.459174 307.584 
L 368.973223 307.584 
L 368.973223 65.9973 
L 339.459174 65.9973 
z
" style="fill:#ff7f0e;"/>
   </g>
   <g id="patch_70">
    <path clip-path="url(#p6d0c17088d)" d="M 339.459174 307.584 
L 368.973223 307.584 
L 368.973223 65.86752 
L 339.459174 65.86752 
z
" style="fill:#ff7f0e;"/>
   </g>
   <g id="patch_71">
    <path clip-path="url(#p6d0c17088d)" d="M 221.402975 307.584 
L 250.917025 307.584 
L 250.917025 63.077235 
L 221.402975 63.077235 
z
" style="fill:#ff7f0e;"/>
   </g>
   <g id="patch_72">
    <path clip-path="url(#p6d0c17088d)" d="M 221.402975 307.584 
L 250.917025 307.584 
L 250.917025 62.666263 
L 221.402975 62.666263 
z
" style="fill:#ff7f0e;"/>
   </g>
   <g id="patch_73">
    <path clip-path="url(#p6d0c17088d)" d="M 221.402975 307.584 
L 250.917025 307.584 
L 250.917025 62.904195 
L 221.402975 62.904195 
z
" style="fill:#ff7f0e;"/>
   </g>
   <g id="patch_74">
    <path clip-path="url(#p6d0c17088d)" d="M 368.973223 307.584 
L 398.487273 307.584 
L 398.487273 126.020856 
L 368.973223 126.020856 
z
" style="fill:#2ca02c;"/>
   </g>
   <g id="patch_75">
    <path clip-path="url(#p6d0c17088d)" d="M 368.973223 307.584 
L 398.487273 307.584 
L 398.487273 127.599854 
L 368.973223 127.599854 
z
" style="fill:#2ca02c;"/>
   </g>
   <g id="patch_76">
    <path clip-path="url(#p6d0c17088d)" d="M 368.973223 307.584 
L 398.487273 307.584 
L 398.487273 125.047501 
L 368.973223 125.047501 
z
" style="fill:#2ca02c;"/>
   </g>
   <g id="patch_77">
    <path clip-path="url(#p6d0c17088d)" d="M 368.973223 307.584 
L 398.487273 307.584 
L 398.487273 126.669759 
L 368.973223 126.669759 
z
" style="fill:#2ca02c;"/>
   </g>
   <g id="patch_78">
    <path clip-path="url(#p6d0c17088d)" d="M 368.973223 307.584 
L 398.487273 307.584 
L 398.487273 125.220542 
L 368.973223 125.220542 
z
" style="fill:#2ca02c;"/>
   </g>
   <g id="patch_79">
    <path clip-path="url(#p6d0c17088d)" d="M 368.973223 307.584 
L 398.487273 307.584 
L 398.487273 126.950951 
L 368.973223 126.950951 
z
" style="fill:#2ca02c;"/>
   </g>
   <g id="patch_80">
    <path clip-path="url(#p6d0c17088d)" d="M 368.973223 307.584 
L 398.487273 307.584 
L 398.487273 126.648129 
L 368.973223 126.648129 
z
" style="fill:#2ca02c;"/>
   </g>
   <g id="patch_81">
    <path clip-path="url(#p6d0c17088d)" d="M 368.973223 307.584 
L 398.487273 307.584 
L 398.487273 127.664744 
L 368.973223 127.664744 
z
" style="fill:#2ca02c;"/>
   </g>
   <g id="patch_82">
    <path clip-path="url(#p6d0c17088d)" d="M 368.973223 307.584 
L 398.487273 307.584 
L 398.487273 126.172267 
L 368.973223 126.172267 
z
" style="fill:#2ca02c;"/>
   </g>
   <g id="patch_83">
    <path clip-path="url(#p6d0c17088d)" d="M 368.973223 307.584 
L 398.487273 307.584 
L 398.487273 126.583239 
L 368.973223 126.583239 
z
" style="fill:#2ca02c;"/>
   </g>
   <g id="patch_84">
    <path clip-path="url(#p6d0c17088d)" d="M 368.973223 307.584 
L 398.487273 307.584 
L 398.487273 127.491703 
L 368.973223 127.491703 
z
" style="fill:#2ca02c;"/>
   </g>
   <g id="patch_85">
    <path clip-path="url(#p6d0c17088d)" d="M 368.973223 307.584 
L 398.487273 307.584 
L 398.487273 125.869445 
L 368.973223 125.869445 
z
" style="fill:#2ca02c;"/>
   </g>
   <g id="patch_86">
    <path clip-path="url(#p6d0c17088d)" d="M 368.973223 307.584 
L 398.487273 307.584 
L 398.487273 126.604869 
L 368.973223 126.604869 
z
" style="fill:#2ca02c;"/>
   </g>
   <g id="patch_87">
    <path clip-path="url(#p6d0c17088d)" d="M 368.973223 307.584 
L 398.487273 307.584 
L 398.487273 128.465058 
L 368.973223 128.465058 
z
" style="fill:#2ca02c;"/>
   </g>
   <g id="patch_88">
    <path clip-path="url(#p6d0c17088d)" d="M 250.917025 307.584 
L 280.431074 307.584 
L 280.431074 126.994211 
L 250.917025 126.994211 
z
" style="fill:#2ca02c;"/>
   </g>
   <g id="patch_89">
    <path clip-path="url(#p6d0c17088d)" d="M 250.917025 307.584 
L 280.431074 307.584 
L 280.431074 127.275402 
L 250.917025 127.275402 
z
" style="fill:#2ca02c;"/>
   </g>
   <g id="patch_90">
    <path clip-path="url(#p6d0c17088d)" d="M 250.917025 307.584 
L 280.431074 307.584 
L 280.431074 126.280417 
L 250.917025 126.280417 
z
" style="fill:#2ca02c;"/>
   </g>
   <g id="patch_91">
    <path clip-path="url(#p6d0c17088d)" d="M 132.860826 307.584 
L 162.374876 307.584 
L 162.374876 126.950951 
L 132.860826 126.950951 
z
" style="fill:#2ca02c;"/>
   </g>
   <g id="patch_92">
    <path clip-path="url(#p6d0c17088d)" d="M 132.860826 307.584 
L 162.374876 307.584 
L 162.374876 128.89766 
L 132.860826 128.89766 
z
" style="fill:#2ca02c;"/>
   </g>
   <g id="patch_93">
    <path clip-path="url(#p6d0c17088d)" d="M 132.860826 307.584 
L 162.374876 307.584 
L 162.374876 127.556594 
L 132.860826 127.556594 
z
" style="fill:#2ca02c;"/>
   </g>
   <g id="patch_94">
    <path clip-path="url(#p6d0c17088d)" d="M 132.860826 307.584 
L 162.374876 307.584 
L 162.374876 128.140607 
L 132.860826 128.140607 
z
" style="fill:#2ca02c;"/>
   </g>
   <g id="patch_95">
    <path clip-path="url(#p6d0c17088d)" d="M 132.860826 307.584 
L 162.374876 307.584 
L 162.374876 127.037471 
L 132.860826 127.037471 
z
" style="fill:#2ca02c;"/>
   </g>
   <g id="patch_96">
    <path clip-path="url(#p6d0c17088d)" d="M 132.860826 307.584 
L 162.374876 307.584 
L 162.374876 127.232142 
L 132.860826 127.232142 
z
" style="fill:#2ca02c;"/>
   </g>
   <g id="patch_97">
    <path clip-path="url(#p6d0c17088d)" d="M 132.860826 307.584 
L 162.374876 307.584 
L 162.374876 127.383553 
L 132.860826 127.383553 
z
" style="fill:#2ca02c;"/>
   </g>
   <g id="patch_98">
    <path clip-path="url(#p6d0c17088d)" d="M 132.860826 307.584 
L 162.374876 307.584 
L 162.374876 126.972581 
L 132.860826 126.972581 
z
" style="fill:#2ca02c;"/>
   </g>
   <g id="patch_99">
    <path clip-path="url(#p6d0c17088d)" d="M 132.860826 307.584 
L 162.374876 307.584 
L 162.374876 127.102361 
L 132.860826 127.102361 
z
" style="fill:#2ca02c;"/>
   </g>
   <g id="patch_100">
    <path clip-path="url(#p6d0c17088d)" d="M 132.860826 307.584 
L 162.374876 307.584 
L 162.374876 127.708004 
L 132.860826 127.708004 
z
" style="fill:#2ca02c;"/>
   </g>
   <g id="patch_101">
    <path clip-path="url(#p6d0c17088d)" d="M 132.860826 307.584 
L 162.374876 307.584 
L 162.374876 127.167252 
L 132.860826 127.167252 
z
" style="fill:#2ca02c;"/>
   </g>
   <g id="patch_102">
    <path clip-path="url(#p6d0c17088d)" d="M 132.860826 307.584 
L 162.374876 307.584 
L 162.374876 128.075716 
L 132.860826 128.075716 
z
" style="fill:#2ca02c;"/>
   </g>
   <g id="patch_103">
    <path clip-path="url(#p6d0c17088d)" d="M 132.860826 307.584 
L 162.374876 307.584 
L 162.374876 126.950951 
L 132.860826 126.950951 
z
" style="fill:#2ca02c;"/>
   </g>
   <g id="patch_104">
    <path clip-path="url(#p6d0c17088d)" d="M 132.860826 307.584 
L 162.374876 307.584 
L 162.374876 128.313648 
L 132.860826 128.313648 
z
" style="fill:#2ca02c;"/>
   </g>
   <g id="patch_105">
    <path clip-path="url(#p6d0c17088d)" d="M 368.973223 307.584 
L 398.487273 307.584 
L 398.487273 126.258787 
L 368.973223 126.258787 
z
" style="fill:#2ca02c;"/>
   </g>
   <g id="patch_106">
    <path clip-path="url(#p6d0c17088d)" d="M 368.973223 307.584 
L 398.487273 307.584 
L 398.487273 126.453458 
L 368.973223 126.453458 
z
" style="fill:#2ca02c;"/>
   </g>
   <g id="patch_107">
    <path clip-path="url(#p6d0c17088d)" d="M 368.973223 307.584 
L 398.487273 307.584 
L 398.487273 127.837785 
L 368.973223 127.837785 
z
" style="fill:#2ca02c;"/>
   </g>
   <g id="patch_108">
    <path clip-path="url(#p6d0c17088d)" d="M 368.973223 307.584 
L 398.487273 307.584 
L 398.487273 126.950951 
L 368.973223 126.950951 
z
" style="fill:#2ca02c;"/>
   </g>
   <g id="patch_109">
    <path clip-path="url(#p6d0c17088d)" d="M 368.973223 307.584 
L 398.487273 307.584 
L 398.487273 125.458473 
L 368.973223 125.458473 
z
" style="fill:#2ca02c;"/>
   </g>
   <g id="patch_110">
    <path clip-path="url(#p6d0c17088d)" d="M 368.973223 307.584 
L 398.487273 307.584 
L 398.487273 128.227127 
L 368.973223 128.227127 
z
" style="fill:#2ca02c;"/>
   </g>
   <g id="patch_111">
    <path clip-path="url(#p6d0c17088d)" d="M 368.973223 307.584 
L 398.487273 307.584 
L 398.487273 126.193897 
L 368.973223 126.193897 
z
" style="fill:#2ca02c;"/>
   </g>
   <g id="patch_112">
    <path clip-path="url(#p6d0c17088d)" d="M 368.973223 307.584 
L 398.487273 307.584 
L 398.487273 126.518348 
L 368.973223 126.518348 
z
" style="fill:#2ca02c;"/>
   </g>
   <g id="patch_113">
    <path clip-path="url(#p6d0c17088d)" d="M 368.973223 307.584 
L 398.487273 307.584 
L 398.487273 125.891075 
L 368.973223 125.891075 
z
" style="fill:#2ca02c;"/>
   </g>
   <g id="patch_114">
    <path clip-path="url(#p6d0c17088d)" d="M 368.973223 307.584 
L 398.487273 307.584 
L 398.487273 124.96098 
L 368.973223 124.96098 
z
" style="fill:#2ca02c;"/>
   </g>
   <g id="patch_115">
    <path clip-path="url(#p6d0c17088d)" d="M 368.973223 307.584 
L 398.487273 307.584 
L 398.487273 128.508319 
L 368.973223 128.508319 
z
" style="fill:#2ca02c;"/>
   </g>
   <g id="patch_116">
    <path clip-path="url(#p6d0c17088d)" d="M 368.973223 307.584 
L 398.487273 307.584 
L 398.487273 126.734649 
L 368.973223 126.734649 
z
" style="fill:#2ca02c;"/>
   </g>
   <g id="patch_117">
    <path clip-path="url(#p6d0c17088d)" d="M 368.973223 307.584 
L 398.487273 307.584 
L 398.487273 126.77791 
L 368.973223 126.77791 
z
" style="fill:#2ca02c;"/>
   </g>
   <g id="patch_118">
    <path clip-path="url(#p6d0c17088d)" d="M 368.973223 307.584 
L 398.487273 307.584 
L 398.487273 128.486688 
L 368.973223 128.486688 
z
" style="fill:#2ca02c;"/>
   </g>
   <g id="patch_119">
    <path clip-path="url(#p6d0c17088d)" d="M 368.973223 307.584 
L 398.487273 307.584 
L 398.487273 128.140607 
L 368.973223 128.140607 
z
" style="fill:#2ca02c;"/>
   </g>
   <g id="patch_120">
    <path clip-path="url(#p6d0c17088d)" d="M 368.973223 307.584 
L 398.487273 307.584 
L 398.487273 125.955966 
L 368.973223 125.955966 
z
" style="fill:#2ca02c;"/>
   </g>
   <g id="patch_121">
    <path clip-path="url(#p6d0c17088d)" d="M 368.973223 307.584 
L 398.487273 307.584 
L 398.487273 128.313648 
L 368.973223 128.313648 
z
" style="fill:#2ca02c;"/>
   </g>
   <g id="patch_122">
    <path clip-path="url(#p6d0c17088d)" d="M 368.973223 307.584 
L 398.487273 307.584 
L 398.487273 125.242172 
L 368.973223 125.242172 
z
" style="fill:#2ca02c;"/>
   </g>
   <g id="patch_123">
    <path clip-path="url(#p6d0c17088d)" d="M 368.973223 307.584 
L 398.487273 307.584 
L 398.487273 128.292017 
L 368.973223 128.292017 
z
" style="fill:#2ca02c;"/>
   </g>
   <g id="patch_124">
    <path clip-path="url(#p6d0c17088d)" d="M 368.973223 307.584 
L 398.487273 307.584 
L 398.487273 126.734649 
L 368.973223 126.734649 
z
" style="fill:#2ca02c;"/>
   </g>
   <g id="patch_125">
    <path clip-path="url(#p6d0c17088d)" d="M 368.973223 307.584 
L 398.487273 307.584 
L 398.487273 127.383553 
L 368.973223 127.383553 
z
" style="fill:#2ca02c;"/>
   </g>
   <g id="patch_126">
    <path clip-path="url(#p6d0c17088d)" d="M 368.973223 307.584 
L 398.487273 307.584 
L 398.487273 125.198912 
L 368.973223 125.198912 
z
" style="fill:#2ca02c;"/>
   </g>
   <g id="patch_127">
    <path clip-path="url(#p6d0c17088d)" d="M 368.973223 307.584 
L 398.487273 307.584 
L 398.487273 127.816155 
L 368.973223 127.816155 
z
" style="fill:#2ca02c;"/>
   </g>
   <g id="patch_128">
    <path clip-path="url(#p6d0c17088d)" d="M 368.973223 307.584 
L 398.487273 307.584 
L 398.487273 125.934335 
L 368.973223 125.934335 
z
" style="fill:#2ca02c;"/>
   </g>
   <g id="patch_129">
    <path clip-path="url(#p6d0c17088d)" d="M 368.973223 307.584 
L 398.487273 307.584 
L 398.487273 126.77791 
L 368.973223 126.77791 
z
" style="fill:#2ca02c;"/>
   </g>
   <g id="patch_130">
    <path clip-path="url(#p6d0c17088d)" d="M 368.973223 307.584 
L 398.487273 307.584 
L 398.487273 126.431828 
L 368.973223 126.431828 
z
" style="fill:#2ca02c;"/>
   </g>
   <g id="patch_131">
    <path clip-path="url(#p6d0c17088d)" d="M 368.973223 307.584 
L 398.487273 307.584 
L 398.487273 126.172267 
L 368.973223 126.172267 
z
" style="fill:#2ca02c;"/>
   </g>
   <g id="patch_132">
    <path clip-path="url(#p6d0c17088d)" d="M 368.973223 307.584 
L 398.487273 307.584 
L 398.487273 127.405183 
L 368.973223 127.405183 
z
" style="fill:#2ca02c;"/>
   </g>
   <g id="patch_133">
    <path clip-path="url(#p6d0c17088d)" d="M 368.973223 307.584 
L 398.487273 307.584 
L 398.487273 126.064116 
L 368.973223 126.064116 
z
" style="fill:#2ca02c;"/>
   </g>
   <g id="patch_134">
    <path clip-path="url(#p6d0c17088d)" d="M 368.973223 307.584 
L 398.487273 307.584 
L 398.487273 125.436843 
L 368.973223 125.436843 
z
" style="fill:#2ca02c;"/>
   </g>
   <g id="patch_135">
    <path clip-path="url(#p6d0c17088d)" d="M 368.973223 307.584 
L 398.487273 307.584 
L 398.487273 128.573209 
L 368.973223 128.573209 
z
" style="fill:#2ca02c;"/>
   </g>
   <g id="patch_136">
    <path clip-path="url(#p6d0c17088d)" d="M 368.973223 307.584 
L 398.487273 307.584 
L 398.487273 127.534964 
L 368.973223 127.534964 
z
" style="fill:#2ca02c;"/>
   </g>
   <g id="patch_137">
    <path clip-path="url(#p6d0c17088d)" d="M 368.973223 307.584 
L 398.487273 307.584 
L 398.487273 127.556594 
L 368.973223 127.556594 
z
" style="fill:#2ca02c;"/>
   </g>
   <g id="patch_138">
    <path clip-path="url(#p6d0c17088d)" d="M 368.973223 307.584 
L 398.487273 307.584 
L 398.487273 125.847815 
L 368.973223 125.847815 
z
" style="fill:#2ca02c;"/>
   </g>
   <g id="patch_139">
    <path clip-path="url(#p6d0c17088d)" d="M 250.917025 307.584 
L 280.431074 307.584 
L 280.431074 127.902675 
L 250.917025 127.902675 
z
" style="fill:#2ca02c;"/>
   </g>
   <g id="patch_140">
    <path clip-path="url(#p6d0c17088d)" d="M 250.917025 307.584 
L 280.431074 307.584 
L 280.431074 126.085746 
L 250.917025 126.085746 
z
" style="fill:#2ca02c;"/>
   </g>
   <g id="patch_141">
    <path clip-path="url(#p6d0c17088d)" d="M 250.917025 307.584 
L 280.431074 307.584 
L 280.431074 125.977596 
L 250.917025 125.977596 
z
" style="fill:#2ca02c;"/>
   </g>
   <g id="matplotlib.axis_1">
    <g id="xtick_1">
     <g id="line2d_1">
      <defs>
       <path d="M 0 0 
L 0 3.5 
" id="m96f7a14da0" style="stroke:#000000;stroke-width:0.8;"/>
      </defs>
      <g>
       <use style="stroke:#000000;stroke-width:0.8;" x="59.075702" xlink:href="#m96f7a14da0" y="307.584"/>
      </g>
     </g>
     <g id="text_1">
      <!-- 1.5 -->
      <g transform="translate(51.12414 322.182437)scale(0.1 -0.1)">
       <defs>
        <path d="M 794 531 
L 1825 531 
L 1825 4091 
L 703 3866 
L 703 4441 
L 1819 4666 
L 2450 4666 
L 2450 531 
L 3481 531 
L 3481 0 
L 794 0 
L 794 531 
z
" id="DejaVuSans-31" transform="scale(0.015625)"/>
        <path d="M 684 794 
L 1344 794 
L 1344 0 
L 684 0 
L 684 794 
z
" id="DejaVuSans-2e" transform="scale(0.015625)"/>
        <path d="M 691 4666 
L 3169 4666 
L 3169 4134 
L 1269 4134 
L 1269 2991 
Q 1406 3038 1543 3061 
Q 1681 3084 1819 3084 
Q 2600 3084 3056 2656 
Q 3513 2228 3513 1497 
Q 3513 744 3044 326 
Q 2575 -91 1722 -91 
Q 1428 -91 1123 -41 
Q 819 9 494 109 
L 494 744 
Q 775 591 1075 516 
Q 1375 441 1709 441 
Q 2250 441 2565 725 
Q 2881 1009 2881 1497 
Q 2881 1984 2565 2268 
Q 2250 2553 1709 2553 
Q 1456 2553 1204 2497 
Q 953 2441 691 2322 
L 691 4666 
z
" id="DejaVuSans-35" transform="scale(0.015625)"/>
       </defs>
       <use xlink:href="#DejaVuSans-31"/>
       <use x="63.623047" xlink:href="#DejaVuSans-2e"/>
       <use x="95.410156" xlink:href="#DejaVuSans-35"/>
      </g>
     </g>
    </g>
    <g id="xtick_2">
     <g id="line2d_2">
      <g>
       <use style="stroke:#000000;stroke-width:0.8;" x="118.103802" xlink:href="#m96f7a14da0" y="307.584"/>
      </g>
     </g>
     <g id="text_2">
      <!-- 2.0 -->
      <g transform="translate(110.152239 322.182437)scale(0.1 -0.1)">
       <defs>
        <path d="M 1228 531 
L 3431 531 
L 3431 0 
L 469 0 
L 469 531 
Q 828 903 1448 1529 
Q 2069 2156 2228 2338 
Q 2531 2678 2651 2914 
Q 2772 3150 2772 3378 
Q 2772 3750 2511 3984 
Q 2250 4219 1831 4219 
Q 1534 4219 1204 4116 
Q 875 4013 500 3803 
L 500 4441 
Q 881 4594 1212 4672 
Q 1544 4750 1819 4750 
Q 2544 4750 2975 4387 
Q 3406 4025 3406 3419 
Q 3406 3131 3298 2873 
Q 3191 2616 2906 2266 
Q 2828 2175 2409 1742 
Q 1991 1309 1228 531 
z
" id="DejaVuSans-32" transform="scale(0.015625)"/>
        <path d="M 2034 4250 
Q 1547 4250 1301 3770 
Q 1056 3291 1056 2328 
Q 1056 1369 1301 889 
Q 1547 409 2034 409 
Q 2525 409 2770 889 
Q 3016 1369 3016 2328 
Q 3016 3291 2770 3770 
Q 2525 4250 2034 4250 
z
M 2034 4750 
Q 2819 4750 3233 4129 
Q 3647 3509 3647 2328 
Q 3647 1150 3233 529 
Q 2819 -91 2034 -91 
Q 1250 -91 836 529 
Q 422 1150 422 2328 
Q 422 3509 836 4129 
Q 1250 4750 2034 4750 
z
" id="DejaVuSans-30" transform="scale(0.015625)"/>
       </defs>
       <use xlink:href="#DejaVuSans-32"/>
       <use x="63.623047" xlink:href="#DejaVuSans-2e"/>
       <use x="95.410156" xlink:href="#DejaVuSans-30"/>
      </g>
     </g>
    </g>
    <g id="xtick_3">
     <g id="line2d_3">
      <g>
       <use style="stroke:#000000;stroke-width:0.8;" x="177.131901" xlink:href="#m96f7a14da0" y="307.584"/>
      </g>
     </g>
     <g id="text_3">
      <!-- 2.5 -->
      <g transform="translate(169.180338 322.182437)scale(0.1 -0.1)">
       <use xlink:href="#DejaVuSans-32"/>
       <use x="63.623047" xlink:href="#DejaVuSans-2e"/>
       <use x="95.410156" xlink:href="#DejaVuSans-35"/>
      </g>
     </g>
    </g>
    <g id="xtick_4">
     <g id="line2d_4">
      <g>
       <use style="stroke:#000000;stroke-width:0.8;" x="236.16" xlink:href="#m96f7a14da0" y="307.584"/>
      </g>
     </g>
     <g id="text_4">
      <!-- 3.0 -->
      <g transform="translate(228.208438 322.182437)scale(0.1 -0.1)">
       <defs>
        <path d="M 2597 2516 
Q 3050 2419 3304 2112 
Q 3559 1806 3559 1356 
Q 3559 666 3084 287 
Q 2609 -91 1734 -91 
Q 1441 -91 1130 -33 
Q 819 25 488 141 
L 488 750 
Q 750 597 1062 519 
Q 1375 441 1716 441 
Q 2309 441 2620 675 
Q 2931 909 2931 1356 
Q 2931 1769 2642 2001 
Q 2353 2234 1838 2234 
L 1294 2234 
L 1294 2753 
L 1863 2753 
Q 2328 2753 2575 2939 
Q 2822 3125 2822 3475 
Q 2822 3834 2567 4026 
Q 2313 4219 1838 4219 
Q 1578 4219 1281 4162 
Q 984 4106 628 3988 
L 628 4550 
Q 988 4650 1302 4700 
Q 1616 4750 1894 4750 
Q 2613 4750 3031 4423 
Q 3450 4097 3450 3541 
Q 3450 3153 3228 2886 
Q 3006 2619 2597 2516 
z
" id="DejaVuSans-33" transform="scale(0.015625)"/>
       </defs>
       <use xlink:href="#DejaVuSans-33"/>
       <use x="63.623047" xlink:href="#DejaVuSans-2e"/>
       <use x="95.410156" xlink:href="#DejaVuSans-30"/>
      </g>
     </g>
    </g>
    <g id="xtick_5">
     <g id="line2d_5">
      <g>
       <use style="stroke:#000000;stroke-width:0.8;" x="295.188099" xlink:href="#m96f7a14da0" y="307.584"/>
      </g>
     </g>
     <g id="text_5">
      <!-- 3.5 -->
      <g transform="translate(287.236537 322.182437)scale(0.1 -0.1)">
       <use xlink:href="#DejaVuSans-33"/>
       <use x="63.623047" xlink:href="#DejaVuSans-2e"/>
       <use x="95.410156" xlink:href="#DejaVuSans-35"/>
      </g>
     </g>
    </g>
    <g id="xtick_6">
     <g id="line2d_6">
      <g>
       <use style="stroke:#000000;stroke-width:0.8;" x="354.216198" xlink:href="#m96f7a14da0" y="307.584"/>
      </g>
     </g>
     <g id="text_6">
      <!-- 4.0 -->
      <g transform="translate(346.264636 322.182437)scale(0.1 -0.1)">
       <defs>
        <path d="M 2419 4116 
L 825 1625 
L 2419 1625 
L 2419 4116 
z
M 2253 4666 
L 3047 4666 
L 3047 1625 
L 3713 1625 
L 3713 1100 
L 3047 1100 
L 3047 0 
L 2419 0 
L 2419 1100 
L 313 1100 
L 313 1709 
L 2253 4666 
z
" id="DejaVuSans-34" transform="scale(0.015625)"/>
       </defs>
       <use xlink:href="#DejaVuSans-34"/>
       <use x="63.623047" xlink:href="#DejaVuSans-2e"/>
       <use x="95.410156" xlink:href="#DejaVuSans-30"/>
      </g>
     </g>
    </g>
    <g id="xtick_7">
     <g id="line2d_7">
      <g>
       <use style="stroke:#000000;stroke-width:0.8;" x="413.244298" xlink:href="#m96f7a14da0" y="307.584"/>
      </g>
     </g>
     <g id="text_7">
      <!-- 4.5 -->
      <g transform="translate(405.292735 322.182437)scale(0.1 -0.1)">
       <use xlink:href="#DejaVuSans-34"/>
       <use x="63.623047" xlink:href="#DejaVuSans-2e"/>
       <use x="95.410156" xlink:href="#DejaVuSans-35"/>
      </g>
     </g>
    </g>
    <g id="text_8">
     <!-- world_size -->
     <g transform="translate(210.198281 335.860562)scale(0.1 -0.1)">
      <defs>
       <path d="M 269 3500 
L 844 3500 
L 1563 769 
L 2278 3500 
L 2956 3500 
L 3675 769 
L 4391 3500 
L 4966 3500 
L 4050 0 
L 3372 0 
L 2619 2869 
L 1863 0 
L 1184 0 
L 269 3500 
z
" id="DejaVuSans-77" transform="scale(0.015625)"/>
       <path d="M 1959 3097 
Q 1497 3097 1228 2736 
Q 959 2375 959 1747 
Q 959 1119 1226 758 
Q 1494 397 1959 397 
Q 2419 397 2687 759 
Q 2956 1122 2956 1747 
Q 2956 2369 2687 2733 
Q 2419 3097 1959 3097 
z
M 1959 3584 
Q 2709 3584 3137 3096 
Q 3566 2609 3566 1747 
Q 3566 888 3137 398 
Q 2709 -91 1959 -91 
Q 1206 -91 779 398 
Q 353 888 353 1747 
Q 353 2609 779 3096 
Q 1206 3584 1959 3584 
z
" id="DejaVuSans-6f" transform="scale(0.015625)"/>
       <path d="M 2631 2963 
Q 2534 3019 2420 3045 
Q 2306 3072 2169 3072 
Q 1681 3072 1420 2755 
Q 1159 2438 1159 1844 
L 1159 0 
L 581 0 
L 581 3500 
L 1159 3500 
L 1159 2956 
Q 1341 3275 1631 3429 
Q 1922 3584 2338 3584 
Q 2397 3584 2469 3576 
Q 2541 3569 2628 3553 
L 2631 2963 
z
" id="DejaVuSans-72" transform="scale(0.015625)"/>
       <path d="M 603 4863 
L 1178 4863 
L 1178 0 
L 603 0 
L 603 4863 
z
" id="DejaVuSans-6c" transform="scale(0.015625)"/>
       <path d="M 2906 2969 
L 2906 4863 
L 3481 4863 
L 3481 0 
L 2906 0 
L 2906 525 
Q 2725 213 2448 61 
Q 2172 -91 1784 -91 
Q 1150 -91 751 415 
Q 353 922 353 1747 
Q 353 2572 751 3078 
Q 1150 3584 1784 3584 
Q 2172 3584 2448 3432 
Q 2725 3281 2906 2969 
z
M 947 1747 
Q 947 1113 1208 752 
Q 1469 391 1925 391 
Q 2381 391 2643 752 
Q 2906 1113 2906 1747 
Q 2906 2381 2643 2742 
Q 2381 3103 1925 3103 
Q 1469 3103 1208 2742 
Q 947 2381 947 1747 
z
" id="DejaVuSans-64" transform="scale(0.015625)"/>
       <path d="M 3263 -1063 
L 3263 -1509 
L -63 -1509 
L -63 -1063 
L 3263 -1063 
z
" id="DejaVuSans-5f" transform="scale(0.015625)"/>
       <path d="M 2834 3397 
L 2834 2853 
Q 2591 2978 2328 3040 
Q 2066 3103 1784 3103 
Q 1356 3103 1142 2972 
Q 928 2841 928 2578 
Q 928 2378 1081 2264 
Q 1234 2150 1697 2047 
L 1894 2003 
Q 2506 1872 2764 1633 
Q 3022 1394 3022 966 
Q 3022 478 2636 193 
Q 2250 -91 1575 -91 
Q 1294 -91 989 -36 
Q 684 19 347 128 
L 347 722 
Q 666 556 975 473 
Q 1284 391 1588 391 
Q 1994 391 2212 530 
Q 2431 669 2431 922 
Q 2431 1156 2273 1281 
Q 2116 1406 1581 1522 
L 1381 1569 
Q 847 1681 609 1914 
Q 372 2147 372 2553 
Q 372 3047 722 3315 
Q 1072 3584 1716 3584 
Q 2034 3584 2315 3537 
Q 2597 3491 2834 3397 
z
" id="DejaVuSans-73" transform="scale(0.015625)"/>
       <path d="M 603 3500 
L 1178 3500 
L 1178 0 
L 603 0 
L 603 3500 
z
M 603 4863 
L 1178 4863 
L 1178 4134 
L 603 4134 
L 603 4863 
z
" id="DejaVuSans-69" transform="scale(0.015625)"/>
       <path d="M 353 3500 
L 3084 3500 
L 3084 2975 
L 922 459 
L 3084 459 
L 3084 0 
L 275 0 
L 275 525 
L 2438 3041 
L 353 3041 
L 353 3500 
z
" id="DejaVuSans-7a" transform="scale(0.015625)"/>
       <path d="M 3597 1894 
L 3597 1613 
L 953 1613 
Q 991 1019 1311 708 
Q 1631 397 2203 397 
Q 2534 397 2845 478 
Q 3156 559 3463 722 
L 3463 178 
Q 3153 47 2828 -22 
Q 2503 -91 2169 -91 
Q 1331 -91 842 396 
Q 353 884 353 1716 
Q 353 2575 817 3079 
Q 1281 3584 2069 3584 
Q 2775 3584 3186 3129 
Q 3597 2675 3597 1894 
z
M 3022 2063 
Q 3016 2534 2758 2815 
Q 2500 3097 2075 3097 
Q 1594 3097 1305 2825 
Q 1016 2553 972 2059 
L 3022 2063 
z
" id="DejaVuSans-65" transform="scale(0.015625)"/>
      </defs>
      <use xlink:href="#DejaVuSans-77"/>
      <use x="81.787109" xlink:href="#DejaVuSans-6f"/>
      <use x="142.96875" xlink:href="#DejaVuSans-72"/>
      <use x="184.082031" xlink:href="#DejaVuSans-6c"/>
      <use x="211.865234" xlink:href="#DejaVuSans-64"/>
      <use x="275.341797" xlink:href="#DejaVuSans-5f"/>
      <use x="325.341797" xlink:href="#DejaVuSans-73"/>
      <use x="377.441406" xlink:href="#DejaVuSans-69"/>
      <use x="405.224609" xlink:href="#DejaVuSans-7a"/>
      <use x="457.714844" xlink:href="#DejaVuSans-65"/>
     </g>
    </g>
   </g>
   <g id="matplotlib.axis_2">
    <g id="ytick_1">
     <g id="line2d_8">
      <defs>
       <path d="M 0 0 
L -3.5 0 
" id="m10905e5ef4" style="stroke:#000000;stroke-width:0.8;"/>
      </defs>
      <g>
       <use style="stroke:#000000;stroke-width:0.8;" x="57.6" xlink:href="#m10905e5ef4" y="307.584"/>
      </g>
     </g>
     <g id="text_9">
      <!-- 0 -->
      <g transform="translate(44.2375 311.383219)scale(0.1 -0.1)">
       <use xlink:href="#DejaVuSans-30"/>
      </g>
     </g>
    </g>
    <g id="ytick_2">
     <g id="line2d_9">
      <g>
       <use style="stroke:#000000;stroke-width:0.8;" x="57.6" xlink:href="#m10905e5ef4" y="253.508725"/>
      </g>
     </g>
     <g id="text_10">
      <!-- 10000 -->
      <g transform="translate(18.7875 257.307944)scale(0.1 -0.1)">
       <use xlink:href="#DejaVuSans-31"/>
       <use x="63.623047" xlink:href="#DejaVuSans-30"/>
       <use x="127.246094" xlink:href="#DejaVuSans-30"/>
       <use x="190.869141" xlink:href="#DejaVuSans-30"/>
       <use x="254.492188" xlink:href="#DejaVuSans-30"/>
      </g>
     </g>
    </g>
    <g id="ytick_3">
     <g id="line2d_10">
      <g>
       <use style="stroke:#000000;stroke-width:0.8;" x="57.6" xlink:href="#m10905e5ef4" y="199.43345"/>
      </g>
     </g>
     <g id="text_11">
      <!-- 20000 -->
      <g transform="translate(18.7875 203.232668)scale(0.1 -0.1)">
       <use xlink:href="#DejaVuSans-32"/>
       <use x="63.623047" xlink:href="#DejaVuSans-30"/>
       <use x="127.246094" xlink:href="#DejaVuSans-30"/>
       <use x="190.869141" xlink:href="#DejaVuSans-30"/>
       <use x="254.492188" xlink:href="#DejaVuSans-30"/>
      </g>
     </g>
    </g>
    <g id="ytick_4">
     <g id="line2d_11">
      <g>
       <use style="stroke:#000000;stroke-width:0.8;" x="57.6" xlink:href="#m10905e5ef4" y="145.358174"/>
      </g>
     </g>
     <g id="text_12">
      <!-- 30000 -->
      <g transform="translate(18.7875 149.157393)scale(0.1 -0.1)">
       <use xlink:href="#DejaVuSans-33"/>
       <use x="63.623047" xlink:href="#DejaVuSans-30"/>
       <use x="127.246094" xlink:href="#DejaVuSans-30"/>
       <use x="190.869141" xlink:href="#DejaVuSans-30"/>
       <use x="254.492188" xlink:href="#DejaVuSans-30"/>
      </g>
     </g>
    </g>
    <g id="ytick_5">
     <g id="line2d_12">
      <g>
       <use style="stroke:#000000;stroke-width:0.8;" x="57.6" xlink:href="#m10905e5ef4" y="91.282899"/>
      </g>
     </g>
     <g id="text_13">
      <!-- 40000 -->
      <g transform="translate(18.7875 95.082118)scale(0.1 -0.1)">
       <use xlink:href="#DejaVuSans-34"/>
       <use x="63.623047" xlink:href="#DejaVuSans-30"/>
       <use x="127.246094" xlink:href="#DejaVuSans-30"/>
       <use x="190.869141" xlink:href="#DejaVuSans-30"/>
       <use x="254.492188" xlink:href="#DejaVuSans-30"/>
      </g>
     </g>
    </g>
    <g id="text_14">
     <!-- rss_max_rank0_kb -->
     <g transform="translate(12.429687 220.620969)rotate(-90)scale(0.1 -0.1)">
      <defs>
       <path d="M 3328 2828 
Q 3544 3216 3844 3400 
Q 4144 3584 4550 3584 
Q 5097 3584 5394 3201 
Q 5691 2819 5691 2113 
L 5691 0 
L 5113 0 
L 5113 2094 
Q 5113 2597 4934 2840 
Q 4756 3084 4391 3084 
Q 3944 3084 3684 2787 
Q 3425 2491 3425 1978 
L 3425 0 
L 2847 0 
L 2847 2094 
Q 2847 2600 2669 2842 
Q 2491 3084 2119 3084 
Q 1678 3084 1418 2786 
Q 1159 2488 1159 1978 
L 1159 0 
L 581 0 
L 581 3500 
L 1159 3500 
L 1159 2956 
Q 1356 3278 1631 3431 
Q 1906 3584 2284 3584 
Q 2666 3584 2933 3390 
Q 3200 3197 3328 2828 
z
" id="DejaVuSans-6d" transform="scale(0.015625)"/>
       <path d="M 2194 1759 
Q 1497 1759 1228 1600 
Q 959 1441 959 1056 
Q 959 750 1161 570 
Q 1363 391 1709 391 
Q 2188 391 2477 730 
Q 2766 1069 2766 1631 
L 2766 1759 
L 2194 1759 
z
M 3341 1997 
L 3341 0 
L 2766 0 
L 2766 531 
Q 2569 213 2275 61 
Q 1981 -91 1556 -91 
Q 1019 -91 701 211 
Q 384 513 384 1019 
Q 384 1609 779 1909 
Q 1175 2209 1959 2209 
L 2766 2209 
L 2766 2266 
Q 2766 2663 2505 2880 
Q 2244 3097 1772 3097 
Q 1472 3097 1187 3025 
Q 903 2953 641 2809 
L 641 3341 
Q 956 3463 1253 3523 
Q 1550 3584 1831 3584 
Q 2591 3584 2966 3190 
Q 3341 2797 3341 1997 
z
" id="DejaVuSans-61" transform="scale(0.015625)"/>
       <path d="M 3513 3500 
L 2247 1797 
L 3578 0 
L 2900 0 
L 1881 1375 
L 863 0 
L 184 0 
L 1544 1831 
L 300 3500 
L 978 3500 
L 1906 2253 
L 2834 3500 
L 3513 3500 
z
" id="DejaVuSans-78" transform="scale(0.015625)"/>
       <path d="M 3513 2113 
L 3513 0 
L 2938 0 
L 2938 2094 
Q 2938 2591 2744 2837 
Q 2550 3084 2163 3084 
Q 1697 3084 1428 2787 
Q 1159 2491 1159 1978 
L 1159 0 
L 581 0 
L 581 3500 
L 1159 3500 
L 1159 2956 
Q 1366 3272 1645 3428 
Q 1925 3584 2291 3584 
Q 2894 3584 3203 3211 
Q 3513 2838 3513 2113 
z
" id="DejaVuSans-6e" transform="scale(0.015625)"/>
       <path d="M 581 4863 
L 1159 4863 
L 1159 1991 
L 2875 3500 
L 3609 3500 
L 1753 1863 
L 3688 0 
L 2938 0 
L 1159 1709 
L 1159 0 
L 581 0 
L 581 4863 
z
" id="DejaVuSans-6b" transform="scale(0.015625)"/>
       <path d="M 3116 1747 
Q 3116 2381 2855 2742 
Q 2594 3103 2138 3103 
Q 1681 3103 1420 2742 
Q 1159 2381 1159 1747 
Q 1159 1113 1420 752 
Q 1681 391 2138 391 
Q 2594 391 2855 752 
Q 3116 1113 3116 1747 
z
M 1159 2969 
Q 1341 3281 1617 3432 
Q 1894 3584 2278 3584 
Q 2916 3584 3314 3078 
Q 3713 2572 3713 1747 
Q 3713 922 3314 415 
Q 2916 -91 2278 -91 
Q 1894 -91 1617 61 
Q 1341 213 1159 525 
L 1159 0 
L 581 0 
L 581 4863 
L 1159 4863 
L 1159 2969 
z
" id="DejaVuSans-62" transform="scale(0.015625)"/>
      </defs>
      <use xlink:href="#DejaVuSans-72"/>
      <use x="41.113281" xlink:href="#DejaVuSans-73"/>
      <use x="93.212891" xlink:href="#DejaVuSans-73"/>
      <use x="145.3125" xlink:href="#DejaVuSans-5f"/>
      <use x="195.3125" xlink:href="#DejaVuSans-6d"/>
      <use x="292.724609" xlink:href="#DejaVuSans-61"/>
      <use x="354.003906" xlink:href="#DejaVuSans-78"/>
      <use x="413.183594" xlink:href="#DejaVuSans-5f"/>
      <use x="463.183594" xlink:href="#DejaVuSans-72"/>
      <use x="504.296875" xlink:href="#DejaVuSans-61"/>
      <use x="565.576172" xlink:href="#DejaVuSans-6e"/>
      <use x="628.955078" xlink:href="#DejaVuSans-6b"/>
      <use x="686.865234" xlink:href="#DejaVuSans-30"/>
      <use x="750.488281" xlink:href="#DejaVuSans-5f"/>
      <use x="800.488281" xlink:href="#DejaVuSans-6b"/>
      <use x="858.398438" xlink:href="#DejaVuSans-62"/>
     </g>
    </g>
   </g>
   <g id="patch_142">
    <path d="M 57.6 307.584 
L 57.6 41.472 
" style="fill:none;stroke:#000000;stroke-linecap:square;stroke-linejoin:miter;stroke-width:0.8;"/>
   </g>
   <g id="patch_143">
    <path d="M 414.72 307.584 
L 414.72 41.472 
" style="fill:none;stroke:#000000;stroke-linecap:square;stroke-linejoin:miter;stroke-width:0.8;"/>
   </g>
   <g id="patch_144">
    <path d="M 57.6 307.584 
L 414.72 307.584 
" style="fill:none;stroke:#000000;stroke-linecap:square;stroke-linejoin:miter;stroke-width:0.8;"/>
   </g>
   <g id="patch_145">
    <path d="M 57.6 41.472 
L 414.72 41.472 
" style="fill:none;stroke:#000000;stroke-linecap:square;stroke-linejoin:miter;stroke-width:0.8;"/>
   </g>
   <g id="legend_1">
    <g id="patch_146">
     <path d="M 196.875625 93.506375 
L 275.444375 93.506375 
Q 277.444375 93.506375 277.444375 91.506375 
L 277.444375 48.472 
Q 277.444375 46.472 275.444375 46.472 
L 196.875625 46.472 
Q 194.875625 46.472 194.875625 48.472 
L 194.875625 91.506375 
Q 194.875625 93.506375 196.875625 93.506375 
z
" style="fill:#ffffff;opacity:0.8;stroke:#cccccc;stroke-linejoin:miter;"/>
    </g>
    <g id="patch_147">
     <path d="M 198.875625 58.070438 
L 218.875625 58.070438 
L 218.875625 51.070438 
L 198.875625 51.070438 
z
" style="fill:#1f77b4;"/>
    </g>
    <g id="text_15">
     <!-- Schema3 -->
     <g transform="translate(226.875625 58.070438)scale(0.1 -0.1)">
      <defs>
       <path d="M 3425 4513 
L 3425 3897 
Q 3066 4069 2747 4153 
Q 2428 4238 2131 4238 
Q 1616 4238 1336 4038 
Q 1056 3838 1056 3469 
Q 1056 3159 1242 3001 
Q 1428 2844 1947 2747 
L 2328 2669 
Q 3034 2534 3370 2195 
Q 3706 1856 3706 1288 
Q 3706 609 3251 259 
Q 2797 -91 1919 -91 
Q 1588 -91 1214 -16 
Q 841 59 441 206 
L 441 856 
Q 825 641 1194 531 
Q 1563 422 1919 422 
Q 2459 422 2753 634 
Q 3047 847 3047 1241 
Q 3047 1584 2836 1778 
Q 2625 1972 2144 2069 
L 1759 2144 
Q 1053 2284 737 2584 
Q 422 2884 422 3419 
Q 422 4038 858 4394 
Q 1294 4750 2059 4750 
Q 2388 4750 2728 4690 
Q 3069 4631 3425 4513 
z
" id="DejaVuSans-53" transform="scale(0.015625)"/>
       <path d="M 3122 3366 
L 3122 2828 
Q 2878 2963 2633 3030 
Q 2388 3097 2138 3097 
Q 1578 3097 1268 2742 
Q 959 2388 959 1747 
Q 959 1106 1268 751 
Q 1578 397 2138 397 
Q 2388 397 2633 464 
Q 2878 531 3122 666 
L 3122 134 
Q 2881 22 2623 -34 
Q 2366 -91 2075 -91 
Q 1284 -91 818 406 
Q 353 903 353 1747 
Q 353 2603 823 3093 
Q 1294 3584 2113 3584 
Q 2378 3584 2631 3529 
Q 2884 3475 3122 3366 
z
" id="DejaVuSans-63" transform="scale(0.015625)"/>
       <path d="M 3513 2113 
L 3513 0 
L 2938 0 
L 2938 2094 
Q 2938 2591 2744 2837 
Q 2550 3084 2163 3084 
Q 1697 3084 1428 2787 
Q 1159 2491 1159 1978 
L 1159 0 
L 581 0 
L 581 4863 
L 1159 4863 
L 1159 2956 
Q 1366 3272 1645 3428 
Q 1925 3584 2291 3584 
Q 2894 3584 3203 3211 
Q 3513 2838 3513 2113 
z
" id="DejaVuSans-68" transform="scale(0.015625)"/>
      </defs>
      <use xlink:href="#DejaVuSans-53"/>
      <use x="63.476562" xlink:href="#DejaVuSans-63"/>
      <use x="118.457031" xlink:href="#DejaVuSans-68"/>
      <use x="181.835938" xlink:href="#DejaVuSans-65"/>
      <use x="243.359375" xlink:href="#DejaVuSans-6d"/>
      <use x="340.771484" xlink:href="#DejaVuSans-61"/>
      <use x="402.050781" xlink:href="#DejaVuSans-33"/>
     </g>
    </g>
    <g id="patch_148">
     <path d="M 198.875625 72.748563 
L 218.875625 72.748563 
L 218.875625 65.748563 
L 198.875625 65.748563 
z
" style="fill:#ff7f0e;"/>
    </g>
    <g id="text_16">
     <!-- Schema2 -->
     <g transform="translate(226.875625 72.748563)scale(0.1 -0.1)">
      <use xlink:href="#DejaVuSans-53"/>
      <use x="63.476562" xlink:href="#DejaVuSans-63"/>
      <use x="118.457031" xlink:href="#DejaVuSans-68"/>
      <use x="181.835938" xlink:href="#DejaVuSans-65"/>
      <use x="243.359375" xlink:href="#DejaVuSans-6d"/>
      <use x="340.771484" xlink:href="#DejaVuSans-61"/>
      <use x="402.050781" xlink:href="#DejaVuSans-32"/>
     </g>
    </g>
    <g id="patch_149">
     <path d="M 198.875625 87.426688 
L 218.875625 87.426688 
L 218.875625 80.426688 
L 198.875625 80.426688 
z
" style="fill:#2ca02c;"/>
    </g>
    <g id="text_17">
     <!-- Schema1 -->
     <g transform="translate(226.875625 87.426688)scale(0.1 -0.1)">
      <use xlink:href="#DejaVuSans-53"/>
      <use x="63.476562" xlink:href="#DejaVuSans-63"/>
      <use x="118.457031" xlink:href="#DejaVuSans-68"/>
      <use x="181.835938" xlink:href="#DejaVuSans-65"/>
      <use x="243.359375" xlink:href="#DejaVuSans-6d"/>
      <use x="340.771484" xlink:href="#DejaVuSans-61"/>
      <use x="402.050781" xlink:href="#DejaVuSans-31"/>
     </g>
    </g>
   </g>
  </g>
 </g>
 <defs>
  <clipPath id="p6d0c17088d">
   <rect height="266.112" width="357.12" x="57.6" y="41.472"/>
  </clipPath>
 </defs>
</svg>
