<?xml version="1.0" encoding="utf-8" standalone="no"?>
<!DOCTYPE svg PUBLIC "-//W3C//DTD SVG 1.1//EN"
  "http://www.w3.org/Graphics/SVG/1.1/DTD/svg11.dtd">
<svg height="345.6pt" version="1.1" viewBox="0 0 460.8 345.6" width="460.8pt" xmlns="http://www.w3.org/2000/svg" xmlns:xlink="http://www.w3.org/1999/xlink">
 <metadata>
  <rdf:RDF xmlns:cc="http://creativecommons.org/ns#" xmlns:dc="http://purl.org/dc/elements/1.1/" xmlns:rdf="http://www.w3.org/1999/02/22-rdf-syntax-ns#">
   <cc:Work>
    <dc:type rdf:resource="http://purl.org/dc/dcmitype/StillImage"/>
    <dc:date>2022-01-23T07:12:25.547585</dc:date>
    <dc:format>image/svg+xml</dc:format>
    <dc:creator>
     <cc:Agent>
      <dc:title>Matplotlib v3.4.3, https://matplotlib.org/</dc:title>
     </cc:Agent>
    </dc:creator>
   </cc:Work>
  </rdf:RDF>
 </metadata>
 <defs>
  <style type="text/css">*{stroke-linecap:butt;stroke-linejoin:round;}</style>
 </defs>
 <g id="figure_1">
  <g id="patch_1">
   <path d="M 0 345.6 
L 460.8 345.6 
L 460.8 0 
L 0 0 
z
" style="fill:#ffffff;"/>
  </g>
  <g id="axes_1">
   <g id="patch_2">
    <path d="M 57.6 307.584 
L 414.72 307.584 
L 414.72 41.472 
L 57.6 41.472 
z
" style="fill:#ffffff;"/>
   </g>
   <g id="patch_3">
    <path clip-path="url(#p89a8147528)" d="M 309.945124 307.584 
L 339.459174 307.584 
L 339.459174 56.537087 
L 309.945124 56.537087 
z
" style="fill:#1f77b4;"/>
   </g>
   <g id="patch_4">
    <path clip-path="url(#p89a8147528)" d="M 309.945124 307.584 
L 339.459174 307.584 
L 339.459174 57.173224 
L 309.945124 57.173224 
z
" style="fill:#1f77b4;"/>
   </g>
   <g id="patch_5">
    <path clip-path="url(#p89a8147528)" d="M 309.945124 307.584 
L 339.459174 307.584 
L 339.459174 57.226235 
L 309.945124 57.226235 
z
" style="fill:#1f77b4;"/>
   </g>
   <g id="patch_6">
    <path clip-path="url(#p89a8147528)" d="M 309.945124 307.584 
L 339.459174 307.584 
L 339.459174 56.89302 
L 309.945124 56.89302 
z
" style="fill:#1f77b4;"/>
   </g>
   <g id="patch_7">
    <path clip-path="url(#p89a8147528)" d="M 309.945124 307.584 
L 339.459174 307.584 
L 339.459174 56.54466 
L 309.945124 56.54466 
z
" style="fill:#1f77b4;"/>
   </g>
   <g id="patch_8">
    <path clip-path="url(#p89a8147528)" d="M 309.945124 307.584 
L 339.459174 307.584 
L 339.459174 57.127785 
L 309.945124 57.127785 
z
" style="fill:#1f77b4;"/>
   </g>
   <g id="patch_9">
    <path clip-path="url(#p89a8147528)" d="M 309.945124 307.584 
L 339.459174 307.584 
L 339.459174 57.248954 
L 309.945124 57.248954 
z
" style="fill:#1f77b4;"/>
   </g>
   <g id="patch_10">
    <path clip-path="url(#p89a8147528)" d="M 309.945124 307.584 
L 339.459174 307.584 
L 339.459174 56.908167 
L 309.945124 56.908167 
z
" style="fill:#1f77b4;"/>
   </g>
   <g id="patch_11">
    <path clip-path="url(#p89a8147528)" d="M 309.945124 307.584 
L 339.459174 307.584 
L 339.459174 56.044838 
L 309.945124 56.044838 
z
" style="fill:#1f77b4;"/>
   </g>
   <g id="patch_12">
    <path clip-path="url(#p89a8147528)" d="M 191.888926 307.584 
L 221.402975 307.584 
L 221.402975 118.992106 
L 191.888926 118.992106 
z
" style="fill:#1f77b4;"/>
   </g>
   <g id="patch_13">
    <path clip-path="url(#p89a8147528)" d="M 191.888926 307.584 
L 221.402975 307.584 
L 221.402975 119.582805 
L 191.888926 119.582805 
z
" style="fill:#1f77b4;"/>
   </g>
   <g id="patch_14">
    <path clip-path="url(#p89a8147528)" d="M 191.888926 307.584 
L 221.402975 307.584 
L 221.402975 119.211725 
L 191.888926 119.211725 
z
" style="fill:#1f77b4;"/>
   </g>
   <g id="patch_15">
    <path clip-path="url(#p89a8147528)" d="M 73.832727 307.584 
L 103.346777 307.584 
L 103.346777 182.681534 
L 73.832727 182.681534 
z
" style="fill:#1f77b4;"/>
   </g>
   <g id="patch_16">
    <path clip-path="url(#p89a8147528)" d="M 73.832727 307.584 
L 103.346777 307.584 
L 103.346777 183.491852 
L 73.832727 183.491852 
z
" style="fill:#1f77b4;"/>
   </g>
   <g id="patch_17">
    <path clip-path="url(#p89a8147528)" d="M 73.832727 307.584 
L 103.346777 307.584 
L 103.346777 182.704253 
L 73.832727 182.704253 
z
" style="fill:#1f77b4;"/>
   </g>
   <g id="patch_18">
    <path clip-path="url(#p89a8147528)" d="M 73.832727 307.584 
L 103.346777 307.584 
L 103.346777 182.863288 
L 73.832727 182.863288 
z
" style="fill:#1f77b4;"/>
   </g>
   <g id="patch_19">
    <path clip-path="url(#p89a8147528)" d="M 73.832727 307.584 
L 103.346777 307.584 
L 103.346777 183.128345 
L 73.832727 183.128345 
z
" style="fill:#1f77b4;"/>
   </g>
   <g id="patch_20">
    <path clip-path="url(#p89a8147528)" d="M 73.832727 307.584 
L 103.346777 307.584 
L 103.346777 182.673961 
L 73.832727 182.673961 
z
" style="fill:#1f77b4;"/>
   </g>
   <g id="patch_21">
    <path clip-path="url(#p89a8147528)" d="M 73.832727 307.584 
L 103.346777 307.584 
L 103.346777 182.560365 
L 73.832727 182.560365 
z
" style="fill:#1f77b4;"/>
   </g>
   <g id="patch_22">
    <path clip-path="url(#p89a8147528)" d="M 73.832727 307.584 
L 103.346777 307.584 
L 103.346777 182.363466 
L 73.832727 182.363466 
z
" style="fill:#1f77b4;"/>
   </g>
   <g id="patch_23">
    <path clip-path="url(#p89a8147528)" d="M 73.832727 307.584 
L 103.346777 307.584 
L 103.346777 183.173783 
L 73.832727 183.173783 
z
" style="fill:#1f77b4;"/>
   </g>
   <g id="patch_24">
    <path clip-path="url(#p89a8147528)" d="M 73.832727 307.584 
L 103.346777 307.584 
L 103.346777 182.454342 
L 73.832727 182.454342 
z
" style="fill:#1f77b4;"/>
   </g>
   <g id="patch_25">
    <path clip-path="url(#p89a8147528)" d="M 73.832727 307.584 
L 103.346777 307.584 
L 103.346777 182.863288 
L 73.832727 182.863288 
z
" style="fill:#1f77b4;"/>
   </g>
   <g id="patch_26">
    <path clip-path="url(#p89a8147528)" d="M 73.832727 307.584 
L 103.346777 307.584 
L 103.346777 182.908726 
L 73.832727 182.908726 
z
" style="fill:#1f77b4;"/>
   </g>
   <g id="patch_27">
    <path clip-path="url(#p89a8147528)" d="M 73.832727 307.584 
L 103.346777 307.584 
L 103.346777 182.787557 
L 73.832727 182.787557 
z
" style="fill:#1f77b4;"/>
   </g>
   <g id="patch_28">
    <path clip-path="url(#p89a8147528)" d="M 73.832727 307.584 
L 103.346777 307.584 
L 103.346777 182.658815 
L 73.832727 182.658815 
z
" style="fill:#1f77b4;"/>
   </g>
   <g id="patch_29">
    <path clip-path="url(#p89a8147528)" d="M 309.945124 307.584 
L 339.459174 307.584 
L 339.459174 57.339831 
L 309.945124 57.339831 
z
" style="fill:#1f77b4;"/>
   </g>
   <g id="patch_30">
    <path clip-path="url(#p89a8147528)" d="M 309.945124 307.584 
L 339.459174 307.584 
L 339.459174 56.567379 
L 309.945124 56.567379 
z
" style="fill:#1f77b4;"/>
   </g>
   <g id="patch_31">
    <path clip-path="url(#p89a8147528)" d="M 309.945124 307.584 
L 339.459174 307.584 
L 339.459174 56.900594 
L 309.945124 56.900594 
z
" style="fill:#1f77b4;"/>
   </g>
   <g id="patch_32">
    <path clip-path="url(#p89a8147528)" d="M 309.945124 307.584 
L 339.459174 307.584 
L 339.459174 56.635536 
L 309.945124 56.635536 
z
" style="fill:#1f77b4;"/>
   </g>
   <g id="patch_33">
    <path clip-path="url(#p89a8147528)" d="M 309.945124 307.584 
L 339.459174 307.584 
L 339.459174 56.900594 
L 309.945124 56.900594 
z
" style="fill:#1f77b4;"/>
   </g>
   <g id="patch_34">
    <path clip-path="url(#p89a8147528)" d="M 309.945124 307.584 
L 339.459174 307.584 
L 339.459174 56.968751 
L 309.945124 56.968751 
z
" style="fill:#1f77b4;"/>
   </g>
   <g id="patch_35">
    <path clip-path="url(#p89a8147528)" d="M 191.888926 307.584 
L 221.402975 307.584 
L 221.402975 119.181433 
L 191.888926 119.181433 
z
" style="fill:#1f77b4;"/>
   </g>
   <g id="patch_36">
    <path clip-path="url(#p89a8147528)" d="M 191.888926 307.584 
L 221.402975 307.584 
L 221.402975 119.756985 
L 191.888926 119.756985 
z
" style="fill:#1f77b4;"/>
   </g>
   <g id="patch_37">
    <path clip-path="url(#p89a8147528)" d="M 191.888926 307.584 
L 221.402975 307.584 
L 221.402975 119.832716 
L 191.888926 119.832716 
z
" style="fill:#1f77b4;"/>
   </g>
   <g id="patch_38">
    <path clip-path="url(#p89a8147528)" d="M 339.459174 307.584 
L 368.973223 307.584 
L 368.973223 58.180441 
L 339.459174 58.180441 
z
" style="fill:#ff7f0e;"/>
   </g>
   <g id="patch_39">
    <path clip-path="url(#p89a8147528)" d="M 339.459174 307.584 
L 368.973223 307.584 
L 368.973223 58.172868 
L 339.459174 58.172868 
z
" style="fill:#ff7f0e;"/>
   </g>
   <g id="patch_40">
    <path clip-path="url(#p89a8147528)" d="M 339.459174 307.584 
L 368.973223 307.584 
L 368.973223 58.589386 
L 339.459174 58.589386 
z
" style="fill:#ff7f0e;"/>
   </g>
   <g id="patch_41">
    <path clip-path="url(#p89a8147528)" d="M 339.459174 307.584 
L 368.973223 307.584 
L 368.973223 57.991114 
L 339.459174 57.991114 
z
" style="fill:#ff7f0e;"/>
   </g>
   <g id="patch_42">
    <path clip-path="url(#p89a8147528)" d="M 339.459174 307.584 
L 368.973223 307.584 
L 368.973223 58.74842 
L 339.459174 58.74842 
z
" style="fill:#ff7f0e;"/>
   </g>
   <g id="patch_43">
    <path clip-path="url(#p89a8147528)" d="M 339.459174 307.584 
L 368.973223 307.584 
L 368.973223 58.331902 
L 339.459174 58.331902 
z
" style="fill:#ff7f0e;"/>
   </g>
   <g id="patch_44">
    <path clip-path="url(#p89a8147528)" d="M 339.459174 307.584 
L 368.973223 307.584 
L 368.973223 58.30161 
L 339.459174 58.30161 
z
" style="fill:#ff7f0e;"/>
   </g>
   <g id="patch_45">
    <path clip-path="url(#p89a8147528)" d="M 339.459174 307.584 
L 368.973223 307.584 
L 368.973223 59.142219 
L 339.459174 59.142219 
z
" style="fill:#ff7f0e;"/>
   </g>
   <g id="patch_46">
    <path clip-path="url(#p89a8147528)" d="M 339.459174 307.584 
L 368.973223 307.584 
L 368.973223 58.755993 
L 339.459174 58.755993 
z
" style="fill:#ff7f0e;"/>
   </g>
   <g id="patch_47">
    <path clip-path="url(#p89a8147528)" d="M 221.402975 307.584 
L 250.917025 307.584 
L 250.917025 107.91272 
L 221.402975 107.91272 
z
" style="fill:#ff7f0e;"/>
   </g>
   <g id="patch_48">
    <path clip-path="url(#p89a8147528)" d="M 221.402975 307.584 
L 250.917025 307.584 
L 250.917025 107.874855 
L 221.402975 107.874855 
z
" style="fill:#ff7f0e;"/>
   </g>
   <g id="patch_49">
    <path clip-path="url(#p89a8147528)" d="M 221.402975 307.584 
L 250.917025 307.584 
L 250.917025 107.844563 
L 221.402975 107.844563 
z
" style="fill:#ff7f0e;"/>
   </g>
   <g id="patch_50">
    <path clip-path="url(#p89a8147528)" d="M 103.346777 307.584 
L 132.860826 307.584 
L 132.860826 153.434379 
L 103.346777 153.434379 
z
" style="fill:#ff7f0e;"/>
   </g>
   <g id="patch_51">
    <path clip-path="url(#p89a8147528)" d="M 103.346777 307.584 
L 132.860826 307.584 
L 132.860826 153.956921 
L 103.346777 153.956921 
z
" style="fill:#ff7f0e;"/>
   </g>
   <g id="patch_52">
    <path clip-path="url(#p89a8147528)" d="M 103.346777 307.584 
L 132.860826 307.584 
L 132.860826 153.320784 
L 103.346777 153.320784 
z
" style="fill:#ff7f0e;"/>
   </g>
   <g id="patch_53">
    <path clip-path="url(#p89a8147528)" d="M 103.346777 307.584 
L 132.860826 307.584 
L 132.860826 154.184112 
L 103.346777 154.184112 
z
" style="fill:#ff7f0e;"/>
   </g>
   <g id="patch_54">
    <path clip-path="url(#p89a8147528)" d="M 103.346777 307.584 
L 132.860826 307.584 
L 132.860826 153.828179 
L 103.346777 153.828179 
z
" style="fill:#ff7f0e;"/>
   </g>
   <g id="patch_55">
    <path clip-path="url(#p89a8147528)" d="M 103.346777 307.584 
L 132.860826 307.584 
L 132.860826 153.434379 
L 103.346777 153.434379 
z
" style="fill:#ff7f0e;"/>
   </g>
   <g id="patch_56">
    <path clip-path="url(#p89a8147528)" d="M 103.346777 307.584 
L 132.860826 307.584 
L 132.860826 153.252626 
L 103.346777 153.252626 
z
" style="fill:#ff7f0e;"/>
   </g>
   <g id="patch_57">
    <path clip-path="url(#p89a8147528)" d="M 103.346777 307.584 
L 132.860826 307.584 
L 132.860826 153.494964 
L 103.346777 153.494964 
z
" style="fill:#ff7f0e;"/>
   </g>
   <g id="patch_58">
    <path clip-path="url(#p89a8147528)" d="M 103.346777 307.584 
L 132.860826 307.584 
L 132.860826 153.941774 
L 103.346777 153.941774 
z
" style="fill:#ff7f0e;"/>
   </g>
   <g id="patch_59">
    <path clip-path="url(#p89a8147528)" d="M 103.346777 307.584 
L 132.860826 307.584 
L 132.860826 152.858827 
L 103.346777 152.858827 
z
" style="fill:#ff7f0e;"/>
   </g>
   <g id="patch_60">
    <path clip-path="url(#p89a8147528)" d="M 103.346777 307.584 
L 132.860826 307.584 
L 132.860826 152.76795 
L 103.346777 152.76795 
z
" style="fill:#ff7f0e;"/>
   </g>
   <g id="patch_61">
    <path clip-path="url(#p89a8147528)" d="M 103.346777 307.584 
L 132.860826 307.584 
L 132.860826 153.434379 
L 103.346777 153.434379 
z
" style="fill:#ff7f0e;"/>
   </g>
   <g id="patch_62">
    <path clip-path="url(#p89a8147528)" d="M 103.346777 307.584 
L 132.860826 307.584 
L 132.860826 153.51011 
L 103.346777 153.51011 
z
" style="fill:#ff7f0e;"/>
   </g>
   <g id="patch_63">
    <path clip-path="url(#p89a8147528)" d="M 103.346777 307.584 
L 132.860826 307.584 
L 132.860826 153.600987 
L 103.346777 153.600987 
z
" style="fill:#ff7f0e;"/>
   </g>
   <g id="patch_64">
    <path clip-path="url(#p89a8147528)" d="M 339.459174 307.584 
L 368.973223 307.584 
L 368.973223 57.567023 
L 339.459174 57.567023 
z
" style="fill:#ff7f0e;"/>
   </g>
   <g id="patch_65">
    <path clip-path="url(#p89a8147528)" d="M 339.459174 307.584 
L 368.973223 307.584 
L 368.973223 57.63518 
L 339.459174 57.63518 
z
" style="fill:#ff7f0e;"/>
   </g>
   <g id="patch_66">
    <path clip-path="url(#p89a8147528)" d="M 339.459174 307.584 
L 368.973223 307.584 
L 368.973223 58.339475 
L 339.459174 58.339475 
z
" style="fill:#ff7f0e;"/>
   </g>
   <g id="patch_67">
    <path clip-path="url(#p89a8147528)" d="M 339.459174 307.584 
L 368.973223 307.584 
L 368.973223 58.778712 
L 339.459174 58.778712 
z
" style="fill:#ff7f0e;"/>
   </g>
   <g id="patch_68">
    <path clip-path="url(#p89a8147528)" d="M 339.459174 307.584 
L 368.973223 307.584 
L 368.973223 58.968039 
L 339.459174 58.968039 
z
" style="fill:#ff7f0e;"/>
   </g>
   <g id="patch_69">
    <path clip-path="url(#p89a8147528)" d="M 339.459174 307.584 
L 368.973223 307.584 
L 368.973223 58.00626 
L 339.459174 58.00626 
z
" style="fill:#ff7f0e;"/>
   </g>
   <g id="patch_70">
    <path clip-path="url(#p89a8147528)" d="M 339.459174 307.584 
L 368.973223 307.584 
L 368.973223 58.112283 
L 339.459174 58.112283 
z
" style="fill:#ff7f0e;"/>
   </g>
   <g id="patch_71">
    <path clip-path="url(#p89a8147528)" d="M 221.402975 307.584 
L 250.917025 307.584 
L 250.917025 107.09483 
L 221.402975 107.09483 
z
" style="fill:#ff7f0e;"/>
   </g>
   <g id="patch_72">
    <path clip-path="url(#p89a8147528)" d="M 221.402975 307.584 
L 250.917025 307.584 
L 250.917025 106.799481 
L 221.402975 106.799481 
z
" style="fill:#ff7f0e;"/>
   </g>
   <g id="patch_73">
    <path clip-path="url(#p89a8147528)" d="M 221.402975 307.584 
L 250.917025 307.584 
L 250.917025 107.617371 
L 221.402975 107.617371 
z
" style="fill:#ff7f0e;"/>
   </g>
   <g id="patch_74">
    <path clip-path="url(#p89a8147528)" d="M 368.973223 307.584 
L 398.487273 307.584 
L 398.487273 54.734699 
L 368.973223 54.734699 
z
" style="fill:#2ca02c;"/>
   </g>
   <g id="patch_75">
    <path clip-path="url(#p89a8147528)" d="M 368.973223 307.584 
L 398.487273 307.584 
L 398.487273 55.401128 
L 368.973223 55.401128 
z
" style="fill:#2ca02c;"/>
   </g>
   <g id="patch_76">
    <path clip-path="url(#p89a8147528)" d="M 368.973223 307.584 
L 398.487273 307.584 
L 398.487273 54.424203 
L 368.973223 54.424203 
z
" style="fill:#2ca02c;"/>
   </g>
   <g id="patch_77">
    <path clip-path="url(#p89a8147528)" d="M 368.973223 307.584 
L 398.487273 307.584 
L 398.487273 54.522653 
L 368.973223 54.522653 
z
" style="fill:#2ca02c;"/>
   </g>
   <g id="patch_78">
    <path clip-path="url(#p89a8147528)" d="M 368.973223 307.584 
L 398.487273 307.584 
L 398.487273 54.825575 
L 368.973223 54.825575 
z
" style="fill:#2ca02c;"/>
   </g>
   <g id="patch_79">
    <path clip-path="url(#p89a8147528)" d="M 368.973223 307.584 
L 398.487273 307.584 
L 398.487273 54.666541 
L 368.973223 54.666541 
z
" style="fill:#2ca02c;"/>
   </g>
   <g id="patch_80">
    <path clip-path="url(#p89a8147528)" d="M 368.973223 307.584 
L 398.487273 307.584 
L 398.487273 54.666541 
L 368.973223 54.666541 
z
" style="fill:#2ca02c;"/>
   </g>
   <g id="patch_81">
    <path clip-path="url(#p89a8147528)" d="M 368.973223 307.584 
L 398.487273 307.584 
L 398.487273 55.378409 
L 368.973223 55.378409 
z
" style="fill:#2ca02c;"/>
   </g>
   <g id="patch_82">
    <path clip-path="url(#p89a8147528)" d="M 368.973223 307.584 
L 398.487273 307.584 
L 398.487273 54.848295 
L 368.973223 54.848295 
z
" style="fill:#2ca02c;"/>
   </g>
   <g id="patch_83">
    <path clip-path="url(#p89a8147528)" d="M 368.973223 307.584 
L 398.487273 307.584 
L 398.487273 54.88616 
L 368.973223 54.88616 
z
" style="fill:#2ca02c;"/>
   </g>
   <g id="patch_84">
    <path clip-path="url(#p89a8147528)" d="M 368.973223 307.584 
L 398.487273 307.584 
L 398.487273 55.181509 
L 368.973223 55.181509 
z
" style="fill:#2ca02c;"/>
   </g>
   <g id="patch_85">
    <path clip-path="url(#p89a8147528)" d="M 368.973223 307.584 
L 398.487273 307.584 
L 398.487273 54.151573 
L 368.973223 54.151573 
z
" style="fill:#2ca02c;"/>
   </g>
   <g id="patch_86">
    <path clip-path="url(#p89a8147528)" d="M 368.973223 307.584 
L 398.487273 307.584 
L 398.487273 54.727126 
L 368.973223 54.727126 
z
" style="fill:#2ca02c;"/>
   </g>
   <g id="patch_87">
    <path clip-path="url(#p89a8147528)" d="M 368.973223 307.584 
L 398.487273 307.584 
L 398.487273 54.992183 
L 368.973223 54.992183 
z
" style="fill:#2ca02c;"/>
   </g>
   <g id="patch_88">
    <path clip-path="url(#p89a8147528)" d="M 250.917025 307.584 
L 280.431074 307.584 
L 280.431074 119.529793 
L 250.917025 119.529793 
z
" style="fill:#2ca02c;"/>
   </g>
   <g id="patch_89">
    <path clip-path="url(#p89a8147528)" d="M 250.917025 307.584 
L 280.431074 307.584 
L 280.431074 119.756985 
L 250.917025 119.756985 
z
" style="fill:#2ca02c;"/>
   </g>
   <g id="patch_90">
    <path clip-path="url(#p89a8147528)" d="M 250.917025 307.584 
L 280.431074 307.584 
L 280.431074 119.17386 
L 250.917025 119.17386 
z
" style="fill:#2ca02c;"/>
   </g>
   <g id="patch_91">
    <path clip-path="url(#p89a8147528)" d="M 132.860826 307.584 
L 162.374876 307.584 
L 162.374876 181.946947 
L 132.860826 181.946947 
z
" style="fill:#2ca02c;"/>
   </g>
   <g id="patch_92">
    <path clip-path="url(#p89a8147528)" d="M 132.860826 307.584 
L 162.374876 307.584 
L 162.374876 182.567938 
L 132.860826 182.567938 
z
" style="fill:#2ca02c;"/>
   </g>
   <g id="patch_93">
    <path clip-path="url(#p89a8147528)" d="M 132.860826 307.584 
L 162.374876 307.584 
L 162.374876 182.219578 
L 132.860826 182.219578 
z
" style="fill:#2ca02c;"/>
   </g>
   <g id="patch_94">
    <path clip-path="url(#p89a8147528)" d="M 132.860826 307.584 
L 162.374876 307.584 
L 162.374876 182.34832 
L 132.860826 182.34832 
z
" style="fill:#2ca02c;"/>
   </g>
   <g id="patch_95">
    <path clip-path="url(#p89a8147528)" d="M 132.860826 307.584 
L 162.374876 307.584 
L 162.374876 182.295308 
L 132.860826 182.295308 
z
" style="fill:#2ca02c;"/>
   </g>
   <g id="patch_96">
    <path clip-path="url(#p89a8147528)" d="M 132.860826 307.584 
L 162.374876 307.584 
L 162.374876 182.446769 
L 132.860826 182.446769 
z
" style="fill:#2ca02c;"/>
   </g>
   <g id="patch_97">
    <path clip-path="url(#p89a8147528)" d="M 132.860826 307.584 
L 162.374876 307.584 
L 162.374876 182.098409 
L 132.860826 182.098409 
z
" style="fill:#2ca02c;"/>
   </g>
   <g id="patch_98">
    <path clip-path="url(#p89a8147528)" d="M 132.860826 307.584 
L 162.374876 307.584 
L 162.374876 182.068116 
L 132.860826 182.068116 
z
" style="fill:#2ca02c;"/>
   </g>
   <g id="patch_99">
    <path clip-path="url(#p89a8147528)" d="M 132.860826 307.584 
L 162.374876 307.584 
L 162.374876 182.24987 
L 132.860826 182.24987 
z
" style="fill:#2ca02c;"/>
   </g>
   <g id="patch_100">
    <path clip-path="url(#p89a8147528)" d="M 132.860826 307.584 
L 162.374876 307.584 
L 162.374876 182.363466 
L 132.860826 182.363466 
z
" style="fill:#2ca02c;"/>
   </g>
   <g id="patch_101">
    <path clip-path="url(#p89a8147528)" d="M 132.860826 307.584 
L 162.374876 307.584 
L 162.374876 182.219578 
L 132.860826 182.219578 
z
" style="fill:#2ca02c;"/>
   </g>
   <g id="patch_102">
    <path clip-path="url(#p89a8147528)" d="M 132.860826 307.584 
L 162.374876 307.584 
L 162.374876 182.408904 
L 132.860826 182.408904 
z
" style="fill:#2ca02c;"/>
   </g>
   <g id="patch_103">
    <path clip-path="url(#p89a8147528)" d="M 132.860826 307.584 
L 162.374876 307.584 
L 162.374876 182.302881 
L 132.860826 182.302881 
z
" style="fill:#2ca02c;"/>
   </g>
   <g id="patch_104">
    <path clip-path="url(#p89a8147528)" d="M 132.860826 307.584 
L 162.374876 307.584 
L 162.374876 182.477062 
L 132.860826 182.477062 
z
" style="fill:#2ca02c;"/>
   </g>
   <g id="patch_105">
    <path clip-path="url(#p89a8147528)" d="M 368.973223 307.584 
L 398.487273 307.584 
L 398.487273 54.484788 
L 368.973223 54.484788 
z
" style="fill:#2ca02c;"/>
   </g>
   <g id="patch_106">
    <path clip-path="url(#p89a8147528)" d="M 368.973223 307.584 
L 398.487273 307.584 
L 398.487273 54.325753 
L 368.973223 54.325753 
z
" style="fill:#2ca02c;"/>
   </g>
   <g id="patch_107">
    <path clip-path="url(#p89a8147528)" d="M 368.973223 307.584 
L 398.487273 307.584 
L 398.487273 54.954317 
L 368.973223 54.954317 
z
" style="fill:#2ca02c;"/>
   </g>
   <g id="patch_108">
    <path clip-path="url(#p89a8147528)" d="M 368.973223 307.584 
L 398.487273 307.584 
L 398.487273 54.621103 
L 368.973223 54.621103 
z
" style="fill:#2ca02c;"/>
   </g>
   <g id="patch_109">
    <path clip-path="url(#p89a8147528)" d="M 368.973223 307.584 
L 398.487273 307.584 
L 398.487273 54.424203 
L 368.973223 54.424203 
z
" style="fill:#2ca02c;"/>
   </g>
   <g id="patch_110">
    <path clip-path="url(#p89a8147528)" d="M 368.973223 307.584 
L 398.487273 307.584 
L 398.487273 55.007329 
L 368.973223 55.007329 
z
" style="fill:#2ca02c;"/>
   </g>
   <g id="patch_111">
    <path clip-path="url(#p89a8147528)" d="M 368.973223 307.584 
L 398.487273 307.584 
L 398.487273 54.409057 
L 368.973223 54.409057 
z
" style="fill:#2ca02c;"/>
   </g>
   <g id="patch_112">
    <path clip-path="url(#p89a8147528)" d="M 368.973223 307.584 
L 398.487273 307.584 
L 398.487273 54.651395 
L 368.973223 54.651395 
z
" style="fill:#2ca02c;"/>
   </g>
   <g id="patch_113">
    <path clip-path="url(#p89a8147528)" d="M 368.973223 307.584 
L 398.487273 307.584 
L 398.487273 54.484788 
L 368.973223 54.484788 
z
" style="fill:#2ca02c;"/>
   </g>
   <g id="patch_114">
    <path clip-path="url(#p89a8147528)" d="M 368.973223 307.584 
L 398.487273 307.584 
L 398.487273 54.250023 
L 368.973223 54.250023 
z
" style="fill:#2ca02c;"/>
   </g>
   <g id="patch_115">
    <path clip-path="url(#p89a8147528)" d="M 368.973223 307.584 
L 398.487273 307.584 
L 398.487273 55.681331 
L 368.973223 55.681331 
z
" style="fill:#2ca02c;"/>
   </g>
   <g id="patch_116">
    <path clip-path="url(#p89a8147528)" d="M 368.973223 307.584 
L 398.487273 307.584 
L 398.487273 54.507507 
L 368.973223 54.507507 
z
" style="fill:#2ca02c;"/>
   </g>
   <g id="patch_117">
    <path clip-path="url(#p89a8147528)" d="M 368.973223 307.584 
L 398.487273 307.584 
L 398.487273 54.696833 
L 368.973223 54.696833 
z
" style="fill:#2ca02c;"/>
   </g>
   <g id="patch_118">
    <path clip-path="url(#p89a8147528)" d="M 368.973223 307.584 
L 398.487273 307.584 
L 398.487273 55.70405 
L 368.973223 55.70405 
z
" style="fill:#2ca02c;"/>
   </g>
   <g id="patch_119">
    <path clip-path="url(#p89a8147528)" d="M 368.973223 307.584 
L 398.487273 307.584 
L 398.487273 55.143644 
L 368.973223 55.143644 
z
" style="fill:#2ca02c;"/>
   </g>
   <g id="patch_120">
    <path clip-path="url(#p89a8147528)" d="M 368.973223 307.584 
L 398.487273 307.584 
L 398.487273 54.144 
L 368.973223 54.144 
z
" style="fill:#2ca02c;"/>
   </g>
   <g id="patch_121">
    <path clip-path="url(#p89a8147528)" d="M 368.973223 307.584 
L 398.487273 307.584 
L 398.487273 55.401128 
L 368.973223 55.401128 
z
" style="fill:#2ca02c;"/>
   </g>
   <g id="patch_122">
    <path clip-path="url(#p89a8147528)" d="M 368.973223 307.584 
L 398.487273 307.584 
L 398.487273 54.575664 
L 368.973223 54.575664 
z
" style="fill:#2ca02c;"/>
   </g>
   <g id="patch_123">
    <path clip-path="url(#p89a8147528)" d="M 368.973223 307.584 
L 398.487273 307.584 
L 398.487273 55.779781 
L 368.973223 55.779781 
z
" style="fill:#2ca02c;"/>
   </g>
   <g id="patch_124">
    <path clip-path="url(#p89a8147528)" d="M 368.973223 307.584 
L 398.487273 307.584 
L 398.487273 54.280315 
L 368.973223 54.280315 
z
" style="fill:#2ca02c;"/>
   </g>
   <g id="patch_125">
    <path clip-path="url(#p89a8147528)" d="M 368.973223 307.584 
L 398.487273 307.584 
L 398.487273 54.719553 
L 368.973223 54.719553 
z
" style="fill:#2ca02c;"/>
   </g>
   <g id="patch_126">
    <path clip-path="url(#p89a8147528)" d="M 368.973223 307.584 
L 398.487273 307.584 
L 398.487273 54.265169 
L 368.973223 54.265169 
z
" style="fill:#2ca02c;"/>
   </g>
   <g id="patch_127">
    <path clip-path="url(#p89a8147528)" d="M 368.973223 307.584 
L 398.487273 307.584 
L 398.487273 55.772208 
L 368.973223 55.772208 
z
" style="fill:#2ca02c;"/>
   </g>
   <g id="patch_128">
    <path clip-path="url(#p89a8147528)" d="M 368.973223 307.584 
L 398.487273 307.584 
L 398.487273 54.477215 
L 368.973223 54.477215 
z
" style="fill:#2ca02c;"/>
   </g>
   <g id="patch_129">
    <path clip-path="url(#p89a8147528)" d="M 368.973223 307.584 
L 398.487273 307.584 
L 398.487273 55.030048 
L 368.973223 55.030048 
z
" style="fill:#2ca02c;"/>
   </g>
   <g id="patch_130">
    <path clip-path="url(#p89a8147528)" d="M 368.973223 307.584 
L 398.487273 307.584 
L 398.487273 54.484788 
L 368.973223 54.484788 
z
" style="fill:#2ca02c;"/>
   </g>
   <g id="patch_131">
    <path clip-path="url(#p89a8147528)" d="M 368.973223 307.584 
L 398.487273 307.584 
L 398.487273 54.431776 
L 368.973223 54.431776 
z
" style="fill:#2ca02c;"/>
   </g>
   <g id="patch_132">
    <path clip-path="url(#p89a8147528)" d="M 368.973223 307.584 
L 398.487273 307.584 
L 398.487273 55.173936 
L 368.973223 55.173936 
z
" style="fill:#2ca02c;"/>
   </g>
   <g id="patch_133">
    <path clip-path="url(#p89a8147528)" d="M 368.973223 307.584 
L 398.487273 307.584 
L 398.487273 54.446922 
L 368.973223 54.446922 
z
" style="fill:#2ca02c;"/>
   </g>
   <g id="patch_134">
    <path clip-path="url(#p89a8147528)" d="M 368.973223 307.584 
L 398.487273 307.584 
L 398.487273 54.916452 
L 368.973223 54.916452 
z
" style="fill:#2ca02c;"/>
   </g>
   <g id="patch_135">
    <path clip-path="url(#p89a8147528)" d="M 368.973223 307.584 
L 398.487273 307.584 
L 398.487273 55.598027 
L 368.973223 55.598027 
z
" style="fill:#2ca02c;"/>
   </g>
   <g id="patch_136">
    <path clip-path="url(#p89a8147528)" d="M 368.973223 307.584 
L 398.487273 307.584 
L 398.487273 55.022475 
L 368.973223 55.022475 
z
" style="fill:#2ca02c;"/>
   </g>
   <g id="patch_137">
    <path clip-path="url(#p89a8147528)" d="M 368.973223 307.584 
L 398.487273 307.584 
L 398.487273 55.408701 
L 368.973223 55.408701 
z
" style="fill:#2ca02c;"/>
   </g>
   <g id="patch_138">
    <path clip-path="url(#p89a8147528)" d="M 368.973223 307.584 
L 398.487273 307.584 
L 398.487273 54.545372 
L 368.973223 54.545372 
z
" style="fill:#2ca02c;"/>
   </g>
   <g id="patch_139">
    <path clip-path="url(#p89a8147528)" d="M 250.917025 307.584 
L 280.431074 307.584 
L 280.431074 119.673681 
L 250.917025 119.673681 
z
" style="fill:#2ca02c;"/>
   </g>
   <g id="patch_140">
    <path clip-path="url(#p89a8147528)" d="M 250.917025 307.584 
L 280.431074 307.584 
L 280.431074 119.393478 
L 250.917025 119.393478 
z
" style="fill:#2ca02c;"/>
   </g>
   <g id="patch_141">
    <path clip-path="url(#p89a8147528)" d="M 250.917025 307.584 
L 280.431074 307.584 
L 280.431074 119.098129 
L 250.917025 119.098129 
z
" style="fill:#2ca02c;"/>
   </g>
   <g id="matplotlib.axis_1">
    <g id="xtick_1">
     <g id="line2d_1">
      <defs>
       <path d="M 0 0 
L 0 3.5 
" id="mefdfb76dca" style="stroke:#000000;stroke-width:0.8;"/>
      </defs>
      <g>
       <use style="stroke:#000000;stroke-width:0.8;" x="59.075702" xlink:href="#mefdfb76dca" y="307.584"/>
      </g>
     </g>
     <g id="text_1">
      <!-- 1.5 -->
      <g transform="translate(51.12414 322.182437)scale(0.1 -0.1)">
       <defs>
        <path d="M 794 531 
L 1825 531 
L 1825 4091 
L 703 3866 
L 703 4441 
L 1819 4666 
L 2450 4666 
L 2450 531 
L 3481 531 
L 3481 0 
L 794 0 
L 794 531 
z
" id="DejaVuSans-31" transform="scale(0.015625)"/>
        <path d="M 684 794 
L 1344 794 
L 1344 0 
L 684 0 
L 684 794 
z
" id="DejaVuSans-2e" transform="scale(0.015625)"/>
        <path d="M 691 4666 
L 3169 4666 
L 3169 4134 
L 1269 4134 
L 1269 2991 
Q 1406 3038 1543 3061 
Q 1681 3084 1819 3084 
Q 2600 3084 3056 2656 
Q 3513 2228 3513 1497 
Q 3513 744 3044 326 
Q 2575 -91 1722 -91 
Q 1428 -91 1123 -41 
Q 819 9 494 109 
L 494 744 
Q 775 591 1075 516 
Q 1375 441 1709 441 
Q 2250 441 2565 725 
Q 2881 1009 2881 1497 
Q 2881 1984 2565 2268 
Q 2250 2553 1709 2553 
Q 1456 2553 1204 2497 
Q 953 2441 691 2322 
L 691 4666 
z
" id="DejaVuSans-35" transform="scale(0.015625)"/>
       </defs>
       <use xlink:href="#DejaVuSans-31"/>
       <use x="63.623047" xlink:href="#DejaVuSans-2e"/>
       <use x="95.410156" xlink:href="#DejaVuSans-35"/>
      </g>
     </g>
    </g>
    <g id="xtick_2">
     <g id="line2d_2">
      <g>
       <use style="stroke:#000000;stroke-width:0.8;" x="118.103802" xlink:href="#mefdfb76dca" y="307.584"/>
      </g>
     </g>
     <g id="text_2">
      <!-- 2.0 -->
      <g transform="translate(110.152239 322.182437)scale(0.1 -0.1)">
       <defs>
        <path d="M 1228 531 
L 3431 531 
L 3431 0 
L 469 0 
L 469 531 
Q 828 903 1448 1529 
Q 2069 2156 2228 2338 
Q 2531 2678 2651 2914 
Q 2772 3150 2772 3378 
Q 2772 3750 2511 3984 
Q 2250 4219 1831 4219 
Q 1534 4219 1204 4116 
Q 875 4013 500 3803 
L 500 4441 
Q 881 4594 1212 4672 
Q 1544 4750 1819 4750 
Q 2544 4750 2975 4387 
Q 3406 4025 3406 3419 
Q 3406 3131 3298 2873 
Q 3191 2616 2906 2266 
Q 2828 2175 2409 1742 
Q 1991 1309 1228 531 
z
" id="DejaVuSans-32" transform="scale(0.015625)"/>
        <path d="M 2034 4250 
Q 1547 4250 1301 3770 
Q 1056 3291 1056 2328 
Q 1056 1369 1301 889 
Q 1547 409 2034 409 
Q 2525 409 2770 889 
Q 3016 1369 3016 2328 
Q 3016 3291 2770 3770 
Q 2525 4250 2034 4250 
z
M 2034 4750 
Q 2819 4750 3233 4129 
Q 3647 3509 3647 2328 
Q 3647 1150 3233 529 
Q 2819 -91 2034 -91 
Q 1250 -91 836 529 
Q 422 1150 422 2328 
Q 422 3509 836 4129 
Q 1250 4750 2034 4750 
z
" id="DejaVuSans-30" transform="scale(0.015625)"/>
       </defs>
       <use xlink:href="#DejaVuSans-32"/>
       <use x="63.623047" xlink:href="#DejaVuSans-2e"/>
       <use x="95.410156" xlink:href="#DejaVuSans-30"/>
      </g>
     </g>
    </g>
    <g id="xtick_3">
     <g id="line2d_3">
      <g>
       <use style="stroke:#000000;stroke-width:0.8;" x="177.131901" xlink:href="#mefdfb76dca" y="307.584"/>
      </g>
     </g>
     <g id="text_3">
      <!-- 2.5 -->
      <g transform="translate(169.180338 322.182437)scale(0.1 -0.1)">
       <use xlink:href="#DejaVuSans-32"/>
       <use x="63.623047" xlink:href="#DejaVuSans-2e"/>
       <use x="95.410156" xlink:href="#DejaVuSans-35"/>
      </g>
     </g>
    </g>
    <g id="xtick_4">
     <g id="line2d_4">
      <g>
       <use style="stroke:#000000;stroke-width:0.8;" x="236.16" xlink:href="#mefdfb76dca" y="307.584"/>
      </g>
     </g>
     <g id="text_4">
      <!-- 3.0 -->
      <g transform="translate(228.208438 322.182437)scale(0.1 -0.1)">
       <defs>
        <path d="M 2597 2516 
Q 3050 2419 3304 2112 
Q 3559 1806 3559 1356 
Q 3559 666 3084 287 
Q 2609 -91 1734 -91 
Q 1441 -91 1130 -33 
Q 819 25 488 141 
L 488 750 
Q 750 597 1062 519 
Q 1375 441 1716 441 
Q 2309 441 2620 675 
Q 2931 909 2931 1356 
Q 2931 1769 2642 2001 
Q 2353 2234 1838 2234 
L 1294 2234 
L 1294 2753 
L 1863 2753 
Q 2328 2753 2575 2939 
Q 2822 3125 2822 3475 
Q 2822 3834 2567 4026 
Q 2313 4219 1838 4219 
Q 1578 4219 1281 4162 
Q 984 4106 628 3988 
L 628 4550 
Q 988 4650 1302 4700 
Q 1616 4750 1894 4750 
Q 2613 4750 3031 4423 
Q 3450 4097 3450 3541 
Q 3450 3153 3228 2886 
Q 3006 2619 2597 2516 
z
" id="DejaVuSans-33" transform="scale(0.015625)"/>
       </defs>
       <use xlink:href="#DejaVuSans-33"/>
       <use x="63.623047" xlink:href="#DejaVuSans-2e"/>
       <use x="95.410156" xlink:href="#DejaVuSans-30"/>
      </g>
     </g>
    </g>
    <g id="xtick_5">
     <g id="line2d_5">
      <g>
       <use style="stroke:#000000;stroke-width:0.8;" x="295.188099" xlink:href="#mefdfb76dca" y="307.584"/>
      </g>
     </g>
     <g id="text_5">
      <!-- 3.5 -->
      <g transform="translate(287.236537 322.182437)scale(0.1 -0.1)">
       <use xlink:href="#DejaVuSans-33"/>
       <use x="63.623047" xlink:href="#DejaVuSans-2e"/>
       <use x="95.410156" xlink:href="#DejaVuSans-35"/>
      </g>
     </g>
    </g>
    <g id="xtick_6">
     <g id="line2d_6">
      <g>
       <use style="stroke:#000000;stroke-width:0.8;" x="354.216198" xlink:href="#mefdfb76dca" y="307.584"/>
      </g>
     </g>
     <g id="text_6">
      <!-- 4.0 -->
      <g transform="translate(346.264636 322.182437)scale(0.1 -0.1)">
       <defs>
        <path d="M 2419 4116 
L 825 1625 
L 2419 1625 
L 2419 4116 
z
M 2253 4666 
L 3047 4666 
L 3047 1625 
L 3713 1625 
L 3713 1100 
L 3047 1100 
L 3047 0 
L 2419 0 
L 2419 1100 
L 313 1100 
L 313 1709 
L 2253 4666 
z
" id="DejaVuSans-34" transform="scale(0.015625)"/>
       </defs>
       <use xlink:href="#DejaVuSans-34"/>
       <use x="63.623047" xlink:href="#DejaVuSans-2e"/>
       <use x="95.410156" xlink:href="#DejaVuSans-30"/>
      </g>
     </g>
    </g>
    <g id="xtick_7">
     <g id="line2d_7">
      <g>
       <use style="stroke:#000000;stroke-width:0.8;" x="413.244298" xlink:href="#mefdfb76dca" y="307.584"/>
      </g>
     </g>
     <g id="text_7">
      <!-- 4.5 -->
      <g transform="translate(405.292735 322.182437)scale(0.1 -0.1)">
       <use xlink:href="#DejaVuSans-34"/>
       <use x="63.623047" xlink:href="#DejaVuSans-2e"/>
       <use x="95.410156" xlink:href="#DejaVuSans-35"/>
      </g>
     </g>
    </g>
    <g id="text_8">
     <!-- world_size -->
     <g transform="translate(210.198281 335.860562)scale(0.1 -0.1)">
      <defs>
       <path d="M 269 3500 
L 844 3500 
L 1563 769 
L 2278 3500 
L 2956 3500 
L 3675 769 
L 4391 3500 
L 4966 3500 
L 4050 0 
L 3372 0 
L 2619 2869 
L 1863 0 
L 1184 0 
L 269 3500 
z
" id="DejaVuSans-77" transform="scale(0.015625)"/>
       <path d="M 1959 3097 
Q 1497 3097 1228 2736 
Q 959 2375 959 1747 
Q 959 1119 1226 758 
Q 1494 397 1959 397 
Q 2419 397 2687 759 
Q 2956 1122 2956 1747 
Q 2956 2369 2687 2733 
Q 2419 3097 1959 3097 
z
M 1959 3584 
Q 2709 3584 3137 3096 
Q 3566 2609 3566 1747 
Q 3566 888 3137 398 
Q 2709 -91 1959 -91 
Q 1206 -91 779 398 
Q 353 888 353 1747 
Q 353 2609 779 3096 
Q 1206 3584 1959 3584 
z
" id="DejaVuSans-6f" transform="scale(0.015625)"/>
       <path d="M 2631 2963 
Q 2534 3019 2420 3045 
Q 2306 3072 2169 3072 
Q 1681 3072 1420 2755 
Q 1159 2438 1159 1844 
L 1159 0 
L 581 0 
L 581 3500 
L 1159 3500 
L 1159 2956 
Q 1341 3275 1631 3429 
Q 1922 3584 2338 3584 
Q 2397 3584 2469 3576 
Q 2541 3569 2628 3553 
L 2631 2963 
z
" id="DejaVuSans-72" transform="scale(0.015625)"/>
       <path d="M 603 4863 
L 1178 4863 
L 1178 0 
L 603 0 
L 603 4863 
z
" id="DejaVuSans-6c" transform="scale(0.015625)"/>
       <path d="M 2906 2969 
L 2906 4863 
L 3481 4863 
L 3481 0 
L 2906 0 
L 2906 525 
Q 2725 213 2448 61 
Q 2172 -91 1784 -91 
Q 1150 -91 751 415 
Q 353 922 353 1747 
Q 353 2572 751 3078 
Q 1150 3584 1784 3584 
Q 2172 3584 2448 3432 
Q 2725 3281 2906 2969 
z
M 947 1747 
Q 947 1113 1208 752 
Q 1469 391 1925 391 
Q 2381 391 2643 752 
Q 2906 1113 2906 1747 
Q 2906 2381 2643 2742 
Q 2381 3103 1925 3103 
Q 1469 3103 1208 2742 
Q 947 2381 947 1747 
z
" id="DejaVuSans-64" transform="scale(0.015625)"/>
       <path d="M 3263 -1063 
L 3263 -1509 
L -63 -1509 
L -63 -1063 
L 3263 -1063 
z
" id="DejaVuSans-5f" transform="scale(0.015625)"/>
       <path d="M 2834 3397 
L 2834 2853 
Q 2591 2978 2328 3040 
Q 2066 3103 1784 3103 
Q 1356 3103 1142 2972 
Q 928 2841 928 2578 
Q 928 2378 1081 2264 
Q 1234 2150 1697 2047 
L 1894 2003 
Q 2506 1872 2764 1633 
Q 3022 1394 3022 966 
Q 3022 478 2636 193 
Q 2250 -91 1575 -91 
Q 1294 -91 989 -36 
Q 684 19 347 128 
L 347 722 
Q 666 556 975 473 
Q 1284 391 1588 391 
Q 1994 391 2212 530 
Q 2431 669 2431 922 
Q 2431 1156 2273 1281 
Q 2116 1406 1581 1522 
L 1381 1569 
Q 847 1681 609 1914 
Q 372 2147 372 2553 
Q 372 3047 722 3315 
Q 1072 3584 1716 3584 
Q 2034 3584 2315 3537 
Q 2597 3491 2834 3397 
z
" id="DejaVuSans-73" transform="scale(0.015625)"/>
       <path d="M 603 3500 
L 1178 3500 
L 1178 0 
L 603 0 
L 603 3500 
z
M 603 4863 
L 1178 4863 
L 1178 4134 
L 603 4134 
L 603 4863 
z
" id="DejaVuSans-69" transform="scale(0.015625)"/>
       <path d="M 353 3500 
L 3084 3500 
L 3084 2975 
L 922 459 
L 3084 459 
L 3084 0 
L 275 0 
L 275 525 
L 2438 3041 
L 353 3041 
L 353 3500 
z
" id="DejaVuSans-7a" transform="scale(0.015625)"/>
       <path d="M 3597 1894 
L 3597 1613 
L 953 1613 
Q 991 1019 1311 708 
Q 1631 397 2203 397 
Q 2534 397 2845 478 
Q 3156 559 3463 722 
L 3463 178 
Q 3153 47 2828 -22 
Q 2503 -91 2169 -91 
Q 1331 -91 842 396 
Q 353 884 353 1716 
Q 353 2575 817 3079 
Q 1281 3584 2069 3584 
Q 2775 3584 3186 3129 
Q 3597 2675 3597 1894 
z
M 3022 2063 
Q 3016 2534 2758 2815 
Q 2500 3097 2075 3097 
Q 1594 3097 1305 2825 
Q 1016 2553 972 2059 
L 3022 2063 
z
" id="DejaVuSans-65" transform="scale(0.015625)"/>
      </defs>
      <use xlink:href="#DejaVuSans-77"/>
      <use x="81.787109" xlink:href="#DejaVuSans-6f"/>
      <use x="142.96875" xlink:href="#DejaVuSans-72"/>
      <use x="184.082031" xlink:href="#DejaVuSans-6c"/>
      <use x="211.865234" xlink:href="#DejaVuSans-64"/>
      <use x="275.341797" xlink:href="#DejaVuSans-5f"/>
      <use x="325.341797" xlink:href="#DejaVuSans-73"/>
      <use x="377.441406" xlink:href="#DejaVuSans-69"/>
      <use x="405.224609" xlink:href="#DejaVuSans-7a"/>
      <use x="457.714844" xlink:href="#DejaVuSans-65"/>
     </g>
    </g>
   </g>
   <g id="matplotlib.axis_2">
    <g id="ytick_1">
     <g id="line2d_8">
      <defs>
       <path d="M 0 0 
L -3.5 0 
" id="m2c866d9521" style="stroke:#000000;stroke-width:0.8;"/>
      </defs>
      <g>
       <use style="stroke:#000000;stroke-width:0.8;" x="57.6" xlink:href="#m2c866d9521" y="307.584"/>
      </g>
     </g>
     <g id="text_9">
      <!-- 0 -->
      <g transform="translate(44.2375 311.383219)scale(0.1 -0.1)">
       <use xlink:href="#DejaVuSans-30"/>
      </g>
     </g>
    </g>
    <g id="ytick_2">
     <g id="line2d_9">
      <g>
       <use style="stroke:#000000;stroke-width:0.8;" x="57.6" xlink:href="#m2c866d9521" y="269.718704"/>
      </g>
     </g>
     <g id="text_10">
      <!-- 20000 -->
      <g transform="translate(18.7875 273.517923)scale(0.1 -0.1)">
       <use xlink:href="#DejaVuSans-32"/>
       <use x="63.623047" xlink:href="#DejaVuSans-30"/>
       <use x="127.246094" xlink:href="#DejaVuSans-30"/>
       <use x="190.869141" xlink:href="#DejaVuSans-30"/>
       <use x="254.492188" xlink:href="#DejaVuSans-30"/>
      </g>
     </g>
    </g>
    <g id="ytick_3">
     <g id="line2d_10">
      <g>
       <use style="stroke:#000000;stroke-width:0.8;" x="57.6" xlink:href="#m2c866d9521" y="231.853408"/>
      </g>
     </g>
     <g id="text_11">
      <!-- 40000 -->
      <g transform="translate(18.7875 235.652627)scale(0.1 -0.1)">
       <use xlink:href="#DejaVuSans-34"/>
       <use x="63.623047" xlink:href="#DejaVuSans-30"/>
       <use x="127.246094" xlink:href="#DejaVuSans-30"/>
       <use x="190.869141" xlink:href="#DejaVuSans-30"/>
       <use x="254.492188" xlink:href="#DejaVuSans-30"/>
      </g>
     </g>
    </g>
    <g id="ytick_4">
     <g id="line2d_11">
      <g>
       <use style="stroke:#000000;stroke-width:0.8;" x="57.6" xlink:href="#m2c866d9521" y="193.988112"/>
      </g>
     </g>
     <g id="text_12">
      <!-- 60000 -->
      <g transform="translate(18.7875 197.78733)scale(0.1 -0.1)">
       <defs>
        <path d="M 2113 2584 
Q 1688 2584 1439 2293 
Q 1191 2003 1191 1497 
Q 1191 994 1439 701 
Q 1688 409 2113 409 
Q 2538 409 2786 701 
Q 3034 994 3034 1497 
Q 3034 2003 2786 2293 
Q 2538 2584 2113 2584 
z
M 3366 4563 
L 3366 3988 
Q 3128 4100 2886 4159 
Q 2644 4219 2406 4219 
Q 1781 4219 1451 3797 
Q 1122 3375 1075 2522 
Q 1259 2794 1537 2939 
Q 1816 3084 2150 3084 
Q 2853 3084 3261 2657 
Q 3669 2231 3669 1497 
Q 3669 778 3244 343 
Q 2819 -91 2113 -91 
Q 1303 -91 875 529 
Q 447 1150 447 2328 
Q 447 3434 972 4092 
Q 1497 4750 2381 4750 
Q 2619 4750 2861 4703 
Q 3103 4656 3366 4563 
z
" id="DejaVuSans-36" transform="scale(0.015625)"/>
       </defs>
       <use xlink:href="#DejaVuSans-36"/>
       <use x="63.623047" xlink:href="#DejaVuSans-30"/>
       <use x="127.246094" xlink:href="#DejaVuSans-30"/>
       <use x="190.869141" xlink:href="#DejaVuSans-30"/>
       <use x="254.492188" xlink:href="#DejaVuSans-30"/>
      </g>
     </g>
    </g>
    <g id="ytick_5">
     <g id="line2d_12">
      <g>
       <use style="stroke:#000000;stroke-width:0.8;" x="57.6" xlink:href="#m2c866d9521" y="156.122816"/>
      </g>
     </g>
     <g id="text_13">
      <!-- 80000 -->
      <g transform="translate(18.7875 159.922034)scale(0.1 -0.1)">
       <defs>
        <path d="M 2034 2216 
Q 1584 2216 1326 1975 
Q 1069 1734 1069 1313 
Q 1069 891 1326 650 
Q 1584 409 2034 409 
Q 2484 409 2743 651 
Q 3003 894 3003 1313 
Q 3003 1734 2745 1975 
Q 2488 2216 2034 2216 
z
M 1403 2484 
Q 997 2584 770 2862 
Q 544 3141 544 3541 
Q 544 4100 942 4425 
Q 1341 4750 2034 4750 
Q 2731 4750 3128 4425 
Q 3525 4100 3525 3541 
Q 3525 3141 3298 2862 
Q 3072 2584 2669 2484 
Q 3125 2378 3379 2068 
Q 3634 1759 3634 1313 
Q 3634 634 3220 271 
Q 2806 -91 2034 -91 
Q 1263 -91 848 271 
Q 434 634 434 1313 
Q 434 1759 690 2068 
Q 947 2378 1403 2484 
z
M 1172 3481 
Q 1172 3119 1398 2916 
Q 1625 2713 2034 2713 
Q 2441 2713 2670 2916 
Q 2900 3119 2900 3481 
Q 2900 3844 2670 4047 
Q 2441 4250 2034 4250 
Q 1625 4250 1398 4047 
Q 1172 3844 1172 3481 
z
" id="DejaVuSans-38" transform="scale(0.015625)"/>
       </defs>
       <use xlink:href="#DejaVuSans-38"/>
       <use x="63.623047" xlink:href="#DejaVuSans-30"/>
       <use x="127.246094" xlink:href="#DejaVuSans-30"/>
       <use x="190.869141" xlink:href="#DejaVuSans-30"/>
       <use x="254.492188" xlink:href="#DejaVuSans-30"/>
      </g>
     </g>
    </g>
    <g id="ytick_6">
     <g id="line2d_13">
      <g>
       <use style="stroke:#000000;stroke-width:0.8;" x="57.6" xlink:href="#m2c866d9521" y="118.257519"/>
      </g>
     </g>
     <g id="text_14">
      <!-- 100000 -->
      <g transform="translate(12.425 122.056738)scale(0.1 -0.1)">
       <use xlink:href="#DejaVuSans-31"/>
       <use x="63.623047" xlink:href="#DejaVuSans-30"/>
       <use x="127.246094" xlink:href="#DejaVuSans-30"/>
       <use x="190.869141" xlink:href="#DejaVuSans-30"/>
       <use x="254.492188" xlink:href="#DejaVuSans-30"/>
       <use x="318.115234" xlink:href="#DejaVuSans-30"/>
      </g>
     </g>
    </g>
    <g id="ytick_7">
     <g id="line2d_14">
      <g>
       <use style="stroke:#000000;stroke-width:0.8;" x="57.6" xlink:href="#m2c866d9521" y="80.392223"/>
      </g>
     </g>
     <g id="text_15">
      <!-- 120000 -->
      <g transform="translate(12.425 84.191442)scale(0.1 -0.1)">
       <use xlink:href="#DejaVuSans-31"/>
       <use x="63.623047" xlink:href="#DejaVuSans-32"/>
       <use x="127.246094" xlink:href="#DejaVuSans-30"/>
       <use x="190.869141" xlink:href="#DejaVuSans-30"/>
       <use x="254.492188" xlink:href="#DejaVuSans-30"/>
       <use x="318.115234" xlink:href="#DejaVuSans-30"/>
      </g>
     </g>
    </g>
    <g id="ytick_8">
     <g id="line2d_15">
      <g>
       <use style="stroke:#000000;stroke-width:0.8;" x="57.6" xlink:href="#m2c866d9521" y="42.526927"/>
      </g>
     </g>
     <g id="text_16">
      <!-- 140000 -->
      <g transform="translate(12.425 46.326146)scale(0.1 -0.1)">
       <use xlink:href="#DejaVuSans-31"/>
       <use x="63.623047" xlink:href="#DejaVuSans-34"/>
       <use x="127.246094" xlink:href="#DejaVuSans-30"/>
       <use x="190.869141" xlink:href="#DejaVuSans-30"/>
       <use x="254.492188" xlink:href="#DejaVuSans-30"/>
       <use x="318.115234" xlink:href="#DejaVuSans-30"/>
      </g>
     </g>
    </g>
    <g id="text_17">
     <!-- rss_sum_all_kb -->
     <g transform="translate(6.067187 211.848312)rotate(-90)scale(0.1 -0.1)">
      <defs>
       <path d="M 544 1381 
L 544 3500 
L 1119 3500 
L 1119 1403 
Q 1119 906 1312 657 
Q 1506 409 1894 409 
Q 2359 409 2629 706 
Q 2900 1003 2900 1516 
L 2900 3500 
L 3475 3500 
L 3475 0 
L 2900 0 
L 2900 538 
Q 2691 219 2414 64 
Q 2138 -91 1772 -91 
Q 1169 -91 856 284 
Q 544 659 544 1381 
z
M 1991 3584 
L 1991 3584 
z
" id="DejaVuSans-75" transform="scale(0.015625)"/>
       <path d="M 3328 2828 
Q 3544 3216 3844 3400 
Q 4144 3584 4550 3584 
Q 5097 3584 5394 3201 
Q 5691 2819 5691 2113 
L 5691 0 
L 5113 0 
L 5113 2094 
Q 5113 2597 4934 2840 
Q 4756 3084 4391 3084 
Q 3944 3084 3684 2787 
Q 3425 2491 3425 1978 
L 3425 0 
L 2847 0 
L 2847 2094 
Q 2847 2600 2669 2842 
Q 2491 3084 2119 3084 
Q 1678 3084 1418 2786 
Q 1159 2488 1159 1978 
L 1159 0 
L 581 0 
L 581 3500 
L 1159 3500 
L 1159 2956 
Q 1356 3278 1631 3431 
Q 1906 3584 2284 3584 
Q 2666 3584 2933 3390 
Q 3200 3197 3328 2828 
z
" id="DejaVuSans-6d" transform="scale(0.015625)"/>
       <path d="M 2194 1759 
Q 1497 1759 1228 1600 
Q 959 1441 959 1056 
Q 959 750 1161 570 
Q 1363 391 1709 391 
Q 2188 391 2477 730 
Q 2766 1069 2766 1631 
L 2766 1759 
L 2194 1759 
z
M 3341 1997 
L 3341 0 
L 2766 0 
L 2766 531 
Q 2569 213 2275 61 
Q 1981 -91 1556 -91 
Q 1019 -91 701 211 
Q 384 513 384 1019 
Q 384 1609 779 1909 
Q 1175 2209 1959 2209 
L 2766 2209 
L 2766 2266 
Q 2766 2663 2505 2880 
Q 2244 3097 1772 3097 
Q 1472 3097 1187 3025 
Q 903 2953 641 2809 
L 641 3341 
Q 956 3463 1253 3523 
Q 1550 3584 1831 3584 
Q 2591 3584 2966 3190 
Q 3341 2797 3341 1997 
z
" id="DejaVuSans-61" transform="scale(0.015625)"/>
       <path d="M 581 4863 
L 1159 4863 
L 1159 1991 
L 2875 3500 
L 3609 3500 
L 1753 1863 
L 3688 0 
L 2938 0 
L 1159 1709 
L 1159 0 
L 581 0 
L 581 4863 
z
" id="DejaVuSans-6b" transform="scale(0.015625)"/>
       <path d="M 3116 1747 
Q 3116 2381 2855 2742 
Q 2594 3103 2138 3103 
Q 1681 3103 1420 2742 
Q 1159 2381 1159 1747 
Q 1159 1113 1420 752 
Q 1681 391 2138 391 
Q 2594 391 2855 752 
Q 3116 1113 3116 1747 
z
M 1159 2969 
Q 1341 3281 1617 3432 
Q 1894 3584 2278 3584 
Q 2916 3584 3314 3078 
Q 3713 2572 3713 1747 
Q 3713 922 3314 415 
Q 2916 -91 2278 -91 
Q 1894 -91 1617 61 
Q 1341 213 1159 525 
L 1159 0 
L 581 0 
L 581 4863 
L 1159 4863 
L 1159 2969 
z
" id="DejaVuSans-62" transform="scale(0.015625)"/>
      </defs>
      <use xlink:href="#DejaVuSans-72"/>
      <use x="41.113281" xlink:href="#DejaVuSans-73"/>
      <use x="93.212891" xlink:href="#DejaVuSans-73"/>
      <use x="145.3125" xlink:href="#DejaVuSans-5f"/>
      <use x="195.3125" xlink:href="#DejaVuSans-73"/>
      <use x="247.412109" xlink:href="#DejaVuSans-75"/>
      <use x="310.791016" xlink:href="#DejaVuSans-6d"/>
      <use x="408.203125" xlink:href="#DejaVuSans-5f"/>
      <use x="458.203125" xlink:href="#DejaVuSans-61"/>
      <use x="519.482422" xlink:href="#DejaVuSans-6c"/>
      <use x="547.265625" xlink:href="#DejaVuSans-6c"/>
      <use x="575.048828" xlink:href="#DejaVuSans-5f"/>
      <use x="625.048828" xlink:href="#DejaVuSans-6b"/>
      <use x="682.958984" xlink:href="#DejaVuSans-62"/>
     </g>
    </g>
   </g>
   <g id="patch_142">
    <path d="M 57.6 307.584 
L 57.6 41.472 
" style="fill:none;stroke:#000000;stroke-linecap:square;stroke-linejoin:miter;stroke-width:0.8;"/>
   </g>
   <g id="patch_143">
    <path d="M 414.72 307.584 
L 414.72 41.472 
" style="fill:none;stroke:#000000;stroke-linecap:square;stroke-linejoin:miter;stroke-width:0.8;"/>
   </g>
   <g id="patch_144">
    <path d="M 57.6 307.584 
L 414.72 307.584 
" style="fill:none;stroke:#000000;stroke-linecap:square;stroke-linejoin:miter;stroke-width:0.8;"/>
   </g>
   <g id="patch_145">
    <path d="M 57.6 41.472 
L 414.72 41.472 
" style="fill:none;stroke:#000000;stroke-linecap:square;stroke-linejoin:miter;stroke-width:0.8;"/>
   </g>
   <g id="legend_1">
    <g id="patch_146">
     <path d="M 64.6 93.506375 
L 143.16875 93.506375 
Q 145.16875 93.506375 145.16875 91.506375 
L 145.16875 48.472 
Q 145.16875 46.472 143.16875 46.472 
L 64.6 46.472 
Q 62.6 46.472 62.6 48.472 
L 62.6 91.506375 
Q 62.6 93.506375 64.6 93.506375 
z
" style="fill:#ffffff;opacity:0.8;stroke:#cccccc;stroke-linejoin:miter;"/>
    </g>
    <g id="patch_147">
     <path d="M 66.6 58.070438 
L 86.6 58.070438 
L 86.6 51.070438 
L 66.6 51.070438 
z
" style="fill:#1f77b4;"/>
    </g>
    <g id="text_18">
     <!-- Schema3 -->
     <g transform="translate(94.6 58.070438)scale(0.1 -0.1)">
      <defs>
       <path d="M 3425 4513 
L 3425 3897 
Q 3066 4069 2747 4153 
Q 2428 4238 2131 4238 
Q 1616 4238 1336 4038 
Q 1056 3838 1056 3469 
Q 1056 3159 1242 3001 
Q 1428 2844 1947 2747 
L 2328 2669 
Q 3034 2534 3370 2195 
Q 3706 1856 3706 1288 
Q 3706 609 3251 259 
Q 2797 -91 1919 -91 
Q 1588 -91 1214 -16 
Q 841 59 441 206 
L 441 856 
Q 825 641 1194 531 
Q 1563 422 1919 422 
Q 2459 422 2753 634 
Q 3047 847 3047 1241 
Q 3047 1584 2836 1778 
Q 2625 1972 2144 2069 
L 1759 2144 
Q 1053 2284 737 2584 
Q 422 2884 422 3419 
Q 422 4038 858 4394 
Q 1294 4750 2059 4750 
Q 2388 4750 2728 4690 
Q 3069 4631 3425 4513 
z
" id="DejaVuSans-53" transform="scale(0.015625)"/>
       <path d="M 3122 3366 
L 3122 2828 
Q 2878 2963 2633 3030 
Q 2388 3097 2138 3097 
Q 1578 3097 1268 2742 
Q 959 2388 959 1747 
Q 959 1106 1268 751 
Q 1578 397 2138 397 
Q 2388 397 2633 464 
Q 2878 531 3122 666 
L 3122 134 
Q 2881 22 2623 -34 
Q 2366 -91 2075 -91 
Q 1284 -91 818 406 
Q 353 903 353 1747 
Q 353 2603 823 3093 
Q 1294 3584 2113 3584 
Q 2378 3584 2631 3529 
Q 2884 3475 3122 3366 
z
" id="DejaVuSans-63" transform="scale(0.015625)"/>
       <path d="M 3513 2113 
L 3513 0 
L 2938 0 
L 2938 2094 
Q 2938 2591 2744 2837 
Q 2550 3084 2163 3084 
Q 1697 3084 1428 2787 
Q 1159 2491 1159 1978 
L 1159 0 
L 581 0 
L 581 4863 
L 1159 4863 
L 1159 2956 
Q 1366 3272 1645 3428 
Q 1925 3584 2291 3584 
Q 2894 3584 3203 3211 
Q 3513 2838 3513 2113 
z
" id="DejaVuSans-68" transform="scale(0.015625)"/>
      </defs>
      <use xlink:href="#DejaVuSans-53"/>
      <use x="63.476562" xlink:href="#DejaVuSans-63"/>
      <use x="118.457031" xlink:href="#DejaVuSans-68"/>
      <use x="181.835938" xlink:href="#DejaVuSans-65"/>
      <use x="243.359375" xlink:href="#DejaVuSans-6d"/>
      <use x="340.771484" xlink:href="#DejaVuSans-61"/>
      <use x="402.050781" xlink:href="#DejaVuSans-33"/>
     </g>
    </g>
    <g id="patch_148">
     <path d="M 66.6 72.748563 
L 86.6 72.748563 
L 86.6 65.748563 
L 66.6 65.748563 
z
" style="fill:#ff7f0e;"/>
    </g>
    <g id="text_19">
     <!-- Schema2 -->
     <g transform="translate(94.6 72.748563)scale(0.1 -0.1)">
      <use xlink:href="#DejaVuSans-53"/>
      <use x="63.476562" xlink:href="#DejaVuSans-63"/>
      <use x="118.457031" xlink:href="#DejaVuSans-68"/>
      <use x="181.835938" xlink:href="#DejaVuSans-65"/>
      <use x="243.359375" xlink:href="#DejaVuSans-6d"/>
      <use x="340.771484" xlink:href="#DejaVuSans-61"/>
      <use x="402.050781" xlink:href="#DejaVuSans-32"/>
     </g>
    </g>
    <g id="patch_149">
     <path d="M 66.6 87.426688 
L 86.6 87.426688 
L 86.6 80.426688 
L 66.6 80.426688 
z
" style="fill:#2ca02c;"/>
    </g>
    <g id="text_20">
     <!-- Schema1 -->
     <g transform="translate(94.6 87.426688)scale(0.1 -0.1)">
      <use xlink:href="#DejaVuSans-53"/>
      <use x="63.476562" xlink:href="#DejaVuSans-63"/>
      <use x="118.457031" xlink:href="#DejaVuSans-68"/>
      <use x="181.835938" xlink:href="#DejaVuSans-65"/>
      <use x="243.359375" xlink:href="#DejaVuSans-6d"/>
      <use x="340.771484" xlink:href="#DejaVuSans-61"/>
      <use x="402.050781" xlink:href="#DejaVuSans-31"/>
     </g>
    </g>
   </g>
  </g>
 </g>
 <defs>
  <clipPath id="p89a8147528">
   <rect height="266.112" width="357.12" x="57.6" y="41.472"/>
  </clipPath>
 </defs>
</svg>
