<?xml version="1.0" encoding="UTF-8" standalone="no"?><svg xmlns="http://www.w3.org/2000/svg" xmlns:xlink="http://www.w3.org/1999/xlink" contentScriptType="application/ecmascript" contentStyleType="text/css" height="584px" preserveAspectRatio="none" style="width:414px;height:584px;background:#FFFFFF;" version="1.1" viewBox="0 0 414 584" width="414px" zoomAndPan="magnify"><defs><filter height="300%" id="f1ez5syjsue0at" width="300%" x="-1" y="-1"><feGaussianBlur result="blurOut" stdDeviation="2.0"/><feColorMatrix in="blurOut" result="blurOut2" type="matrix" values="0 0 0 0 0 0 0 0 0 0 0 0 0 0 0 0 0 0 .4 0"/><feOffset dx="4.0" dy="4.0" in="blurOut2" result="blurOut3"/><feBlend in="SourceGraphic" in2="blurOut3" mode="normal"/></filter></defs><g><text fill="#000000" font-family="sans-serif" font-size="18" lengthAdjust="spacing" textLength="93" x="159.5" y="26.708">SCHEME 1</text><ellipse cx="208" cy="40.9531" fill="#000000" filter="url(#f1ez5syjsue0at)" rx="10" ry="10" style="stroke:none;stroke-width:1.0;"/><rect fill="#FEFECE" filter="url(#f1ez5syjsue0at)" height="40.9531" rx="12.5" ry="12.5" style="stroke:#A80036;stroke-width:1.5;" width="136" x="140" y="70.9531"/><text fill="#000000" font-family="sans-serif" font-size="18" font-style="italic" font-weight="bold" lengthAdjust="spacing" textLength="116" x="150" y="97.6611">LOAD DATA</text><rect fill="#000000" filter="url(#f1ez5syjsue0at)" height="6" rx="2.5" ry="2.5" style="stroke:#000000;stroke-width:1.0;" width="386" x="11" y="131.9063"/><polygon fill="#FEFECE" filter="url(#f1ez5syjsue0at)" points="75.5,157.9063,127.5,157.9063,117.5,191.875,65.5,191.875" style="stroke:#A80036;stroke-width:1.5;"/><text fill="#000000" font-family="sans-serif" font-size="12" lengthAdjust="spacing" textLength="42" x="75.5" y="179.0449">rank_0</text><rect fill="#FEFECE" filter="url(#f1ez5syjsue0at)" height="37.4609" rx="12.5" ry="12.5" style="stroke:#A80036;stroke-width:1.5;" width="147" x="23" y="255.875"/><text fill="#000000" font-family="sans-serif" font-size="15" font-style="italic" font-weight="bold" lengthAdjust="spacing" textLength="127" x="33" y="279.7983">Value Iteration</text><rect fill="#FEFECE" filter="url(#f1ez5syjsue0at)" height="33.9688" style="stroke:#A80036;stroke-width:1.5;" width="122" x="35.5" y="313.3359"/><line style="stroke:#A80036;stroke-width:1.5;" x1="40.5" x2="40.5" y1="313.3359" y2="347.3047"/><line style="stroke:#A80036;stroke-width:1.5;" x1="152.5" x2="152.5" y1="313.3359" y2="347.3047"/><text fill="#000000" font-family="sans-serif" font-size="12" lengthAdjust="spacing" textLength="102" x="45.5" y="334.4746">MPI_Allgatherv(J)</text><rect fill="#FEFECE" filter="url(#f1ez5syjsue0at)" height="33.9688" style="stroke:#A80036;stroke-width:1.5;" width="138" x="27.5" y="367.3047"/><line style="stroke:#A80036;stroke-width:1.5;" x1="32.5" x2="32.5" y1="367.3047" y2="401.2734"/><line style="stroke:#A80036;stroke-width:1.5;" x1="160.5" x2="160.5" y1="367.3047" y2="401.2734"/><text fill="#000000" font-family="sans-serif" font-size="12" lengthAdjust="spacing" textLength="118" x="37.5" y="388.4434">MPI_Allreduce(eps)</text><polygon fill="#FEFECE" filter="url(#f1ez5syjsue0at)" points="96.5,211.875,108.5,223.875,96.5,235.875,84.5,223.875,96.5,211.875" style="stroke:#A80036;stroke-width:1.5;"/><polygon fill="#FEFECE" filter="url(#f1ez5syjsue0at)" points="45.5,421.2734,147.5,421.2734,159.5,433.2734,147.5,445.2734,45.5,445.2734,33.5,433.2734,45.5,421.2734" style="stroke:#A80036;stroke-width:1.5;"/><text fill="#000000" font-family="sans-serif" font-size="11" lengthAdjust="spacing" textLength="21" x="100.5" y="455.4839">Yes</text><text fill="#000000" font-family="sans-serif" font-size="11" lengthAdjust="spacing" textLength="102" x="45.5" y="437.0815">eps &lt; eps_thresh</text><text fill="#000000" font-family="sans-serif" font-size="11" lengthAdjust="spacing" textLength="15" x="159.5" y="430.6792">No</text><polygon fill="#FEFECE" filter="url(#f1ez5syjsue0at)" points="274,157.9063,327,157.9063,317,191.875,264,191.875" style="stroke:#A80036;stroke-width:1.5;"/><text fill="#000000" font-family="sans-serif" font-size="12" lengthAdjust="spacing" textLength="43" x="274" y="179.0449">rank_N</text><rect fill="#FEFECE" filter="url(#f1ez5syjsue0at)" height="37.4609" rx="12.5" ry="12.5" style="stroke:#A80036;stroke-width:1.5;" width="147" x="222" y="255.875"/><text fill="#000000" font-family="sans-serif" font-size="15" font-style="italic" font-weight="bold" lengthAdjust="spacing" textLength="127" x="232" y="279.7983">Value Iteration</text><rect fill="#FEFECE" filter="url(#f1ez5syjsue0at)" height="33.9688" style="stroke:#A80036;stroke-width:1.5;" width="122" x="234.5" y="313.3359"/><line style="stroke:#A80036;stroke-width:1.5;" x1="239.5" x2="239.5" y1="313.3359" y2="347.3047"/><line style="stroke:#A80036;stroke-width:1.5;" x1="351.5" x2="351.5" y1="313.3359" y2="347.3047"/><text fill="#000000" font-family="sans-serif" font-size="12" lengthAdjust="spacing" textLength="102" x="244.5" y="334.4746">MPI_Allgatherv(J)</text><rect fill="#FEFECE" filter="url(#f1ez5syjsue0at)" height="33.9688" style="stroke:#A80036;stroke-width:1.5;" width="138" x="226.5" y="367.3047"/><line style="stroke:#A80036;stroke-width:1.5;" x1="231.5" x2="231.5" y1="367.3047" y2="401.2734"/><line style="stroke:#A80036;stroke-width:1.5;" x1="359.5" x2="359.5" y1="367.3047" y2="401.2734"/><text fill="#000000" font-family="sans-serif" font-size="12" lengthAdjust="spacing" textLength="118" x="236.5" y="388.4434">MPI_Allreduce(eps)</text><polygon fill="#FEFECE" filter="url(#f1ez5syjsue0at)" points="295.5,211.875,307.5,223.875,295.5,235.875,283.5,223.875,295.5,211.875" style="stroke:#A80036;stroke-width:1.5;"/><polygon fill="#FEFECE" filter="url(#f1ez5syjsue0at)" points="244.5,421.2734,346.5,421.2734,358.5,433.2734,346.5,445.2734,244.5,445.2734,232.5,433.2734,244.5,421.2734" style="stroke:#A80036;stroke-width:1.5;"/><text fill="#000000" font-family="sans-serif" font-size="11" lengthAdjust="spacing" textLength="21" x="299.5" y="455.4839">Yes</text><text fill="#000000" font-family="sans-serif" font-size="11" lengthAdjust="spacing" textLength="102" x="244.5" y="437.0815">eps &lt; eps_thresh</text><text fill="#000000" font-family="sans-serif" font-size="11" lengthAdjust="spacing" textLength="15" x="358.5" y="430.6792">No</text><rect fill="#000000" filter="url(#f1ez5syjsue0at)" height="6" rx="2.5" ry="2.5" style="stroke:#000000;stroke-width:1.0;" width="386" x="11" y="465.2734"/><rect fill="#FEFECE" filter="url(#f1ez5syjsue0at)" height="33.9688" style="stroke:#A80036;stroke-width:1.5;" width="117" x="149.5" y="491.2734"/><line style="stroke:#A80036;stroke-width:1.5;" x1="154.5" x2="154.5" y1="491.2734" y2="525.2422"/><line style="stroke:#A80036;stroke-width:1.5;" x1="261.5" x2="261.5" y1="491.2734" y2="525.2422"/><text fill="#000000" font-family="sans-serif" font-size="12" lengthAdjust="spacing" textLength="97" x="159.5" y="512.4121">MPI_Gatherv(Pi)</text><ellipse cx="208" cy="556.2422" fill="#FFFFFF" filter="url(#f1ez5syjsue0at)" rx="11" ry="11" style="stroke:#000000;stroke-width:1.0;"/><ellipse cx="208" cy="556.2422" fill="#000000" rx="6" ry="6" style="stroke:#7F7F7F;stroke-width:1.0;"/><line style="stroke:#A80036;stroke-width:1.5;" x1="208" x2="208" y1="50.9531" y2="70.9531"/><polygon fill="#A80036" points="204,60.9531,208,70.9531,212,60.9531,208,64.9531" style="stroke:#A80036;stroke-width:1.0;"/><line style="stroke:#A80036;stroke-width:1.5;" x1="96.5" x2="96.5" y1="293.3359" y2="313.3359"/><polygon fill="#A80036" points="92.5,303.3359,96.5,313.3359,100.5,303.3359,96.5,307.3359" style="stroke:#A80036;stroke-width:1.0;"/><line style="stroke:#A80036;stroke-width:1.5;" x1="96.5" x2="96.5" y1="347.3047" y2="367.3047"/><polygon fill="#A80036" points="92.5,357.3047,96.5,367.3047,100.5,357.3047,96.5,361.3047" style="stroke:#A80036;stroke-width:1.0;"/><line style="stroke:#A80036;stroke-width:1.5;" x1="96.5" x2="96.5" y1="235.875" y2="255.875"/><polygon fill="#A80036" points="92.5,245.875,96.5,255.875,100.5,245.875,96.5,249.875" style="stroke:#A80036;stroke-width:1.0;"/><line style="stroke:#A80036;stroke-width:1.5;" x1="159.5" x2="182" y1="433.2734" y2="433.2734"/><polygon fill="#A80036" points="178,338.5742,182,328.5742,186,338.5742,182,334.5742" style="stroke:#A80036;stroke-width:1.5;"/><line style="stroke:#A80036;stroke-width:1.5;" x1="182" x2="182" y1="223.875" y2="433.2734"/><line style="stroke:#A80036;stroke-width:1.5;" x1="182" x2="108.5" y1="223.875" y2="223.875"/><polygon fill="#A80036" points="118.5,219.875,108.5,223.875,118.5,227.875,114.5,223.875" style="stroke:#A80036;stroke-width:1.0;"/><line style="stroke:#A80036;stroke-width:1.5;" x1="96.5" x2="96.5" y1="401.2734" y2="421.2734"/><polygon fill="#A80036" points="92.5,411.2734,96.5,421.2734,100.5,411.2734,96.5,415.2734" style="stroke:#A80036;stroke-width:1.0;"/><line style="stroke:#A80036;stroke-width:1.5;" x1="96.5" x2="96.5" y1="191.875" y2="211.875"/><polygon fill="#A80036" points="92.5,201.875,96.5,211.875,100.5,201.875,96.5,205.875" style="stroke:#A80036;stroke-width:1.0;"/><line style="stroke:#A80036;stroke-width:1.5;" x1="295.5" x2="295.5" y1="293.3359" y2="313.3359"/><polygon fill="#A80036" points="291.5,303.3359,295.5,313.3359,299.5,303.3359,295.5,307.3359" style="stroke:#A80036;stroke-width:1.0;"/><line style="stroke:#A80036;stroke-width:1.5;" x1="295.5" x2="295.5" y1="347.3047" y2="367.3047"/><polygon fill="#A80036" points="291.5,357.3047,295.5,367.3047,299.5,357.3047,295.5,361.3047" style="stroke:#A80036;stroke-width:1.0;"/><line style="stroke:#A80036;stroke-width:1.5;" x1="295.5" x2="295.5" y1="235.875" y2="255.875"/><polygon fill="#A80036" points="291.5,245.875,295.5,255.875,299.5,245.875,295.5,249.875" style="stroke:#A80036;stroke-width:1.0;"/><line style="stroke:#A80036;stroke-width:1.5;" x1="358.5" x2="381" y1="433.2734" y2="433.2734"/><polygon fill="#A80036" points="377,338.5742,381,328.5742,385,338.5742,381,334.5742" style="stroke:#A80036;stroke-width:1.5;"/><line style="stroke:#A80036;stroke-width:1.5;" x1="381" x2="381" y1="223.875" y2="433.2734"/><line style="stroke:#A80036;stroke-width:1.5;" x1="381" x2="307.5" y1="223.875" y2="223.875"/><polygon fill="#A80036" points="317.5,219.875,307.5,223.875,317.5,227.875,313.5,223.875" style="stroke:#A80036;stroke-width:1.0;"/><line style="stroke:#A80036;stroke-width:1.5;" x1="295.5" x2="295.5" y1="401.2734" y2="421.2734"/><polygon fill="#A80036" points="291.5,411.2734,295.5,421.2734,299.5,411.2734,295.5,415.2734" style="stroke:#A80036;stroke-width:1.0;"/><line style="stroke:#A80036;stroke-width:1.5;" x1="295.5" x2="295.5" y1="191.875" y2="211.875"/><polygon fill="#A80036" points="291.5,201.875,295.5,211.875,299.5,201.875,295.5,205.875" style="stroke:#A80036;stroke-width:1.0;"/><line style="stroke:#A80036;stroke-width:1.5;" x1="96.5" x2="96.5" y1="137.9063" y2="157.9063"/><polygon fill="#A80036" points="92.5,147.9063,96.5,157.9063,100.5,147.9063,96.5,151.9063" style="stroke:#A80036;stroke-width:1.0;"/><line style="stroke:#A80036;stroke-width:1.5;" x1="295.5" x2="295.5" y1="137.9063" y2="157.9063"/><polygon fill="#A80036" points="291.5,147.9063,295.5,157.9063,299.5,147.9063,295.5,151.9063" style="stroke:#A80036;stroke-width:1.0;"/><line style="stroke:#A80036;stroke-width:1.5;" x1="96.5" x2="96.5" y1="445.2734" y2="465.2734"/><polygon fill="#A80036" points="92.5,455.2734,96.5,465.2734,100.5,455.2734,96.5,459.2734" style="stroke:#A80036;stroke-width:1.0;"/><line style="stroke:#A80036;stroke-width:1.5;" x1="295.5" x2="295.5" y1="445.2734" y2="465.2734"/><polygon fill="#A80036" points="291.5,455.2734,295.5,465.2734,299.5,455.2734,295.5,459.2734" style="stroke:#A80036;stroke-width:1.0;"/><line style="stroke:#A80036;stroke-width:1.5;" x1="208" x2="208" y1="111.9063" y2="131.9063"/><polygon fill="#A80036" points="204,121.9063,208,131.9063,212,121.9063,208,125.9063" style="stroke:#A80036;stroke-width:1.0;"/><line style="stroke:#A80036;stroke-width:1.5;" x1="208" x2="208" y1="471.2734" y2="491.2734"/><polygon fill="#A80036" points="204,481.2734,208,491.2734,212,481.2734,208,485.2734" style="stroke:#A80036;stroke-width:1.0;"/><line style="stroke:#A80036;stroke-width:1.5;" x1="208" x2="208" y1="525.2422" y2="545.2422"/><polygon fill="#A80036" points="204,535.2422,208,545.2422,212,535.2422,208,539.2422" style="stroke:#A80036;stroke-width:1.0;"/><!--MD5=[0382f0010cdc8f02d5fe5ad259361bff]
@startuml
'left to right direction
' Horizontal lines: - ->, <- -, <- ->'
title SCHEME 1
start
:<size:18><i><b>LOAD DATA</b></i></size>;
fork
    :rank_0/
repeat
    :<size:15><i><b>Value Iteration</b></i></size>;
    :MPI_Allgatherv(J)|
    :MPI_Allreduce(eps)|
repeat while (eps < eps_thresh) is (No) not (Yes)
fork again
    :rank_N/
repeat
    :<size:15><i><b>Value Iteration</b></i></size>;
    :MPI_Allgatherv(J)|
    :MPI_Allreduce(eps)|
repeat while (eps < eps_thresh) is (No) not (Yes)
end fork
:MPI_Gatherv(Pi)|
stop

@enduml

@startuml
title SCHEME 1
start
:<size:18><i><b>LOAD DATA</b></i></size>;
fork
    :rank_0/
repeat
    :<size:15><i><b>Value Iteration</b></i></size>;
    :MPI_Allgatherv(J)|
    :MPI_Allreduce(eps)|
repeat while (eps < eps_thresh) is (No) not (Yes)
fork again
    :rank_N/
repeat
    :<size:15><i><b>Value Iteration</b></i></size>;
    :MPI_Allgatherv(J)|
    :MPI_Allreduce(eps)|
repeat while (eps < eps_thresh) is (No) not (Yes)
end fork
:MPI_Gatherv(Pi)|
stop

@enduml

PlantUML version 1.2021.16(Wed Dec 08 18:25:22 CET 2021)
(GPL source distribution)
Java Runtime: OpenJDK Runtime Environment
JVM: OpenJDK 64-Bit Server VM
Default Encoding: UTF-8
Language: de
Country: DE
--></g></svg>